<svg width="20" height="21" viewBox="0 0 20 21" fill="none" xmlns="http://www.w3.org/2000/svg">
<path d="M5.56591 15.5613C5.56591 16.0196 5.92311 16.3946 6.3597 16.3946H7.15349V19.3113C7.15349 20.003 7.68532 20.5614 8.34417 20.5614C9.00302 20.5614 9.53485 20.003 9.53485 19.3113V16.3946H11.1224V19.3113C11.1224 20.003 11.6543 20.5614 12.3131 20.5614C12.972 20.5614 13.5038 20.003 13.5038 19.3113V16.3946H14.2976C14.7342 16.3946 15.0914 16.0196 15.0914 15.5613V7.22781H5.56591V15.5613ZM3.58143 7.22781C2.92259 7.22781 2.39075 7.78616 2.39075 8.47783V14.3113C2.39075 15.0029 2.92259 15.5613 3.58143 15.5613C4.24028 15.5613 4.77212 15.0029 4.77212 14.3113V8.47783C4.77212 7.78616 4.24028 7.22781 3.58143 7.22781ZM17.0759 7.22781C16.417 7.22781 15.8852 7.78616 15.8852 8.47783V14.3113C15.8852 15.0029 16.417 15.5613 17.0759 15.5613C17.7347 15.5613 18.2665 15.0029 18.2665 14.3113V8.47783C18.2665 7.78616 17.7347 7.22781 17.0759 7.22781ZM13.1307 2.36107L14.1626 1.27771C14.3214 1.11104 14.3214 0.852707 14.1626 0.686037C14.0039 0.519368 13.7578 0.519368 13.5991 0.686037L12.4242 1.91939C11.7972 1.58605 11.0827 1.39438 10.3286 1.39438C9.56661 1.39438 8.8522 1.58605 8.21716 1.91939L7.03442 0.686037C6.87566 0.519368 6.62958 0.519368 6.47083 0.686037C6.31207 0.852707 6.31207 1.11104 6.47083 1.27771L7.51069 2.3694C6.33588 3.27775 5.56591 4.73611 5.56591 6.39447H15.0914C15.0914 4.73611 14.3214 3.26941 13.1307 2.36107ZM8.74106 4.72777H7.94727V3.89442H8.74106V4.72777ZM12.71 4.72777H11.9162V3.89442H12.71V4.72777Z" fill="white"/>
</svg>
