<svg width="21" height="11" viewBox="0 0 21 11" fill="none" xmlns="http://www.w3.org/2000/svg">
<path d="M0.217456 10.489H1.87774V3.44881H0.217456V10.489ZM1.0476 2.5288C1.56768 2.5288 1.96775 2.12879 1.96775 1.62878C1.96775 1.12877 1.56768 0.72876 1.0476 0.72876C0.527509 0.72876 0.127441 1.12877 0.127441 1.62878C0.127441 2.12879 0.527509 2.5288 1.0476 2.5288ZM7.37866 0.74876C4.58819 0.74876 2.82789 2.6488 2.82789 5.68886C2.82789 8.74892 4.58819 10.649 7.37866 10.649C10.1691 10.649 11.9294 8.74892 11.9294 5.68886C11.9294 2.6488 10.1691 0.74876 7.37866 0.74876ZM7.37866 2.18879C9.08895 2.18879 10.1791 3.55882 10.1791 5.68886C10.1791 7.8389 9.08895 9.18893 7.37866 9.18893C5.66837 9.18893 4.58819 7.8389 4.58819 5.68886C4.58819 3.55882 5.66837 2.18879 7.37866 2.18879ZM12.6295 7.7989C12.6996 9.55894 14.1298 10.649 16.3502 10.649C18.6706 10.649 20.1308 9.50893 20.1308 7.6889C20.1308 6.25887 19.3107 5.45885 17.3603 5.00884L16.2601 4.75884C15.08 4.47883 14.5999 4.10883 14.5999 3.46881C14.5999 2.6888 15.33 2.13879 16.4102 2.13879C17.5104 2.13879 18.2605 2.6888 18.3405 3.57882H19.9708C19.9308 1.88878 18.5405 0.74876 16.4202 0.74876C14.3398 0.74876 12.8596 1.89878 12.8596 3.59882C12.8596 4.96884 13.6897 5.81886 15.46 6.21887L16.7002 6.50887C17.9104 6.79888 18.4005 7.18889 18.4005 7.8889C18.4005 8.68892 17.6004 9.25893 16.4402 9.25893C15.28 9.25893 14.3898 8.68892 14.2898 7.7989H12.6295Z" fill="white"/>
</svg>
