<svg width="51" height="51" viewBox="0 0 51 51" fill="none" xmlns="http://www.w3.org/2000/svg">
<path d="M21.0767 24.1138L22.8852 25.9122L21.0767 27.7102H8.34656V33.7013L0.58313 25.9122L8.34656 18.2538V24.1138H21.0767ZM26.6725 8.8147H42.1403V24.2828H26.6725V8.8147Z" fill="#212529"/>
<path d="M26.8416 22.0012L25.0435 23.8096L23.2455 22.0012V9.271H17.254L25.0435 1.50757L32.7016 9.271H26.8416V22.0012ZM26.6729 27.597H42.1407V43.0651H26.6729V27.597Z" fill="#212529"/>
<path d="M28.9536 27.7655L27.1448 25.9675L28.9536 24.1695H41.6835V18.178L49.4473 25.9675L41.6835 33.6256V27.7655H28.9536ZM7.88977 27.5969H23.3575V43.065H7.88977V27.5969Z" fill="#212529"/>
<path d="M23.1889 29.8786L24.9869 28.0698L26.7853 29.8786V42.6088H32.7764L24.9869 50.3722L17.3292 42.6088H23.1889V29.8786ZM7.88977 8.8147H23.3575V24.2828H7.88977V8.8147Z" fill="#212529"/>
<path d="M7.33704 8.26221H23.9098V24.835H7.33704V8.26221ZM8.44173 23.7303H22.8048V9.36724H8.44173V23.7303ZM26.1195 8.26221H42.6923V24.835H26.1195V8.26221ZM27.2242 23.7303H41.5873V9.36724H27.2242V23.7303ZM26.1195 27.0447H42.6923V43.6178H26.1195V27.0447ZM27.2242 42.5125H41.5873V28.1494H27.2242V42.5125ZM7.33704 27.0447H23.9098V43.6178H7.33704V27.0447ZM8.44173 42.5125H22.8048V28.1494H8.44173V42.5125Z" fill="white"/>
<path d="M11.7347 37.6587L0.015625 25.9397L11.7343 14.221L23.4533 25.9397L11.7347 37.6587ZM1.57826 25.9397L11.7347 36.0961L21.8907 25.9397L11.7343 15.7836L1.57826 25.9397ZM25.0156 24.3774L13.2969 12.6587L25.0156 0.939697L36.7343 12.6587L25.0156 24.3774ZM14.8596 12.6587L25.0156 22.8148L35.172 12.6587L25.0156 2.50233L14.8596 12.6587ZM38.2969 37.6587L26.5783 25.9397L38.2969 14.221L50.0156 25.9397L38.2969 37.6587ZM28.1405 25.9397L38.2969 36.0961L48.453 25.9397L38.2969 15.7836L28.1405 25.9397ZM25.0156 50.9397L13.2969 39.221L25.0156 27.5023L36.7343 39.221L25.0156 50.9397ZM14.8596 39.221L25.0156 49.3771L35.172 39.221L25.0156 29.065L14.8596 39.221Z" fill="white"/>
</svg>
