<svg width="29" height="226" viewBox="0 0 29 226" fill="none" xmlns="http://www.w3.org/2000/svg">
<circle r="3.75" transform="matrix(1.19249e-08 -1 -1 -1.19249e-08 24.4604 3.78955)" fill="white" fill-opacity="0.1"/>
<circle r="3.75" transform="matrix(1.19249e-08 -1 -1 -1.19249e-08 24.4604 222.04)" fill="white" fill-opacity="0.1"/>
<circle r="3.75" transform="matrix(1.19249e-08 -1 -1 -1.19249e-08 24.4604 202.04)" fill="white" fill-opacity="0.1"/>
<circle r="3.75" transform="matrix(1.19249e-08 -1 -1 -1.19249e-08 24.4604 182.04)" fill="white" fill-opacity="0.1"/>
<circle r="3.75" transform="matrix(1.19249e-08 -1 -1 -1.19249e-08 24.4604 162.04)" fill="white" fill-opacity="0.1"/>
<circle r="3.75" transform="matrix(1.19249e-08 -1 -1 -1.19249e-08 24.4604 142.04)" fill="white" fill-opacity="0.1"/>
<circle r="3.75" transform="matrix(1.19249e-08 -1 -1 -1.19249e-08 24.4604 122.04)" fill="white" fill-opacity="0.1"/>
<circle r="3.75" transform="matrix(1.19249e-08 -1 -1 -1.19249e-08 24.4604 102.04)" fill="white" fill-opacity="0.1"/>
<circle r="3.75" transform="matrix(1.19249e-08 -1 -1 -1.19249e-08 24.4604 82.0396)" fill="white" fill-opacity="0.1"/>
<circle r="3.75" transform="matrix(1.19249e-08 -1 -1 -1.19249e-08 24.4604 62.0396)" fill="white" fill-opacity="0.1"/>
<circle r="3.75" transform="matrix(1.19249e-08 -1 -1 -1.19249e-08 24.4604 42.0396)" fill="white" fill-opacity="0.1"/>
<circle r="3.75" transform="matrix(1.19249e-08 -1 -1 -1.19249e-08 24.4604 22.0396)" fill="white" fill-opacity="0.1"/>
<circle r="3.75" transform="matrix(1.19249e-08 -1 -1 -1.19249e-08 4.46045 3.78955)" fill="white" fill-opacity="0.1"/>
<circle r="3.75" transform="matrix(1.19249e-08 -1 -1 -1.19249e-08 4.46045 222.04)" fill="white" fill-opacity="0.1"/>
<circle r="3.75" transform="matrix(1.19249e-08 -1 -1 -1.19249e-08 4.46045 202.04)" fill="white" fill-opacity="0.1"/>
<circle r="3.75" transform="matrix(1.19249e-08 -1 -1 -1.19249e-08 4.46045 182.04)" fill="white" fill-opacity="0.1"/>
<circle r="3.75" transform="matrix(1.19249e-08 -1 -1 -1.19249e-08 4.46045 162.04)" fill="white" fill-opacity="0.1"/>
<circle r="3.75" transform="matrix(1.19249e-08 -1 -1 -1.19249e-08 4.46045 142.04)" fill="white" fill-opacity="0.1"/>
<circle r="3.75" transform="matrix(1.19249e-08 -1 -1 -1.19249e-08 4.46045 122.04)" fill="white" fill-opacity="0.1"/>
<circle r="3.75" transform="matrix(1.19249e-08 -1 -1 -1.19249e-08 4.46045 102.04)" fill="white" fill-opacity="0.1"/>
<circle r="3.75" transform="matrix(1.19249e-08 -1 -1 -1.19249e-08 4.46045 82.0396)" fill="white" fill-opacity="0.1"/>
<circle r="3.75" transform="matrix(1.19249e-08 -1 -1 -1.19249e-08 4.46045 62.0396)" fill="white" fill-opacity="0.1"/>
<circle r="3.75" transform="matrix(1.19249e-08 -1 -1 -1.19249e-08 4.46045 42.0396)" fill="white" fill-opacity="0.1"/>
<circle r="3.75" transform="matrix(1.19249e-08 -1 -1 -1.19249e-08 4.46045 22.0396)" fill="white" fill-opacity="0.1"/>
</svg>
