<svg width="220" height="369" viewBox="0 0 220 369" fill="none" xmlns="http://www.w3.org/2000/svg">
<ellipse rx="3.63665" ry="3.75" transform="matrix(1 0 0 -1 216.11 364.43)" fill="#212529" fill-opacity="0.1"/>
<ellipse rx="3.63665" ry="3.75" transform="matrix(1 0 0 -1 4.45694 364.43)" fill="#212529" fill-opacity="0.1"/>
<ellipse rx="3.63665" ry="3.75" transform="matrix(1 0 0 -1 23.8524 364.43)" fill="#212529" fill-opacity="0.1"/>
<ellipse rx="3.63665" ry="3.75" transform="matrix(1 0 0 -1 43.2479 364.43)" fill="#212529" fill-opacity="0.1"/>
<ellipse rx="3.63665" ry="3.75" transform="matrix(1 0 0 -1 62.6433 364.43)" fill="#212529" fill-opacity="0.1"/>
<ellipse rx="3.63665" ry="3.75" transform="matrix(1 0 0 -1 82.0388 364.43)" fill="#212529" fill-opacity="0.1"/>
<ellipse rx="3.63665" ry="3.75" transform="matrix(1 0 0 -1 101.434 364.43)" fill="#212529" fill-opacity="0.1"/>
<ellipse rx="3.63665" ry="3.75" transform="matrix(1 0 0 -1 120.83 364.43)" fill="#212529" fill-opacity="0.1"/>
<ellipse rx="3.63665" ry="3.75" transform="matrix(1 0 0 -1 140.225 364.43)" fill="#212529" fill-opacity="0.1"/>
<ellipse rx="3.63665" ry="3.75" transform="matrix(1 0 0 -1 159.621 364.43)" fill="#212529" fill-opacity="0.1"/>
<ellipse rx="3.63665" ry="3.75" transform="matrix(1 0 0 -1 179.016 364.43)" fill="#212529" fill-opacity="0.1"/>
<ellipse rx="3.63665" ry="3.75" transform="matrix(1 0 0 -1 198.412 364.43)" fill="#212529" fill-opacity="0.1"/>
<ellipse rx="3.63665" ry="3.75" transform="matrix(1 0 0 -1 216.11 344.43)" fill="#212529" fill-opacity="0.1"/>
<ellipse rx="3.63665" ry="3.75" transform="matrix(1 0 0 -1 4.45694 344.43)" fill="#212529" fill-opacity="0.1"/>
<ellipse rx="3.63665" ry="3.75" transform="matrix(1 0 0 -1 23.8524 344.43)" fill="#212529" fill-opacity="0.1"/>
<ellipse rx="3.63665" ry="3.75" transform="matrix(1 0 0 -1 43.2479 344.43)" fill="#212529" fill-opacity="0.1"/>
<ellipse rx="3.63665" ry="3.75" transform="matrix(1 0 0 -1 62.6433 344.43)" fill="#212529" fill-opacity="0.1"/>
<ellipse rx="3.63665" ry="3.75" transform="matrix(1 0 0 -1 82.0388 344.43)" fill="#212529" fill-opacity="0.1"/>
<ellipse rx="3.63665" ry="3.75" transform="matrix(1 0 0 -1 101.434 344.43)" fill="#212529" fill-opacity="0.1"/>
<ellipse rx="3.63665" ry="3.75" transform="matrix(1 0 0 -1 120.83 344.43)" fill="#212529" fill-opacity="0.1"/>
<ellipse rx="3.63665" ry="3.75" transform="matrix(1 0 0 -1 140.225 344.43)" fill="#212529" fill-opacity="0.1"/>
<ellipse rx="3.63665" ry="3.75" transform="matrix(1 0 0 -1 159.621 344.43)" fill="#212529" fill-opacity="0.1"/>
<ellipse rx="3.63665" ry="3.75" transform="matrix(1 0 0 -1 179.016 344.43)" fill="#212529" fill-opacity="0.1"/>
<ellipse rx="3.63665" ry="3.75" transform="matrix(1 0 0 -1 198.412 344.43)" fill="#212529" fill-opacity="0.1"/>
<ellipse rx="3.63665" ry="3.75" transform="matrix(1 0 0 -1 216.11 324.43)" fill="#212529" fill-opacity="0.1"/>
<ellipse rx="3.63665" ry="3.75" transform="matrix(1 0 0 -1 4.45694 324.43)" fill="#212529" fill-opacity="0.1"/>
<ellipse rx="3.63665" ry="3.75" transform="matrix(1 0 0 -1 23.8524 324.43)" fill="#212529" fill-opacity="0.1"/>
<ellipse rx="3.63665" ry="3.75" transform="matrix(1 0 0 -1 43.2479 324.43)" fill="#212529" fill-opacity="0.1"/>
<ellipse rx="3.63665" ry="3.75" transform="matrix(1 0 0 -1 62.6433 324.43)" fill="#212529" fill-opacity="0.1"/>
<ellipse rx="3.63665" ry="3.75" transform="matrix(1 0 0 -1 82.0388 324.43)" fill="#212529" fill-opacity="0.1"/>
<ellipse rx="3.63665" ry="3.75" transform="matrix(1 0 0 -1 101.434 324.43)" fill="#212529" fill-opacity="0.1"/>
<ellipse rx="3.63665" ry="3.75" transform="matrix(1 0 0 -1 120.83 324.43)" fill="#212529" fill-opacity="0.1"/>
<ellipse rx="3.63665" ry="3.75" transform="matrix(1 0 0 -1 140.225 324.43)" fill="#212529" fill-opacity="0.1"/>
<ellipse rx="3.63665" ry="3.75" transform="matrix(1 0 0 -1 159.621 324.43)" fill="#212529" fill-opacity="0.1"/>
<ellipse rx="3.63665" ry="3.75" transform="matrix(1 0 0 -1 179.016 324.43)" fill="#212529" fill-opacity="0.1"/>
<ellipse rx="3.63665" ry="3.75" transform="matrix(1 0 0 -1 198.412 324.43)" fill="#212529" fill-opacity="0.1"/>
<ellipse rx="3.63665" ry="3.75" transform="matrix(1 0 0 -1 216.11 304.43)" fill="#212529" fill-opacity="0.1"/>
<ellipse rx="3.63665" ry="3.75" transform="matrix(1 0 0 -1 4.45694 304.43)" fill="#212529" fill-opacity="0.1"/>
<ellipse rx="3.63665" ry="3.75" transform="matrix(1 0 0 -1 23.8524 304.43)" fill="#212529" fill-opacity="0.1"/>
<ellipse rx="3.63665" ry="3.75" transform="matrix(1 0 0 -1 43.2479 304.43)" fill="#212529" fill-opacity="0.1"/>
<ellipse rx="3.63665" ry="3.75" transform="matrix(1 0 0 -1 62.6433 304.43)" fill="#212529" fill-opacity="0.1"/>
<ellipse rx="3.63665" ry="3.75" transform="matrix(1 0 0 -1 82.0388 304.43)" fill="#212529" fill-opacity="0.1"/>
<ellipse rx="3.63665" ry="3.75" transform="matrix(1 0 0 -1 101.434 304.43)" fill="#212529" fill-opacity="0.1"/>
<ellipse rx="3.63665" ry="3.75" transform="matrix(1 0 0 -1 120.83 304.43)" fill="#212529" fill-opacity="0.1"/>
<ellipse rx="3.63665" ry="3.75" transform="matrix(1 0 0 -1 140.225 304.43)" fill="#212529" fill-opacity="0.1"/>
<ellipse rx="3.63665" ry="3.75" transform="matrix(1 0 0 -1 159.621 304.43)" fill="#212529" fill-opacity="0.1"/>
<ellipse rx="3.63665" ry="3.75" transform="matrix(1 0 0 -1 179.016 304.43)" fill="#212529" fill-opacity="0.1"/>
<ellipse rx="3.63665" ry="3.75" transform="matrix(1 0 0 -1 198.412 304.43)" fill="#212529" fill-opacity="0.1"/>
<ellipse rx="3.63665" ry="3.75" transform="matrix(1 0 0 -1 216.11 284.43)" fill="#212529" fill-opacity="0.1"/>
<ellipse rx="3.63665" ry="3.75" transform="matrix(1 0 0 -1 4.45694 284.43)" fill="#212529" fill-opacity="0.1"/>
<ellipse rx="3.63665" ry="3.75" transform="matrix(1 0 0 -1 23.8524 284.43)" fill="#212529" fill-opacity="0.1"/>
<ellipse rx="3.63665" ry="3.75" transform="matrix(1 0 0 -1 43.2479 284.43)" fill="#212529" fill-opacity="0.1"/>
<ellipse rx="3.63665" ry="3.75" transform="matrix(1 0 0 -1 62.6433 284.43)" fill="#212529" fill-opacity="0.1"/>
<ellipse rx="3.63665" ry="3.75" transform="matrix(1 0 0 -1 82.0388 284.43)" fill="#212529" fill-opacity="0.1"/>
<ellipse rx="3.63665" ry="3.75" transform="matrix(1 0 0 -1 101.434 284.43)" fill="#212529" fill-opacity="0.1"/>
<ellipse rx="3.63665" ry="3.75" transform="matrix(1 0 0 -1 120.83 284.43)" fill="#212529" fill-opacity="0.1"/>
<ellipse rx="3.63665" ry="3.75" transform="matrix(1 0 0 -1 140.225 284.43)" fill="#212529" fill-opacity="0.1"/>
<ellipse rx="3.63665" ry="3.75" transform="matrix(1 0 0 -1 159.621 284.43)" fill="#212529" fill-opacity="0.1"/>
<ellipse rx="3.63665" ry="3.75" transform="matrix(1 0 0 -1 179.016 284.43)" fill="#212529" fill-opacity="0.1"/>
<ellipse rx="3.63665" ry="3.75" transform="matrix(1 0 0 -1 198.412 284.43)" fill="#212529" fill-opacity="0.1"/>
<ellipse rx="3.63665" ry="3.75" transform="matrix(1 0 0 -1 216.11 264.43)" fill="#212529" fill-opacity="0.1"/>
<ellipse rx="3.63665" ry="3.75" transform="matrix(1 0 0 -1 4.45694 264.43)" fill="#212529" fill-opacity="0.1"/>
<ellipse rx="3.63665" ry="3.75" transform="matrix(1 0 0 -1 23.8524 264.43)" fill="#212529" fill-opacity="0.1"/>
<ellipse rx="3.63665" ry="3.75" transform="matrix(1 0 0 -1 43.2479 264.43)" fill="#212529" fill-opacity="0.1"/>
<ellipse rx="3.63665" ry="3.75" transform="matrix(1 0 0 -1 62.6433 264.43)" fill="#212529" fill-opacity="0.1"/>
<ellipse rx="3.63665" ry="3.75" transform="matrix(1 0 0 -1 82.0388 264.43)" fill="#212529" fill-opacity="0.1"/>
<ellipse rx="3.63665" ry="3.75" transform="matrix(1 0 0 -1 101.434 264.43)" fill="#212529" fill-opacity="0.1"/>
<ellipse rx="3.63665" ry="3.75" transform="matrix(1 0 0 -1 120.83 264.43)" fill="#212529" fill-opacity="0.1"/>
<ellipse rx="3.63665" ry="3.75" transform="matrix(1 0 0 -1 140.225 264.43)" fill="#212529" fill-opacity="0.1"/>
<ellipse rx="3.63665" ry="3.75" transform="matrix(1 0 0 -1 159.621 264.43)" fill="#212529" fill-opacity="0.1"/>
<ellipse rx="3.63665" ry="3.75" transform="matrix(1 0 0 -1 179.016 264.43)" fill="#212529" fill-opacity="0.1"/>
<ellipse rx="3.63665" ry="3.75" transform="matrix(1 0 0 -1 198.412 264.43)" fill="#212529" fill-opacity="0.1"/>
<ellipse rx="3.63665" ry="3.75" transform="matrix(1 0 0 -1 216.11 244.43)" fill="#212529" fill-opacity="0.1"/>
<ellipse rx="3.63665" ry="3.75" transform="matrix(1 0 0 -1 4.45694 244.43)" fill="#212529" fill-opacity="0.1"/>
<ellipse rx="3.63665" ry="3.75" transform="matrix(1 0 0 -1 23.8524 244.43)" fill="#212529" fill-opacity="0.1"/>
<ellipse rx="3.63665" ry="3.75" transform="matrix(1 0 0 -1 43.2479 244.43)" fill="#212529" fill-opacity="0.1"/>
<ellipse rx="3.63665" ry="3.75" transform="matrix(1 0 0 -1 62.6433 244.43)" fill="#212529" fill-opacity="0.1"/>
<ellipse rx="3.63665" ry="3.75" transform="matrix(1 0 0 -1 82.0388 244.43)" fill="#212529" fill-opacity="0.1"/>
<ellipse rx="3.63665" ry="3.75" transform="matrix(1 0 0 -1 101.434 244.43)" fill="#212529" fill-opacity="0.1"/>
<ellipse rx="3.63665" ry="3.75" transform="matrix(1 0 0 -1 120.83 244.43)" fill="#212529" fill-opacity="0.1"/>
<ellipse rx="3.63665" ry="3.75" transform="matrix(1 0 0 -1 140.225 244.43)" fill="#212529" fill-opacity="0.1"/>
<ellipse rx="3.63665" ry="3.75" transform="matrix(1 0 0 -1 159.621 244.43)" fill="#212529" fill-opacity="0.1"/>
<ellipse rx="3.63665" ry="3.75" transform="matrix(1 0 0 -1 179.016 244.43)" fill="#212529" fill-opacity="0.1"/>
<ellipse rx="3.63665" ry="3.75" transform="matrix(1 0 0 -1 198.412 244.43)" fill="#212529" fill-opacity="0.1"/>
<ellipse rx="3.63665" ry="3.75" transform="matrix(1 0 0 -1 216.11 224.43)" fill="#212529" fill-opacity="0.1"/>
<ellipse rx="3.63665" ry="3.75" transform="matrix(1 0 0 -1 4.45694 224.43)" fill="#212529" fill-opacity="0.1"/>
<ellipse rx="3.63665" ry="3.75" transform="matrix(1 0 0 -1 23.8524 224.43)" fill="#212529" fill-opacity="0.1"/>
<ellipse rx="3.63665" ry="3.75" transform="matrix(1 0 0 -1 43.2479 224.43)" fill="#212529" fill-opacity="0.1"/>
<ellipse rx="3.63665" ry="3.75" transform="matrix(1 0 0 -1 62.6433 224.43)" fill="#212529" fill-opacity="0.1"/>
<ellipse rx="3.63665" ry="3.75" transform="matrix(1 0 0 -1 82.0388 224.43)" fill="#212529" fill-opacity="0.1"/>
<ellipse rx="3.63665" ry="3.75" transform="matrix(1 0 0 -1 101.434 224.43)" fill="#212529" fill-opacity="0.1"/>
<ellipse rx="3.63665" ry="3.75" transform="matrix(1 0 0 -1 120.83 224.43)" fill="#212529" fill-opacity="0.1"/>
<ellipse rx="3.63665" ry="3.75" transform="matrix(1 0 0 -1 140.225 224.43)" fill="#212529" fill-opacity="0.1"/>
<ellipse rx="3.63665" ry="3.75" transform="matrix(1 0 0 -1 159.621 224.43)" fill="#212529" fill-opacity="0.1"/>
<ellipse rx="3.63665" ry="3.75" transform="matrix(1 0 0 -1 179.016 224.43)" fill="#212529" fill-opacity="0.1"/>
<ellipse rx="3.63665" ry="3.75" transform="matrix(1 0 0 -1 198.412 224.43)" fill="#212529" fill-opacity="0.1"/>
<ellipse rx="3.63665" ry="3.75" transform="matrix(1 0 0 -1 4.45694 204.43)" fill="#212529" fill-opacity="0.1"/>
<ellipse rx="3.63665" ry="3.75" transform="matrix(1 0 0 -1 23.8524 204.43)" fill="#212529" fill-opacity="0.1"/>
<ellipse rx="3.63665" ry="3.75" transform="matrix(1 0 0 -1 43.2479 204.43)" fill="#212529" fill-opacity="0.1"/>
<ellipse rx="3.63665" ry="3.75" transform="matrix(1 0 0 -1 62.6433 204.43)" fill="#212529" fill-opacity="0.1"/>
<ellipse rx="3.63665" ry="3.75" transform="matrix(1 0 0 -1 82.0388 204.43)" fill="#212529" fill-opacity="0.1"/>
<ellipse rx="3.63665" ry="3.75" transform="matrix(1 0 0 -1 4.45694 184.43)" fill="#212529" fill-opacity="0.1"/>
<ellipse rx="3.63665" ry="3.75" transform="matrix(1 0 0 -1 23.8524 184.43)" fill="#212529" fill-opacity="0.1"/>
<ellipse rx="3.63665" ry="3.75" transform="matrix(1 0 0 -1 43.2479 184.43)" fill="#212529" fill-opacity="0.1"/>
<ellipse rx="3.63665" ry="3.75" transform="matrix(1 0 0 -1 62.6433 184.43)" fill="#212529" fill-opacity="0.1"/>
<ellipse rx="3.63665" ry="3.75" transform="matrix(1 0 0 -1 82.0388 184.43)" fill="#212529" fill-opacity="0.1"/>
<ellipse rx="3.63665" ry="3.75" transform="matrix(1 0 0 -1 4.45694 164.43)" fill="#212529" fill-opacity="0.1"/>
<ellipse rx="3.63665" ry="3.75" transform="matrix(1 0 0 -1 23.8524 164.43)" fill="#212529" fill-opacity="0.1"/>
<ellipse rx="3.63665" ry="3.75" transform="matrix(1 0 0 -1 43.2479 164.43)" fill="#212529" fill-opacity="0.1"/>
<ellipse rx="3.63665" ry="3.75" transform="matrix(1 0 0 -1 62.6433 164.43)" fill="#212529" fill-opacity="0.1"/>
<ellipse rx="3.63665" ry="3.75" transform="matrix(1 0 0 -1 82.0388 164.43)" fill="#212529" fill-opacity="0.1"/>
<ellipse rx="3.63665" ry="3.75" transform="matrix(1 0 0 -1 4.45694 144.43)" fill="#212529" fill-opacity="0.1"/>
<ellipse rx="3.63665" ry="3.75" transform="matrix(1 0 0 -1 23.8524 144.43)" fill="#212529" fill-opacity="0.1"/>
<ellipse rx="3.63665" ry="3.75" transform="matrix(1 0 0 -1 43.2479 144.43)" fill="#212529" fill-opacity="0.1"/>
<ellipse rx="3.63665" ry="3.75" transform="matrix(1 0 0 -1 62.6433 144.43)" fill="#212529" fill-opacity="0.1"/>
<ellipse rx="3.63665" ry="3.75" transform="matrix(1 0 0 -1 82.0388 144.43)" fill="#212529" fill-opacity="0.1"/>
<ellipse rx="3.63665" ry="3.75" transform="matrix(1 0 0 -1 4.45694 124.43)" fill="#212529" fill-opacity="0.1"/>
<ellipse rx="3.63665" ry="3.75" transform="matrix(1 0 0 -1 23.8524 124.43)" fill="#212529" fill-opacity="0.1"/>
<ellipse rx="3.63665" ry="3.75" transform="matrix(1 0 0 -1 43.2479 124.43)" fill="#212529" fill-opacity="0.1"/>
<ellipse rx="3.63665" ry="3.75" transform="matrix(1 0 0 -1 62.6433 124.43)" fill="#212529" fill-opacity="0.1"/>
<ellipse rx="3.63665" ry="3.75" transform="matrix(1 0 0 -1 82.0388 124.43)" fill="#212529" fill-opacity="0.1"/>
<ellipse rx="3.63665" ry="3.75" transform="matrix(1 0 0 -1 4.45694 104.43)" fill="#212529" fill-opacity="0.1"/>
<ellipse rx="3.63665" ry="3.75" transform="matrix(1 0 0 -1 23.8524 104.43)" fill="#212529" fill-opacity="0.1"/>
<ellipse rx="3.63665" ry="3.75" transform="matrix(1 0 0 -1 43.2479 104.43)" fill="#212529" fill-opacity="0.1"/>
<ellipse rx="3.63665" ry="3.75" transform="matrix(1 0 0 -1 62.6433 104.43)" fill="#212529" fill-opacity="0.1"/>
<ellipse rx="3.63665" ry="3.75" transform="matrix(1 0 0 -1 82.0388 104.43)" fill="#212529" fill-opacity="0.1"/>
<ellipse rx="3.63665" ry="3.75" transform="matrix(1 0 0 -1 4.45694 84.4302)" fill="#212529" fill-opacity="0.1"/>
<ellipse rx="3.63665" ry="3.75" transform="matrix(1 0 0 -1 23.8524 84.4302)" fill="#212529" fill-opacity="0.1"/>
<ellipse rx="3.63665" ry="3.75" transform="matrix(1 0 0 -1 43.2479 84.4302)" fill="#212529" fill-opacity="0.1"/>
<ellipse rx="3.63665" ry="3.75" transform="matrix(1 0 0 -1 62.6433 84.4302)" fill="#212529" fill-opacity="0.1"/>
<ellipse rx="3.63665" ry="3.75" transform="matrix(1 0 0 -1 82.0388 84.4302)" fill="#212529" fill-opacity="0.1"/>
<ellipse rx="3.63665" ry="3.75" transform="matrix(1 0 0 -1 4.45694 64.4302)" fill="#212529" fill-opacity="0.1"/>
<ellipse rx="3.63665" ry="3.75" transform="matrix(1 0 0 -1 23.8524 64.4302)" fill="#212529" fill-opacity="0.1"/>
<ellipse rx="3.63665" ry="3.75" transform="matrix(1 0 0 -1 43.2479 64.4302)" fill="#212529" fill-opacity="0.1"/>
<ellipse rx="3.63665" ry="3.75" transform="matrix(1 0 0 -1 62.6433 64.4302)" fill="#212529" fill-opacity="0.1"/>
<ellipse rx="3.63665" ry="3.75" transform="matrix(1 0 0 -1 82.0388 64.4302)" fill="#212529" fill-opacity="0.1"/>
<ellipse rx="3.63665" ry="3.75" transform="matrix(1 0 0 -1 4.45694 44.4302)" fill="#212529" fill-opacity="0.1"/>
<ellipse rx="3.63665" ry="3.75" transform="matrix(1 0 0 -1 23.8524 44.4302)" fill="#212529" fill-opacity="0.1"/>
<ellipse rx="3.63665" ry="3.75" transform="matrix(1 0 0 -1 43.2479 44.4302)" fill="#212529" fill-opacity="0.1"/>
<ellipse rx="3.63665" ry="3.75" transform="matrix(1 0 0 -1 62.6433 44.4302)" fill="#212529" fill-opacity="0.1"/>
<ellipse rx="3.63665" ry="3.75" transform="matrix(1 0 0 -1 82.0388 44.4302)" fill="#212529" fill-opacity="0.1"/>
<ellipse rx="3.63665" ry="3.75" transform="matrix(1 0 0 -1 4.45694 24.4302)" fill="#212529" fill-opacity="0.1"/>
<ellipse rx="3.63665" ry="3.75" transform="matrix(1 0 0 -1 23.8524 24.4302)" fill="#212529" fill-opacity="0.1"/>
<ellipse rx="3.63665" ry="3.75" transform="matrix(1 0 0 -1 43.2479 24.4302)" fill="#212529" fill-opacity="0.1"/>
<ellipse rx="3.63665" ry="3.75" transform="matrix(1 0 0 -1 62.6433 24.4302)" fill="#212529" fill-opacity="0.1"/>
<ellipse rx="3.63665" ry="3.75" transform="matrix(1 0 0 -1 82.0388 24.4302)" fill="#212529" fill-opacity="0.1"/>
<ellipse rx="3.63665" ry="3.75" transform="matrix(1 0 0 -1 4.45694 4.43018)" fill="#212529" fill-opacity="0.1"/>
<ellipse rx="3.63665" ry="3.75" transform="matrix(1 0 0 -1 23.8524 4.43018)" fill="#212529" fill-opacity="0.1"/>
<ellipse rx="3.63665" ry="3.75" transform="matrix(1 0 0 -1 43.2479 4.43018)" fill="#212529" fill-opacity="0.1"/>
<ellipse rx="3.63665" ry="3.75" transform="matrix(1 0 0 -1 62.6433 4.43018)" fill="#212529" fill-opacity="0.1"/>
<ellipse rx="3.63665" ry="3.75" transform="matrix(1 0 0 -1 82.0388 4.43018)" fill="#212529" fill-opacity="0.1"/>
</svg>
