<svg width="48" height="51" viewBox="0 0 48 51" fill="none" xmlns="http://www.w3.org/2000/svg">
<path d="M34.9774 42.4949C29.8492 42.4949 23.5458 40.6787 17.456 37.153C13.6099 34.9095 10.0842 32.2385 7.41328 29.3539L9.01585 27.8582C11.58 30.636 14.7851 33.2001 18.5244 35.3368C26.6441 40.0377 35.5116 41.6402 40.2124 39.3966C39.9988 38.9693 39.8919 38.5419 39.8919 38.0077C39.8919 36.0847 41.4945 34.4821 43.5244 34.4821C45.5543 34.4821 47.1569 36.0847 47.1569 38.0077C47.1569 39.9308 45.5543 41.5334 43.5244 41.5334C42.8834 41.5334 42.2423 41.3197 41.6013 40.9992C39.7851 41.9607 37.5415 42.4949 34.9774 42.4949ZM43.4176 36.512C42.5629 36.512 41.9218 37.153 41.9218 37.9009C41.9218 38.6488 42.5629 39.2898 43.4176 39.2898C44.2723 39.2898 44.9133 38.6488 44.9133 37.9009C44.9133 37.153 44.2723 36.512 43.4176 36.512ZM3.88764 24.653C1.64405 20.8069 1.2167 17.0676 2.81927 14.3966C4.95602 10.7642 10.0842 9.37527 16.9218 10.6573L16.4945 12.7941C10.6184 11.7257 6.23807 12.7941 4.63551 15.5718C3.46029 17.6018 3.88764 20.4864 5.70388 23.6915L3.88764 24.653Z" fill="#212529"/>
<path d="M3.88858 41.5335C1.85867 41.5335 0.256104 39.9309 0.256104 38.0079C0.256104 36.7258 0.897129 35.6574 1.85867 35.0164C1.53815 28.9267 7.73474 21.1275 17.3501 15.6788C21.3031 13.4352 25.4698 11.8326 29.3159 10.9779L29.7433 13.1147C26.004 13.8626 22.1578 15.4651 18.3117 17.6019C10.0852 22.1959 4.2091 29.354 4.10226 34.3754C6.02533 34.4822 7.52106 35.9779 7.52106 37.901C7.52106 39.9309 5.9185 41.5335 3.88858 41.5335ZM3.88858 36.5121C3.03388 36.5121 2.39286 37.1532 2.39286 37.901C2.39286 38.6489 3.03388 39.2899 3.88858 39.2899C4.74328 39.2899 5.38431 38.6489 5.38431 37.901C5.38431 37.1532 4.74328 36.5121 3.88858 36.5121ZM40.7476 28.4993L39.145 27.1104C42.9912 22.6232 44.2732 18.3497 42.6706 15.572C41.4954 13.542 38.9313 12.4737 35.192 12.4737V10.3369C39.5723 10.4438 42.8843 11.8326 44.4869 14.5036C46.6236 18.1361 45.2347 23.1574 40.7476 28.4993Z" fill="#212529"/>
<path d="M23.6537 50.1873C19.3802 50.1873 15.6408 46.4479 13.2904 39.9308L15.3203 39.183C17.3502 44.7385 20.4485 47.9437 23.6537 47.9437C25.8972 47.9437 28.2477 46.2343 30.0639 43.2428L31.8802 44.3112C29.6366 48.1573 26.7519 50.1873 23.6537 50.1873ZM34.4443 38.7556L32.4143 38.1146C33.4827 34.589 34.1237 30.5291 34.1237 26.3625C34.1237 16.8539 31.0255 8.41375 26.6451 5.63597C26.0041 6.59751 24.9357 7.23854 23.6537 7.23854C21.6237 7.23854 20.0212 5.63597 20.0212 3.7129C20.0212 1.78982 21.6237 0.187256 23.6537 0.187256C25.5767 0.187256 27.1793 1.68298 27.2861 3.60606C32.628 6.49067 36.2605 15.6787 36.2605 26.3625C36.2605 30.7428 35.6195 35.0163 34.4443 38.7556ZM23.6537 2.21717C22.799 2.21717 22.1579 2.8582 22.1579 3.60606C22.1579 4.35392 22.799 4.99495 23.6537 4.99495C24.5084 4.99495 25.1494 4.35392 25.1494 3.60606C25.1494 2.8582 24.5084 2.21717 23.6537 2.21717Z" fill="#212529"/>
<path d="M23.653 29.7813C22.0504 29.7813 20.6615 28.7129 20.341 27.1104C20.1274 26.2557 20.341 25.2941 20.7684 24.5463C21.3026 23.7984 22.0504 23.2642 22.9051 23.0505C24.7214 22.6232 26.5376 23.7984 26.965 25.6146C27.1786 26.4693 26.965 27.4309 26.5376 28.1788C26.0034 28.9266 25.2556 29.4608 24.4009 29.6745C24.1872 29.6745 23.9735 29.7813 23.653 29.7813ZM23.653 25.1873C23.5462 25.1873 23.4393 25.1873 23.4393 25.1873C23.1188 25.2941 22.7983 25.401 22.6915 25.7215C22.4778 26.042 22.4778 26.3625 22.4778 26.5762C22.5846 27.2172 23.3325 27.6446 23.9735 27.5377C24.294 27.4309 24.6145 27.3241 24.7214 27.0035C24.935 26.683 24.935 26.3625 24.935 26.1488C24.8282 25.5078 24.294 25.1873 23.653 25.1873Z" fill="#212529"/>
</svg>
