<svg width="50" height="51" viewBox="0 0 50 51" fill="none" xmlns="http://www.w3.org/2000/svg">
<path d="M36.5783 8.96387C36.5783 8.96387 25.514 9.68244 24.9429 16.7963C24.6574 19.9581 27.8696 21.6826 27.941 23.9821C28.0124 25.8504 26.085 27.4312 26.085 27.4312C26.085 27.4312 29.6542 26.7845 30.7249 23.9102C31.9384 20.7485 28.3693 18.5209 28.7262 16.0059C29.0831 13.4909 36.5783 8.96387 36.5783 8.96387Z" fill="#212529"/>
<path d="M28.2275 0.125244C30.94 6.52056 18.3052 10.4727 17.1631 15.7902C16.0923 20.6765 24.6583 26.3532 24.6583 26.3532C23.3734 24.3412 22.4454 22.6166 21.0892 19.5268C18.8763 14.2093 34.5092 9.39486 28.2275 0.125244Z" fill="#212529"/>
<path d="M39.22 25.4191C38.0779 25.3473 36.793 25.7784 35.6509 26.5688C37.9351 26.0658 39.8625 27.503 39.8625 29.0838C39.8625 32.7485 34.6515 36.1976 34.6515 36.1976C34.6515 36.1976 42.7892 35.2635 42.7892 29.2994C42.7178 26.8563 41.1474 25.491 39.22 25.4191Z" fill="#212529"/>
<path d="M19.2332 25.4192C19.2332 25.4192 9.09683 25.2754 9.09683 28.15C9.09683 31.1683 22.3741 31.3839 31.7966 29.5154C31.7966 29.5154 34.295 27.7907 35.0089 27.1439C28.7986 28.4374 14.6647 28.5812 14.6647 27.5032C14.6647 26.4971 19.2332 25.4192 19.2332 25.4192Z" fill="#212529"/>
<path d="M16.7347 31.0242C15.1643 31.0242 12.88 32.2459 12.88 33.3958C12.88 35.7674 24.5869 37.5641 33.2242 34.1145L30.2261 32.2459C24.3727 34.1864 13.5939 33.5395 16.7347 31.0242Z" fill="#212529"/>
<path d="M18.2333 36.2695C16.0918 36.2695 14.7355 37.5631 14.7355 38.5692C14.7355 41.5876 27.4417 41.875 32.4385 38.8567L29.2263 36.7726C25.443 38.3536 16.0204 38.5692 18.2333 36.2695Z" fill="#212529"/>
<path d="M11.0946 38.9999C7.59682 38.9281 5.38394 40.5091 5.38394 41.8028C5.38394 48.7021 40.8613 48.4146 40.8613 41.2997C40.8613 40.1498 39.505 39.5749 39.0054 39.2874C41.9321 46.043 9.95246 45.5399 9.95246 41.5153C9.95246 40.581 12.3081 39.7186 14.4496 40.1498L12.5936 39.0718C12.094 39.0718 11.5943 38.9999 11.0946 38.9999Z" fill="#212529"/>
<path d="M44.644 43.6704C39.2189 48.8448 25.5847 50.7133 11.8078 47.5512C25.5847 53.1567 44.5726 49.9946 44.644 43.6704Z" fill="#212529"/>
</svg>
