<svg width="34" height="51" viewBox="0 0 34 51" fill="none" xmlns="http://www.w3.org/2000/svg">
<path d="M33.4354 22.4022C33.384 22.9354 33.3325 23.4757 33.2811 24.0089C32.9652 27.1213 32.2526 30.1112 30.4893 32.7769C29.5122 34.2466 28.2926 35.4858 26.6763 36.2783C26.1914 36.5089 25.633 36.5881 25.1114 36.7466C24.9791 36.7898 24.8322 36.8475 24.7514 36.9483C22.6869 39.2754 20.0935 40.6803 17.0151 41.2279C14.3409 41.7034 11.7768 41.372 9.39641 40.0247C9.14662 39.8806 9.02172 39.9311 8.8454 40.1184C8.14744 40.8677 7.74336 41.7682 7.50826 42.7264C6.98663 44.7942 6.52378 46.8835 6.03154 48.9584C5.8846 49.5924 5.73767 50.2336 5.58338 50.9397C5.48787 50.774 5.42175 50.6731 5.36297 50.5651C4.42992 48.8504 3.51891 47.1285 2.56381 45.4282C1.58668 43.6702 1.10178 41.7754 0.829949 39.8158C0.727092 39.1025 0.668317 38.3893 0.594849 37.676C0.594849 36.9555 0.594849 36.2351 0.594849 35.5146C0.690358 34.8878 0.763827 34.2538 0.896071 33.6414C1.28546 31.8547 2.04218 30.2553 3.45279 29.0017C4.54012 28.0362 5.78175 27.5103 7.28051 27.8129C7.37602 27.8345 7.47153 27.8345 7.61112 27.8489C7.48622 27.3662 7.35398 26.9123 7.25112 26.4512C6.84704 24.6357 6.81766 22.8273 7.59643 21.0838C8.52948 18.9945 10.2193 17.7264 12.3352 16.9483C12.9082 16.7394 13.496 16.5881 14.0911 16.4368C14.3335 16.3792 14.3996 16.2783 14.3923 16.0478C14.3409 14.7005 14.5907 13.3965 14.9653 12.114C15.5678 10.0751 17.0372 8.85756 19.0061 8.15151C19.7996 7.86333 20.5784 7.56073 21.2543 7.04921C21.7098 6.70339 22.033 6.29993 22.0624 5.70915C22.0992 5.05353 22.1947 4.39791 22.1873 3.74229C22.18 2.27255 22.8486 1.37197 24.3032 0.997334C24.34 0.99013 24.362 0.961311 24.3914 0.939697C24.6338 0.939697 24.8836 0.939697 25.1261 0.939697C26.3236 1.21347 27.0216 2.02039 27.4477 3.08667C27.8371 4.08091 28.2265 5.07514 28.5424 6.0982C28.9979 7.60396 28.9097 9.10973 28.2632 10.5579C28.0575 11.0262 27.6387 11.4584 27.5946 11.9267C27.5506 12.4166 27.8297 12.9426 27.9914 13.4397C28.0281 13.5622 28.153 13.7135 28.2632 13.7423C30.9889 14.4339 32.5317 16.2135 33.1342 18.8432C33.2738 19.47 33.3399 20.1184 33.4354 20.7524C33.4354 21.2999 33.4354 21.8475 33.4354 22.4022ZM26.0371 15.4282C26.0371 15.4066 26.0224 15.3705 26.0297 15.3345C26.2649 14.1241 25.971 13.0002 25.3979 11.9339C25.251 11.6602 25.2877 11.5161 25.4787 11.2927C26.7057 9.91664 27.1832 8.33883 26.6395 6.55209C26.3604 5.6371 25.993 4.74373 25.6551 3.84316C25.5669 3.61981 25.442 3.41088 25.3171 3.20915C25.1481 2.93537 24.9057 2.79128 24.5751 2.89935C24.2518 3.00742 24.1563 3.25958 24.1563 3.57659C24.1489 4.16736 24.1196 4.75094 24.0975 5.33451C24.0461 6.97716 23.2894 8.20195 21.82 8.98725C21.1441 9.34748 20.4388 9.65007 19.7261 9.92385C18.5506 10.3777 17.4853 10.9901 17.0225 12.1933C16.4494 13.6774 16.207 15.2264 16.4053 16.8259C16.4494 17.1789 16.5376 17.5247 16.611 17.9066C16.4494 17.9426 16.3098 17.9714 16.1702 17.993C14.9286 18.2019 13.687 18.4253 12.5335 18.944C10.8658 19.6933 9.60212 20.81 9.13192 22.6184C8.79397 23.908 8.91152 25.1976 9.27151 26.4584C9.79314 28.274 10.594 29.9166 12.4307 30.9613C12.2764 31.3864 12.1148 31.8331 11.9237 32.3518C11.2625 31.9483 10.7115 31.5953 10.1458 31.2783C9.29356 30.7956 8.44866 30.2769 7.55234 29.8734C6.48705 29.3979 5.53195 29.6717 4.70176 30.4714C3.4087 31.725 2.84299 33.2956 2.64463 35.0175C2.45361 36.6385 2.57116 38.2524 2.79891 39.8662C3.0634 41.7754 3.6438 43.5838 4.67971 45.2409C4.7091 45.2913 4.7091 45.3561 4.7238 45.4138C5.09114 44.2106 5.35563 43.0939 5.67889 41.9844C6.20787 40.176 7.15561 38.6414 8.8454 37.6472C8.99233 37.5607 9.10254 37.4599 9.28621 37.6184C11.2625 39.225 13.5621 39.7437 16.06 39.4195C19.4616 38.98 22.202 37.431 24.0755 34.5492C24.1049 34.4988 24.1416 34.4555 24.1857 34.3979C24.2738 34.4483 24.3473 34.4844 24.4134 34.5348C24.8028 34.8878 25.2363 34.895 25.6624 34.6285C26.184 34.3042 26.7351 33.9944 27.2052 33.5982C28.7114 32.3086 29.6297 30.6371 30.2836 28.8143C31.033 26.7106 31.3268 24.5276 31.4444 22.3158C31.5032 21.1847 31.4664 20.0607 31.1579 18.9584C30.6656 17.1789 29.5636 15.9829 27.6755 15.5939C27.1465 15.4858 26.5881 15.4786 26.0371 15.4282Z" fill="#212529"/>
<path d="M26.0372 15.4279C26.5882 15.4783 27.1466 15.4855 27.6756 15.5936C29.5564 15.9827 30.6658 17.1714 31.158 18.9582C31.4592 20.0605 31.5033 21.1844 31.4445 22.3155C31.327 24.5273 31.0404 26.7103 30.2837 28.8141C29.6298 30.6368 28.7115 32.3083 27.2054 33.5979C26.7425 33.9942 26.1915 34.304 25.6625 34.6282C25.2364 34.8948 24.8103 34.8876 24.4136 34.5345C24.3548 34.4769 24.274 34.4481 24.1858 34.3977C24.1417 34.4553 24.105 34.4985 24.0756 34.5489C22.2021 37.4308 19.4618 38.9798 16.0602 39.4193C13.5622 39.7435 11.2626 39.2247 9.28633 37.6181C9.09531 37.4668 8.99246 37.5605 8.84552 37.6469C7.14839 38.6484 6.20799 40.1758 5.67901 41.9841C5.35575 43.0864 5.09126 44.2103 4.72392 45.4135C4.70922 45.3559 4.70922 45.291 4.67984 45.2406C3.65127 43.5835 3.07087 41.7752 2.79903 39.866C2.57128 38.2593 2.45373 36.6383 2.64475 35.0173C2.84312 33.2953 3.40883 31.7247 4.70188 30.4711C5.52473 29.6714 6.48717 29.3904 7.55247 29.8732C8.44879 30.2766 9.28633 30.7953 10.1459 31.2781C10.719 31.6023 11.27 31.9553 11.9239 32.3515C12.1149 31.8328 12.2765 31.3789 12.4308 30.9611C10.5941 29.9164 9.79326 28.2737 9.27164 26.4582C8.91164 25.1974 8.79409 23.9077 9.13205 22.6181C9.60225 20.8098 10.8659 19.693 12.5337 18.9438C13.6945 18.425 14.9287 18.2089 16.1704 17.9927C16.3099 17.9711 16.4495 17.9351 16.6112 17.9063C16.5377 17.5244 16.4495 17.1786 16.4055 16.8256C16.2071 15.2334 16.4495 13.6772 17.0226 12.193C17.4854 10.9899 18.5507 10.3775 19.7262 9.92358C20.4389 9.64981 21.1515 9.34721 21.8201 8.98698C23.2821 8.20888 24.0462 6.97689 24.0976 5.33424C24.1197 4.75067 24.1491 4.15989 24.1564 3.57632C24.1564 3.25211 24.2519 2.99995 24.5752 2.89908C24.9058 2.79101 25.1482 2.93511 25.3172 3.20888C25.4421 3.41782 25.5744 3.61955 25.6552 3.84289C25.9931 4.74347 26.3605 5.62963 26.6397 6.55182C27.1833 8.33857 26.6984 9.91638 25.4789 11.2925C25.2805 11.5158 25.2511 11.6599 25.398 11.9337C25.9711 12.9927 26.265 14.1239 26.0299 15.3342C26.0225 15.3703 26.0372 15.4063 26.0372 15.4279ZM26.1327 17.2723C25.9123 17.3732 25.758 17.4092 25.6331 17.5028C24.8544 18.0576 24.0976 18.6412 23.3115 19.1887C22.496 19.7579 21.6805 20.327 20.8356 20.8458C20.2773 21.1916 19.6822 21.1268 19.1605 20.7161C18.7271 20.3703 18.301 20.01 17.8969 19.621C17.6985 19.4337 17.5001 19.3544 17.243 19.3976C16.7287 19.4841 16.2071 19.5706 15.6928 19.6714C14.6275 19.8804 13.5696 20.1325 12.5851 20.6224C11.4977 21.1628 10.6896 21.9337 10.5059 23.1873C10.2267 25.1541 10.7043 26.9409 11.8284 28.5835C12.3353 29.3256 13.0185 29.6138 13.9149 29.4193C15.1638 29.1527 16.4275 28.9149 17.6765 28.6196C18.683 28.3818 19.6748 28.0864 20.7107 27.8054C20.6446 27.7262 20.6079 27.6757 20.5638 27.6397C19.1899 26.5014 17.6177 25.8602 15.8104 25.9971C14.7083 26.0835 13.6283 26.3717 12.5337 26.5662C12.2986 26.6095 12.0414 26.7536 11.8798 26.4726C11.7035 26.1556 11.99 26.0187 12.181 25.8674C12.5043 25.6152 12.8275 25.3559 13.1802 25.1397C15.2814 23.8357 17.5516 23.1945 20.0569 23.5331C21.8715 23.7781 23.5246 24.4409 25.0601 25.3919C25.8682 25.889 26.625 26.4582 27.4111 26.9913C27.6903 27.1786 27.9915 27.3299 28.3882 27.5677C28.3882 27.1642 28.4323 26.8688 28.3809 26.5951C27.9841 24.5273 27.3082 22.5389 26.5515 20.5792C26.1548 19.5201 25.8242 18.4827 26.1327 17.2723ZM24.0168 29.902C23.9507 29.8732 23.914 29.8515 23.8846 29.8515C22.9662 29.7579 22.1581 29.4481 21.5115 28.7708C21.4454 28.6988 21.2617 28.6844 21.1589 28.7204C18.9548 29.4697 16.7581 30.2406 14.554 30.9899C14.1353 31.134 13.8708 31.3501 13.7753 31.7896C13.7238 32.0201 13.6063 32.2363 13.5034 32.4524C12.732 34.0086 11.4316 35.0028 9.88877 35.7377C9.75653 35.8026 9.61694 35.8674 9.40388 35.9755C9.53612 36.0691 9.60959 36.1196 9.67571 36.17C9.78592 36.2636 9.89612 36.3573 10.0137 36.451C11.3728 37.4956 12.9377 37.8991 14.6349 37.9063C17.9703 37.9279 20.6226 36.6023 22.5915 33.9726C23.4805 32.7694 23.9727 31.4221 24.0168 29.902ZM23.5099 16.9409C22.0919 16.6095 21.5483 15.6368 21.4454 14.3112C20.2185 14.7363 19.0283 15.0893 17.9777 15.7737C17.6765 15.9683 17.6103 16.242 17.6691 16.559C17.8748 17.8126 18.5067 18.7997 19.6234 19.4625C19.8071 19.5706 20.0862 19.6426 20.2773 19.585C21.6952 19.1599 22.8854 18.4178 23.5099 16.9409ZM6.42105 31.2925C6.23737 31.4221 6.06105 31.523 5.91411 31.6599C5.33371 32.1786 4.94432 32.827 4.65045 33.5331C3.98923 35.1469 3.90841 36.8184 4.09208 38.5187C4.1729 39.268 4.2978 40.0173 4.408 40.7593C5.06187 38.9654 6.24472 37.6181 7.80226 36.523C6.89859 36.0979 6.61207 35.4135 6.67819 34.5201C6.72962 33.8861 6.75166 33.2521 6.73696 32.6181C6.73696 32.1786 6.72227 31.7247 6.42105 31.2925ZM27.1907 28.3314C26.074 27.5461 25.0527 26.7391 23.9507 26.0619C21.7393 24.7002 19.3295 24.2464 16.7434 24.7219C16.5891 24.7507 16.4348 24.7867 16.2806 24.8227C16.1336 24.8587 15.9867 24.9092 15.8397 24.9524C16.7655 25.0533 17.6912 25.1397 18.5507 25.3919C20.0642 25.8458 21.2544 26.8112 22.2609 27.9855C22.687 28.4827 23.2234 28.7564 23.8772 28.7997C24.994 28.8789 26.074 28.7276 27.1907 28.3314ZM29.4609 26.2708C29.887 24.4049 29.9898 22.4596 29.8796 20.5C29.8209 19.5057 29.5343 18.5547 28.8731 17.7694C28.638 17.4884 28.3001 17.2651 27.9694 17.0778C27.6976 16.9265 27.4552 17.0489 27.3303 17.3515C27.0731 17.9711 27.0144 18.6051 27.2348 19.2464C27.6095 20.3198 28.0209 21.3861 28.3588 22.474C28.7556 23.742 29.1009 25.0317 29.4609 26.2708ZM17.772 14.7074C18.6389 14.34 19.4618 13.9366 20.3213 13.634C21.2324 13.317 21.9156 12.755 22.4079 11.9625C22.7311 11.4438 23.0177 10.8962 23.2895 10.3487C23.4585 10.01 23.5687 9.64981 23.7009 9.29678C22.6283 10.1541 21.4013 10.6585 20.1891 11.1988C19.6822 11.4221 19.212 11.7463 18.7418 12.0417C18.6095 12.121 18.4699 12.2291 18.4038 12.3587C18.0144 13.0936 17.8675 13.8861 17.772 14.7074ZM25.1776 33.4394C26.8233 32.2651 27.8666 30.6945 28.6748 28.8213C27.6462 29.3904 26.6103 29.621 25.567 29.8011C25.3319 29.8443 25.2585 29.9308 25.2217 30.1613C25.0674 31.0331 24.8838 31.8904 24.7221 32.7622C24.7001 32.8631 24.7368 33.0072 24.8029 33.0936C24.8911 33.2233 25.038 33.317 25.1776 33.4394ZM8.2945 32.0273C8.22103 32.6469 8.14756 33.2233 8.08879 33.8069C8.05205 34.1383 8.01532 34.4769 8.03001 34.8083C8.04471 35.1613 8.22838 35.2838 8.5296 35.1685C9.46266 34.8155 10.2635 34.2608 11.0202 33.6268C10.1092 33.0936 9.22021 32.5677 8.2945 32.0273ZM24.2887 12.5821C23.8772 12.9063 23.4879 13.1873 23.1205 13.5043C22.5768 13.9726 22.496 14.5634 22.8413 15.1902C23.0397 15.5504 23.3336 15.8098 23.7597 15.8098C24.1711 15.8098 24.4209 15.5216 24.5825 15.183C25.038 14.2896 24.8323 13.4538 24.2887 12.5821ZM25.3319 7.12099C24.994 8.28093 24.6634 9.39764 24.3401 10.5072C25.1042 9.52012 25.4642 8.41782 25.3319 7.12099Z" fill="white"/>
<path d="M26.132 17.2722C25.8161 18.4826 26.1541 19.5201 26.5582 20.5647C27.3149 22.5244 27.9908 24.5128 28.3875 26.5806C28.439 26.8543 28.3949 27.1497 28.3949 27.5532C27.9908 27.3154 27.6896 27.1641 27.4177 26.9768C26.6316 26.4509 25.8749 25.8745 25.0667 25.3774C23.5312 24.4264 21.8782 23.7636 20.0635 23.5186C17.5582 23.18 15.288 23.8212 13.1868 25.1252C12.8342 25.3414 12.5109 25.6007 12.1877 25.8529C11.9966 26.0042 11.7101 26.1411 11.8864 26.4581C12.0481 26.7463 12.3126 26.595 12.5403 26.5518C13.6276 26.35 14.715 26.069 15.817 25.9826C17.617 25.8457 19.1966 26.4869 20.5704 27.6252C20.6145 27.6613 20.6513 27.7117 20.7174 27.7909C19.6888 28.0719 18.697 28.3673 17.6831 28.6051C16.4342 28.9005 15.1778 29.1382 13.9215 29.4048C13.0252 29.5921 12.3419 29.3039 11.835 28.569C10.7109 26.9336 10.226 25.1469 10.5126 23.1728C10.6889 21.9192 11.5044 21.1483 12.5917 20.608C13.5689 20.1252 14.6268 19.8659 15.6995 19.6569C16.2137 19.5561 16.7354 19.4696 17.2497 19.3832C17.5068 19.3399 17.7052 19.4192 17.9035 19.6065C18.3076 19.9884 18.7264 20.3558 19.1672 20.7016C19.6888 21.1123 20.2839 21.1771 20.8423 20.8313C21.6872 20.3126 22.5027 19.7434 23.3182 19.1742C24.1043 18.6267 24.861 18.0431 25.6398 17.4884C25.7573 17.4091 25.919 17.3659 26.132 17.2722Z" fill="#212529"/>
<path d="M24.0151 29.9019C23.9636 31.4149 23.4714 32.7694 22.5824 33.9653C20.6208 36.595 17.9612 37.9206 14.6258 37.899C12.9286 37.8918 11.3564 37.4956 10.0046 36.4437C9.88702 36.3572 9.78416 36.2564 9.66661 36.1627C9.60049 36.1123 9.52702 36.0619 9.39478 35.9682C9.60783 35.8601 9.74743 35.7953 9.87967 35.7304C11.4225 34.9884 12.7229 33.9941 13.4943 32.4451C13.6045 32.229 13.7147 32.0129 13.7662 31.7823C13.8617 31.3428 14.1262 31.1267 14.5449 30.9826C16.749 30.2333 18.9457 29.4624 21.1498 28.7132C21.2526 28.6771 21.4363 28.6987 21.5024 28.7636C22.149 29.4408 22.9645 29.7434 23.8755 29.8443C23.9196 29.8515 23.9489 29.8731 24.0151 29.9019Z" fill="#212529"/>
<path d="M23.5083 16.9407C22.8765 18.4177 21.6936 19.1597 20.261 19.5848C20.07 19.6424 19.7908 19.5704 19.6071 19.4623C18.4977 18.7995 17.8659 17.8125 17.6528 16.5589C17.6014 16.2419 17.6675 15.9681 17.9614 15.7736C19.012 15.0891 20.2022 14.7361 21.4291 14.311C21.5467 15.6367 22.0904 16.6093 23.5083 16.9407Z" fill="#212529"/>
<path d="M6.42025 31.2925C6.72881 31.732 6.73616 32.1786 6.74351 32.6181C6.75085 33.2521 6.73616 33.8861 6.68473 34.5202C6.61126 35.4135 6.89779 36.098 7.80881 36.523C6.24392 37.6181 5.06842 38.9726 4.41455 40.7594C4.31169 40.0101 4.17945 39.268 4.09863 38.5187C3.90761 36.8184 3.99577 35.1397 4.65699 33.5331C4.95087 32.8271 5.33291 32.1786 5.92066 31.6599C6.06025 31.523 6.23657 31.4222 6.42025 31.2925Z" fill="#212529"/>
<path d="M27.1891 28.3314C26.0723 28.7348 24.985 28.8861 23.8756 28.8069C23.2217 28.7636 22.6854 28.4899 22.2593 27.9927C21.2528 26.8112 20.0699 25.8458 18.5491 25.3991C17.6822 25.1397 16.7638 25.0605 15.8381 24.9596C15.9851 24.9164 16.132 24.8659 16.2789 24.8299C16.4332 24.7867 16.5875 24.7579 16.7418 24.7291C19.3206 24.2535 21.7377 24.7002 23.9491 26.0691C25.0511 26.7391 26.0797 27.5389 27.1891 28.3314Z" fill="#212529"/>
<path d="M29.4604 26.2707C29.1004 25.0315 28.7625 23.7419 28.3657 22.4811C28.0204 21.3932 27.6164 20.3269 27.2417 19.2534C27.0213 18.6122 27.08 17.9854 27.3372 17.3586C27.4621 17.056 27.7045 16.9336 27.9764 17.0849C28.307 17.2722 28.6449 17.4955 28.88 17.7765C29.5412 18.5618 29.8278 19.5128 29.8865 20.5071C29.9894 22.4595 29.8865 24.4047 29.4604 26.2707Z" fill="#212529"/>
<path d="M17.7717 14.7074C17.8599 13.8933 18.0142 13.1008 18.3962 12.3659C18.4623 12.2362 18.6019 12.1282 18.7342 12.0489C19.2117 11.7535 19.6746 11.4365 20.1815 11.206C21.3937 10.6656 22.6207 10.1613 23.6933 9.30396C23.5611 9.65698 23.4509 10.0172 23.2819 10.3558C23.0101 10.9034 22.7235 11.4509 22.4003 11.9697C21.908 12.7622 21.2321 13.3169 20.3138 13.6411C19.4689 13.9365 18.646 14.3328 17.7717 14.7074Z" fill="#212529"/>
<path d="M25.1758 33.4394C25.0362 33.317 24.8893 33.2233 24.7938 33.0936C24.7276 33.0072 24.6982 32.8703 24.7129 32.7622C24.8746 31.8977 25.0656 31.0331 25.2125 30.1613C25.2493 29.9308 25.3227 29.8443 25.5578 29.8011C26.6011 29.621 27.637 29.3905 28.6656 28.8213C27.8648 30.6945 26.8141 32.2651 25.1758 33.4394Z" fill="#212529"/>
<path d="M8.29391 32.0273C9.21961 32.5677 10.1086 33.0936 11.0269 33.6268C10.2702 34.2608 9.46941 34.8083 8.53635 35.1686C8.23513 35.2838 8.05146 35.1686 8.03676 34.8083C8.02207 34.4769 8.05881 34.1383 8.09554 33.8069C8.15431 33.2233 8.22778 32.6469 8.29391 32.0273Z" fill="#212529"/>
<path d="M24.2876 12.582C24.8313 13.4466 25.0296 14.2895 24.5888 15.1901C24.4272 15.5287 24.1774 15.8169 23.766 15.8169C23.3399 15.8169 23.046 15.5575 22.8476 15.1973C22.495 14.5633 22.5831 13.9797 23.1268 13.5114C23.4868 13.1944 23.8835 12.9062 24.2876 12.582Z" fill="#212529"/>
<path d="M25.3319 7.12109C25.4642 8.41792 25.1042 9.52023 24.3401 10.5073C24.6634 9.39775 24.9866 8.28104 25.3319 7.12109Z" fill="#212529"/>
</svg>
