<svg width="51" height="51" viewBox="0 0 51 51" fill="none" xmlns="http://www.w3.org/2000/svg">
<path d="M22.2865 24.2075V38.3852C22.2865 40.5718 21.3675 41.1361 19.7593 41.1361C18.0745 41.1361 16.8492 40.2191 16.0833 39.02L12.101 41.1361C13.2498 43.3227 16.0833 45.6504 20.0656 45.6504C24.4309 45.6504 27.4176 43.6049 27.4176 39.0906V24.2075H22.2865Z" fill="#212529"/>
<path d="M38.2149 24.2075C33.8496 24.2075 31.0927 26.6762 31.0927 29.9209C31.0927 33.4476 33.4667 35.0699 36.913 36.4101L38.1383 36.9038C40.3592 37.7502 41.4314 38.3145 41.4314 39.7958C41.4314 40.9949 40.3592 41.9118 38.368 41.9118C35.994 41.9118 34.8452 40.5011 33.7731 38.9493L29.9439 41.2065C31.399 43.6752 33.9262 45.7207 38.4446 45.7207C43.0396 45.7207 46.4858 43.6047 46.4858 39.7252C46.4858 36.1279 44.1883 34.5056 39.9763 32.9539L38.9041 32.4601C36.7598 31.6137 35.8408 31.12 35.8408 29.7798C35.8408 28.7218 36.7598 27.9459 38.1383 27.9459C39.5168 27.9459 40.4358 28.4396 41.2782 29.7798L45.1073 27.6637C43.4991 25.195 41.2782 24.2075 38.2149 24.2075Z" fill="#212529"/>
<rect x="1.06079" y="1.1875" width="48" height="48" rx="5" stroke="#212529" stroke-width="2"/>
</svg>
