<svg width="52" height="51" viewBox="0 0 52 51" fill="none" xmlns="http://www.w3.org/2000/svg">
<g clip-path="url(#clip0)">
<path d="M20.5624 42.2234C22.4381 41.0072 24.3832 39.8586 26.2588 38.6423C28.2734 37.3586 30.288 36.0748 32.372 34.791C32.372 34.791 32.4415 34.7234 32.5804 34.7234C33.3446 34.7234 34.1782 34.7234 34.9423 34.7234C35.2202 34.7234 35.4981 34.7234 35.7065 34.7234C36.7485 34.7234 37.7905 34.7234 38.8326 34.7234C41.1945 34.7234 43.0701 32.9667 43.2091 30.6694C43.4175 26.6153 43.4869 22.8991 43.4175 19.4532C43.348 17.0883 43.2091 14.9261 43.0701 12.764C42.9312 10.6694 41.2639 9.18289 39.041 9.04775C38.4158 9.04775 37.7905 8.98018 37.2348 8.98018C35.2897 8.91262 33.3446 8.77748 31.33 8.77748C27.4398 8.70991 23.4106 8.70991 19.2425 8.77748C17.5753 8.77748 15.9081 8.91262 14.3103 9.04775L12.8515 9.11532C10.6979 9.25046 9.10017 10.8045 8.89177 12.8991C8.61389 17.0207 8.47496 21.3451 8.61389 26.2099C8.61389 27.764 8.75283 29.2505 8.8223 30.9396C8.96123 32.9667 10.8369 34.7234 12.8515 34.7234C14.3103 34.7234 15.8386 34.7234 17.2974 34.7234C17.8532 34.7234 18.4784 34.7234 19.0341 34.7234V41.1423L19.1036 42.4937C19.1036 42.6964 19.1036 42.8991 19.1036 43.1018C19.5899 42.8991 20.5624 42.291 20.5624 42.2234C20.5624 42.291 20.5624 42.291 20.5624 42.2234ZM19.312 33.4396C19.1731 33.4396 19.0341 33.4396 18.8952 33.4396C18.4089 33.4396 17.8532 33.4396 17.3669 33.4396C15.9081 33.4396 14.4492 33.4396 12.9209 33.4396C11.601 33.4396 10.2811 32.2234 10.2117 30.8721C10.1422 29.2505 10.0033 27.764 10.0033 26.2099C9.86432 21.4126 10.0033 17.0883 10.2811 13.0342C10.4201 11.6153 11.4621 10.6018 12.9209 10.5342L14.3798 10.4667C15.9775 10.3315 17.6448 10.264 19.2425 10.264C23.4106 10.1964 27.4398 10.1964 31.2605 10.264C33.2056 10.264 35.1507 10.3991 37.0959 10.4667C37.7211 10.4667 38.3463 10.5342 38.9715 10.5342C40.4998 10.6018 41.5418 11.6153 41.6808 12.9667C41.8197 15.0613 41.9586 17.2234 42.0281 19.5883C42.0976 23.0342 42.0281 26.6829 41.8197 30.7369C41.7502 32.3586 40.4303 33.5072 38.8326 33.5072C37.7905 33.5072 36.7485 33.5072 35.7065 33.5072C34.6645 33.5072 33.6224 33.5072 32.5804 33.5072C32.372 33.5072 31.9552 33.5748 31.6079 33.7775C29.5933 35.0613 27.5787 36.3451 25.4947 37.6288C23.8274 38.7099 22.1602 39.7234 20.4235 40.8045V34.6559C20.493 33.7099 20.1456 33.4396 19.312 33.4396Z" fill="#212529"/>
<path d="M51.2673 16.21L51.1978 14.7235C51.1978 13.7775 51.1284 12.5613 50.92 11.4127C50.0169 5.80456 45.5015 1.75051 39.6661 1.3451C35.2896 1.1424 31.7468 0.939697 28.4123 0.939697C24.9389 0.939697 21.4655 1.00726 18.131 1.07483L16.1164 1.1424C14.5881 1.20997 12.9903 1.20997 11.3926 1.48024C5.76565 2.15591 1.31968 6.81808 0.972341 12.291C0.763936 15.6019 0.694468 18.9127 0.625 22.2235C0.625 24.9262 0.694468 27.6289 0.833405 30.264V30.3316C0.902873 31.6829 1.04181 32.6965 1.31968 33.6424C2.70905 38.9127 7.50235 42.4938 13.1987 42.5613C14.6576 42.5613 16.1164 42.5613 17.5752 42.5613H19.173L19.1035 41.21H17.5752C16.1164 41.21 14.6576 41.21 13.1987 41.21C8.19703 41.1424 3.95947 37.9667 2.63958 33.3046C2.43117 32.4938 2.29224 31.5478 2.22277 30.3316V30.264C2.08383 27.5613 2.01436 24.8586 2.01436 22.2235C2.08383 18.9127 2.1533 15.6019 2.3617 12.3586C2.70905 7.56132 6.59926 3.4397 11.5315 2.76402C13.0598 2.56132 14.6576 2.49375 16.1164 2.49375L18.131 2.42618C21.5349 2.35862 25.0083 2.29105 28.4123 2.29105C31.7468 2.29105 35.2896 2.42618 39.5272 2.69645C44.7373 3.03429 48.7665 6.61537 49.6001 11.6154C49.739 12.5613 49.8085 13.5748 49.8085 14.7235L49.878 16.21C49.9474 18.6424 50.0169 21.1424 50.0169 23.5748C50.0169 26.2775 49.8779 28.9127 49.739 31.4127C49.3917 36.0748 45.7099 40.0613 40.986 40.8721C40.2913 41.0073 39.5272 41.0748 38.6936 41.0748C37.5126 41.0748 36.4011 41.0748 35.2202 41.0748C34.3171 41.0748 33.414 41.0748 32.5109 41.0748C32.1636 41.0748 31.7467 41.21 31.3994 41.4127C28.4817 43.237 25.5641 45.1289 22.6464 46.9532L20.4929 48.3046V47.0883C20.4929 45.4667 20.4929 43.8451 20.4929 42.1559C20.4929 42.1559 19.5203 42.764 19.1035 43.0343C19.1035 42.8316 19.1035 42.6289 19.1035 42.4262C19.1035 43.9802 19.1035 45.5343 19.1035 47.0883V50.737L23.4106 48.0343C26.3282 46.21 29.2459 44.3181 32.1636 42.4938C32.233 42.4262 32.4414 42.3586 32.5109 42.3586C33.414 42.3586 34.3171 42.3586 35.2202 42.3586C36.4011 42.3586 37.5126 42.3586 38.6936 42.3586C39.5967 42.3586 40.4303 42.291 41.1944 42.1559C46.5435 41.21 50.7116 36.6829 51.1284 31.4802C51.3368 28.9802 51.4062 26.2775 51.4062 23.5073C51.4062 21.21 51.3368 18.6424 51.2673 16.21Z" fill="#212529"/>
</g>
<defs>
<clipPath id="clip0">
<rect width="50.7812" height="50" fill="white" transform="translate(0.625 0.939697)"/>
</clipPath>
</defs>
</svg>
