<svg width="25" height="25" viewBox="0 0 25 25" fill="none" xmlns="http://www.w3.org/2000/svg">
<path d="M12.4703 2.55212C6.95034 2.55212 2.47034 7.03212 2.47034 12.5521C2.47034 18.0721 6.95034 22.5521 12.4703 22.5521C17.9903 22.5521 22.4703 18.0721 22.4703 12.5521C22.4703 7.03212 17.9903 2.55212 12.4703 2.55212ZM16.0803 8.89212C17.1503 8.89212 18.0103 9.75212 18.0103 10.8221C18.0103 11.8921 17.1503 12.7521 16.0803 12.7521C15.0103 12.7521 14.1503 11.8921 14.1503 10.8221C14.1403 9.75212 15.0103 8.89212 16.0803 8.89212ZM10.0803 7.31212C11.3803 7.31212 12.4403 8.37212 12.4403 9.67212C12.4403 10.9721 11.3803 12.0321 10.0803 12.0321C8.78034 12.0321 7.72034 10.9721 7.72034 9.67212C7.72034 8.36212 8.77034 7.31212 10.0803 7.31212ZM10.0803 16.4421V20.1921C7.68034 19.4421 5.78034 17.5921 4.94034 15.2321C5.99034 14.1121 8.61034 13.5421 10.0803 13.5421C10.6103 13.5421 11.2803 13.6221 11.9803 13.7621C10.3403 14.6321 10.0803 15.7821 10.0803 16.4421ZM12.4703 20.5521C12.2003 20.5521 11.9403 20.5421 11.6803 20.5121V16.4421C11.6803 15.0221 14.6203 14.3121 16.0803 14.3121C17.1503 14.3121 19.0003 14.7021 19.9203 15.4621C18.7503 18.4321 15.8603 20.5521 12.4703 20.5521Z" fill="white"/>
</svg>
