<svg width="52" height="51" viewBox="0 0 52 51" fill="none" xmlns="http://www.w3.org/2000/svg">
<path d="M0.265869 0.1875L44.3632 46.4347C44.3632 46.4347 45.874 47.4921 47.0223 46.2551C48.1706 45.0381 47.2842 43.8011 47.2842 43.8011L0.265869 0.1875Z" fill="#212529"/>
<path d="M14.226 4.55664L47.8076 40.4092C47.8076 40.4092 49.3185 41.4666 50.4668 40.2296C51.615 39.0126 50.7287 37.7756 50.7287 37.7756L14.226 4.55664Z" fill="#212529"/>
<path d="M4.41547 13.9138L37.9971 49.7663C37.9971 49.7663 39.508 50.8238 40.6562 49.5868C41.8045 48.3698 40.9181 47.1328 40.9181 47.1328L4.41547 13.9138Z" fill="#212529"/>
<path d="M26.0307 8.32739L49.4794 33.3663C49.4794 33.3663 50.527 34.1045 51.3328 33.2466C52.1385 32.3887 51.5141 31.5308 51.5141 31.5308L26.0307 8.32739Z" fill="#212529"/>
<path d="M7.65765 24.7473L31.1064 49.7862C31.1064 49.7862 32.1539 50.5244 32.9597 49.6665C33.7655 48.8086 33.141 47.9507 33.141 47.9507L7.65765 24.7473Z" fill="#212529"/>
<path d="M38.0776 13.7341L48.7141 25.1263C48.7141 25.1263 49.2379 25.4655 49.6206 25.0665C50.0034 24.6675 49.7214 24.2684 49.7214 24.2684L38.0776 13.7341Z" fill="#212529"/>
<path d="M13.5209 36.2991L24.1575 47.6913C24.1575 47.6913 24.6812 48.0305 25.064 47.6314C25.4669 47.2324 25.1647 46.8334 25.1647 46.8334L13.5209 36.2991Z" fill="#212529"/>
</svg>
