<svg width="25" height="51" viewBox="0 0 25 51" fill="none" xmlns="http://www.w3.org/2000/svg">
<path d="M10.5361 18.9603L10.5361 18.9607C10.5377 19.3082 10.5391 19.6417 10.5404 19.9593C10.547 21.582 10.5519 22.7894 10.5828 23.3314C10.7921 30.2425 10.1544 37.0805 9.52527 40.8524C6.30228 37.7371 1.22609 31.3446 1.66355 22.264L1.6636 22.2629C2.18229 11.2521 7.60585 4.88128 10.306 2.34915C10.482 7.12046 10.5185 14.8411 10.5361 18.9603Z" stroke="#212529" stroke-width="2"/>
<path d="M12.5251 43.0706C12.3772 43.744 12.2037 44.3919 12.0252 44.8051L11.765 45.3203C12.1884 47.3966 12.1272 49.7178 12.1272 49.7178L13.5301 50.1872C13.5301 50.1872 13.2445 46.4835 13.6424 44.6928C13.6628 44.6112 13.6781 44.5449 13.6985 44.4633C13.3108 44.1062 12.8006 43.5399 12.5251 43.0706Z" fill="#212529"/>
<path d="M15.4657 41.0849L15.4207 41.1263C15.3088 40.8759 15.1931 40.5746 15.0825 40.2292C14.7634 39.2324 14.5079 37.9339 14.4854 36.5477C14.7928 33.4406 15.1226 28.6108 14.9639 23.1763L14.9636 23.168L14.9632 23.1597C14.9444 22.7498 14.9401 21.6999 14.9344 20.2821C14.9327 19.8713 14.9309 19.4296 14.9286 18.9637L14.9286 18.9458L14.9286 18.9409C14.8942 11.9194 14.8341 7.04172 14.739 3.71257C15.4224 4.42786 16.2347 5.31624 17.0926 6.44219C19.0666 9.03302 21.3097 12.9187 22.6557 18.8096C24.7059 30.857 18.6263 38.1783 15.4657 41.0849Z" stroke="#212529" stroke-width="2"/>
</svg>
