<svg width="51" height="51" viewBox="0 0 51 51" fill="none" xmlns="http://www.w3.org/2000/svg">
<path d="M7.96625 32.357V18.9741H11.209V20.1733H9.48906V31.1818H11.209V32.381L7.96625 32.357Z" fill="#212529"/>
<path d="M18.9706 25.5327C18.9706 27.973 17.4956 29.364 15.495 29.364C13.4944 29.364 12.1627 27.7991 12.1627 25.6586C12.1627 23.4221 13.5601 21.8452 15.6025 21.8452C17.6449 21.8452 18.9706 23.4881 18.9706 25.5327ZM13.5601 25.6406C13.5601 27.1216 14.3006 28.2968 15.5726 28.2968C16.8446 28.2968 17.5732 27.0976 17.5732 25.5866C17.5732 24.2136 16.8984 22.9185 15.5726 22.9185C14.2469 22.9185 13.5482 24.1716 13.5482 25.6706L13.5601 25.6406Z" fill="#212529"/>
<path d="M20.0952 22.0972C20.7303 21.9871 21.3737 21.9329 22.0182 21.9353C22.7421 21.8643 23.4698 22.0259 24.0964 22.397C24.3313 22.5359 24.5249 22.7353 24.6572 22.9746C24.7895 23.2139 24.8557 23.4844 24.8488 23.758C24.8402 24.1136 24.7202 24.4574 24.5057 24.7405C24.2913 25.0236 23.9934 25.2316 23.6544 25.3349C24.0675 25.4193 24.4389 25.6445 24.7055 25.9723C24.9722 26.3002 25.1177 26.7105 25.1176 27.1337C25.1221 27.4204 25.0615 27.7044 24.9404 27.9641C24.8194 28.2239 24.641 28.4525 24.4188 28.6327C23.9053 29.0884 23.0513 29.3102 21.7315 29.3102C21.1886 29.3129 20.646 29.2809 20.1072 29.2143L20.0952 22.0972ZM21.409 24.9692H22.0838C22.9975 24.9692 23.5111 24.5375 23.5111 23.9199C23.5111 23.3023 22.9975 22.9246 22.1555 22.9246C21.9035 22.916 21.6513 22.934 21.4031 22.9786L21.409 24.9692ZM21.409 28.3149C21.6411 28.339 21.8744 28.349 22.1077 28.3449C22.9557 28.3449 23.7082 28.0211 23.7082 27.1457C23.7082 26.2703 22.9796 25.9465 22.0659 25.9465H21.409V28.3149Z" fill="#212529"/>
<path d="M27.7273 22.001H29.0471V26.7318C29.0471 28.7404 28.0797 29.412 26.6584 29.412C26.2783 29.4088 25.9012 29.344 25.5416 29.2201L25.7029 28.1528C25.9679 28.2359 26.2434 28.2804 26.521 28.2847C27.2735 28.2847 27.7154 27.937 27.7154 26.6778L27.7273 22.001Z" fill="#212529"/>
<path d="M32.8032 25.9407V26.8577H30.0561V25.9407H32.8032Z" fill="#212529"/>
<path d="M39.2169 29.0582C38.6232 29.2959 37.9864 29.4062 37.3477 29.382C35.0485 29.382 33.6511 27.937 33.6511 25.7245C33.6239 25.209 33.7057 24.6936 33.8912 24.2121C34.0766 23.7307 34.3615 23.2941 34.727 22.931C35.0925 22.568 35.5305 22.2868 36.012 22.1058C36.4935 21.9249 37.0078 21.8483 37.5209 21.8812C38.1345 21.8557 38.7462 21.9662 39.3125 22.205L39.0198 23.2602C38.5707 23.0683 38.0866 22.9723 37.5985 22.9784C36.1235 22.9784 35.0605 23.9078 35.0605 25.6586C35.0605 27.2535 35.998 28.2848 37.5866 28.2848C38.0794 28.2919 38.5687 28.2002 39.0258 28.015L39.2169 29.0582Z" fill="#212529"/>
<path d="M43.3605 18.9373V32.356H40.1178V31.1568H41.8377V20.1364H40.1178V18.9373H43.3605Z" fill="#212529"/>
<circle cx="25.1956" cy="25.1875" r="24" stroke="#212529" stroke-width="2"/>
</svg>
