<svg width="49" height="51" viewBox="0 0 49 51" fill="none" xmlns="http://www.w3.org/2000/svg">
<path d="M26.3953 45.7021H17.9208C17.137 45.7021 16.5982 46.4296 16.8431 47.157C17.5779 49.3394 19.6843 50.9398 22.1825 50.9398C24.6808 50.9398 26.7382 49.3394 27.522 47.157C27.7179 46.4296 27.1791 45.7021 26.3953 45.7021Z" fill="#212529"/>
<path d="M36.8139 34.5478C36.8139 34.7735 36.9155 34.9871 37.0905 35.1296L42.801 39.7769C43.166 40.2827 43.1526 40.8442 42.8893 41.3043C42.6097 41.7927 42.0287 42.1878 41.2379 42.1878H34.6738H9.44615H3.4699C2.69655 42.1878 2.12394 41.8099 1.84107 41.3391C1.5737 40.8941 1.54722 40.3476 1.883 39.8448L6.92917 35.1759C7.18107 35.0549 7.35498 34.7974 7.35498 34.4993V21.0658C7.35498 14.1998 12.1982 8.38243 18.6801 6.85894C19.019 6.77929 19.2585 6.47694 19.2585 6.12883V4.52845C19.2585 2.96138 20.5321 1.6897 22.1335 1.6897C23.7348 1.6897 25.0084 2.96138 25.0084 4.52845V6.12883C25.0084 6.47869 25.2503 6.78207 25.5913 6.85999C25.9016 6.93087 26.2123 7.01405 26.5237 7.10964C25.4481 8.95111 24.8614 11.0796 24.8614 13.3548C24.8614 20.0732 30.1435 25.5335 36.8139 25.9165V34.5478Z" stroke="#212529" stroke-width="1.5" stroke-linejoin="round"/>
<path d="M37.5636 23.8302C43.4073 23.8302 48.1445 19.1402 48.1445 13.3549C48.1445 7.56958 43.4073 2.87964 37.5636 2.87964C31.7199 2.87964 26.9827 7.56958 26.9827 13.3549C26.9827 19.1402 31.7199 23.8302 37.5636 23.8302Z" fill="#212529"/>
<path d="M38.7872 18.0589H37.2197V11.8029C37.2197 11.0754 37.2197 10.445 37.2687 10.0085C37.1707 10.1055 37.0238 10.251 36.8768 10.348C36.7298 10.445 36.24 10.8814 35.3582 11.5604L34.5745 10.5905L37.4646 8.35962H38.7872V18.0589Z" fill="white"/>
</svg>
