<svg width="54" height="51" viewBox="0 0 54 51" fill="none" xmlns="http://www.w3.org/2000/svg">
<path fill-rule="evenodd" clip-rule="evenodd" d="M37.8082 0.191304C36.9261 0.160106 36.0028 0.32187 35.0771 0.63756C33.2256 1.26894 31.2855 2.49935 29.2945 4.20296C28.5142 4.87061 27.7268 5.63379 26.9368 6.44354C26.1642 5.65435 25.393 4.91165 24.6299 4.25875C22.6405 2.5565 20.7056 1.32562 18.8584 0.695667C17.0111 0.0657139 15.1731 0.046194 13.6636 0.962956C12.154 1.87972 11.2513 3.5626 10.8463 5.56033C10.4413 7.55805 10.4859 9.93709 10.8927 12.6005C11.034 13.5256 11.2355 14.4961 11.465 15.4849C10.6024 15.7599 9.76476 16.049 8.98799 16.3681C6.64377 17.3312 4.70406 18.4834 3.29157 19.8545C1.87908 21.2256 0.967041 22.8896 0.967041 24.7168C0.967041 26.544 1.87908 28.2057 3.29157 29.5768C4.70406 30.9479 6.64377 32.1024 8.98799 33.0655C9.81858 33.4068 10.7178 33.714 11.6462 34.0045C11.3123 35.3169 11.0417 36.5905 10.8573 37.7977C10.4502 40.4632 10.4073 42.8426 10.8131 44.8448C11.219 46.8471 12.1222 48.5395 13.6393 49.4608C15.1563 50.3821 17.0025 50.3595 18.854 49.7281C20.7054 49.0967 22.6433 47.8686 24.6344 46.165C25.4075 45.5035 26.1895 44.7489 26.9721 43.9477C27.7589 44.7537 28.5441 45.5119 29.321 46.1766C31.3104 47.8789 33.2475 49.1074 35.0947 49.7374C36.942 50.3673 38.78 50.3869 40.2896 49.4701C41.7991 48.5533 42.6997 46.8705 43.1046 44.8727C43.5096 42.875 43.465 40.4983 43.0582 37.8349C42.8734 36.6244 42.6026 35.3466 42.2672 34.0301C43.2262 33.7325 44.1539 33.417 45.0093 33.0655C47.3536 32.1024 49.2933 30.9479 50.7058 29.5768C52.1182 28.2057 53.0303 26.544 53.0303 24.7168C53.0303 22.8896 52.1182 21.2256 50.7058 19.8545C49.2933 18.4834 47.3536 17.3312 45.0093 16.3681C44.2214 16.0444 43.3709 15.7515 42.4948 15.4733C42.7261 14.4785 42.9316 13.501 43.0737 12.5703C43.4808 9.90473 43.5238 7.52308 43.1179 5.52081C42.712 3.51855 41.8066 1.82847 40.2896 0.907174C39.5311 0.446527 38.6902 0.222502 37.8082 0.191304ZM37.7043 2.61317C38.2578 2.6291 38.73 2.76765 39.1339 3.01295C39.9418 3.50354 40.5389 4.45837 40.8574 6.02983C41.176 7.60128 41.165 9.72448 40.7889 12.1868C40.6602 13.0298 40.4733 13.9233 40.2608 14.8387C37.9467 14.2529 35.4109 13.8182 32.7083 13.5627C31.3516 11.5857 29.9575 9.78451 28.552 8.18673C29.2955 7.42338 30.0341 6.70944 30.755 6.09258C32.5942 4.51887 34.3355 3.44805 35.7886 2.95252C36.5151 2.70475 37.1508 2.59725 37.7043 2.61317ZM16.2356 2.62015C16.7923 2.6038 17.4293 2.71101 18.1579 2.95949C19.6152 3.45645 21.3595 4.5268 23.2003 6.10188C23.9068 6.70636 24.6289 7.40671 25.3569 8.15187C23.941 9.76273 22.5354 11.5795 21.1697 13.5743C18.4785 13.8345 15.953 14.2716 13.6503 14.8597C13.4395 13.9493 13.2525 13.0604 13.1244 12.2216C12.748 9.7572 12.7386 7.63371 13.0581 6.05772C13.3776 4.48173 13.9796 3.5197 14.7949 3.02457C15.2025 2.777 15.6788 2.6365 16.2356 2.62015ZM26.9721 9.8997C27.8937 10.9546 28.8155 12.1091 29.7298 13.3512C28.8315 13.3118 27.9222 13.2885 26.9987 13.2885C26.0568 13.2885 25.1302 13.3126 24.2145 13.3535C25.129 12.1104 26.0503 10.9554 26.9721 9.8997ZM26.9987 15.6917C28.5372 15.6917 30.0367 15.7582 31.4953 15.8707C32.4989 17.387 33.4796 18.9956 34.4142 20.6982C35.2353 22.1942 35.9784 23.6879 36.6547 25.1631C35.9713 26.6578 35.2157 28.1717 34.3832 29.6884C33.6504 31.0235 32.8852 32.2915 32.1073 33.5141C30.4598 33.659 28.7526 33.7396 26.9987 33.7396C25.2025 33.7396 23.457 33.6542 21.7729 33.5025C21.008 32.2975 20.2556 31.0486 19.5345 29.7349C18.704 28.2216 17.9521 26.7105 17.2697 25.2189C17.9549 23.7188 18.7102 22.1992 19.5456 20.6773C20.4752 18.9836 21.4531 17.3843 22.4513 15.8754C23.9255 15.7604 25.4425 15.6917 26.9987 15.6917ZM34.4075 16.1682C36.2725 16.413 38.0236 16.7528 39.6532 17.1607C39.1697 18.8281 38.574 20.5697 37.8524 22.367C37.3838 21.4169 36.8985 20.4635 36.3741 19.5082C35.7387 18.3504 35.0768 17.2467 34.4075 16.1682ZM19.4683 16.1868C18.8131 17.2451 18.1685 18.3274 17.5459 19.4617C17.0148 20.4293 16.5194 21.3955 16.0455 22.3577C15.3301 20.5712 14.7381 18.8395 14.258 17.1816C15.8754 16.773 17.6163 16.4344 19.4683 16.1868ZM41.8916 17.7929C42.6935 18.0481 43.4681 18.3145 44.1785 18.6064C46.3395 19.4942 48.0489 20.5455 49.1568 21.6209C50.2647 22.6963 50.7455 23.7219 50.7455 24.7168C50.7455 25.7117 50.2647 26.7373 49.1568 27.8127C48.0489 28.8881 46.3395 29.9394 44.1785 30.8273C43.389 31.1516 42.5216 31.4458 41.6198 31.7244C40.9765 29.6315 40.1554 27.4479 39.1781 25.2189C40.3017 22.6597 41.2094 20.1644 41.8916 17.7929ZM12.0682 17.8045C12.7426 20.1524 13.6386 22.6228 14.7463 25.1561C13.7626 27.3982 12.9375 29.5941 12.2914 31.6989C11.4213 31.4275 10.5833 31.1414 9.81881 30.8273C7.6578 29.9394 5.94841 28.8881 4.84052 27.8127C3.73262 26.7373 3.2518 25.7117 3.2518 24.7168C3.2518 23.7219 3.73262 22.6963 4.84052 21.6209C5.94841 20.5455 7.6578 19.4942 9.81881 18.6064C10.5183 18.319 11.2799 18.0564 12.0682 17.8045ZM26.9987 19.2502C23.888 19.2502 21.342 21.9282 21.342 25.2003C21.342 28.4723 23.888 31.1503 26.9987 31.1503C30.1093 31.1503 32.6553 28.4723 32.6553 25.2003C32.6553 21.9282 30.1093 19.2502 26.9987 19.2502ZM16.0721 28.0149C16.548 28.982 17.043 29.9523 17.5768 30.9249C17.9945 31.6858 18.421 32.4265 18.854 33.1538C17.3346 32.9322 15.8904 32.6517 14.5342 32.3194C14.9655 30.93 15.4814 29.4876 16.0721 28.0149ZM37.8811 28.0149C38.4741 29.4911 38.9903 30.9358 39.4234 32.3287C38.0628 32.6606 36.6142 32.9402 35.0903 33.1608C35.529 32.4246 35.9622 31.6746 36.3852 30.904C36.9151 29.9386 37.4081 28.9749 37.8811 28.0149ZM13.8823 34.6297C15.9298 35.14 18.1491 35.5319 20.5024 35.7872C22.0733 38.1772 23.7099 40.3248 25.3569 42.2022C24.6204 42.9575 23.8904 43.6664 23.176 44.2777C21.3368 45.8514 19.5933 46.9199 18.1403 47.4155C16.6872 47.911 15.6027 47.8456 14.7949 47.355C13.9871 46.8644 13.3922 45.9096 13.0736 44.3381C12.755 42.7667 12.7638 40.6458 13.1399 38.1835C13.3105 37.0665 13.5654 35.8704 13.8823 34.6297ZM40.0774 34.639C40.397 35.8873 40.6527 37.0878 40.8243 38.2114C41.2007 40.6758 41.2101 42.7993 40.8906 44.3753C40.5711 45.9513 39.9735 46.9157 39.1582 47.4108C38.3429 47.9059 37.248 47.9705 35.7908 47.4736C34.3335 46.9766 32.5892 45.9062 30.7484 44.3312C30.0289 43.7155 29.2938 43.0008 28.552 42.2393C30.2101 40.3546 31.8583 38.1961 33.4397 35.7919C35.7989 35.5382 38.0244 35.1486 40.0774 34.639ZM23.4544 36.0313C24.616 36.0979 25.7929 36.1428 26.9987 36.1428C28.1645 36.1428 29.3033 36.1006 30.428 36.0382C29.2782 37.67 28.1063 39.1534 26.939 40.4892C25.7724 39.1505 24.6027 37.6645 23.4544 36.0313Z" fill="#212529"/>
</svg>
