<svg width="391" height="393" viewBox="0 0 391 393" fill="none" xmlns="http://www.w3.org/2000/svg">
<path d="M253.622 106.643H96.1013V126.775H253.622V106.643Z" stroke="#212529" stroke-miterlimit="10"/>
<path d="M253.622 362.155H96.1013V391.578H253.622V362.155Z" stroke="#212529" stroke-miterlimit="10"/>
<path d="M96.1013 126.775V371.446" stroke="#212529" stroke-miterlimit="10"/>
<path d="M134.71 150.003H117.722V194.911" stroke="#212529" stroke-miterlimit="10" stroke-linecap="round"/>
<path d="M102.279 111.289L112.317 121.355" stroke="#212529" stroke-miterlimit="10" stroke-linecap="round"/>
<path d="M112.317 111.289L102.279 121.355" stroke="#212529" stroke-miterlimit="10" stroke-linecap="round"/>
<path d="M329.602 6.29697L339.64 16.3626" stroke="#212529" stroke-miterlimit="10" stroke-linecap="round"/>
<path d="M339.64 6.29697L329.602 16.3626" stroke="#212529" stroke-miterlimit="10" stroke-linecap="round"/>
<path d="M174.862 385.383C179.126 385.383 182.583 381.917 182.583 377.64C182.583 373.364 179.126 369.898 174.862 369.898C170.597 369.898 167.14 373.364 167.14 377.64C167.14 381.917 170.597 385.383 174.862 385.383Z" fill="#212529"/>
<path d="M191.077 239.819V266.919H345.508V101.223" stroke="#212529" stroke-miterlimit="10" stroke-linecap="round"/>
<path d="M19.9672 240.593H0.508789V1.34155H346.281V21.8941" stroke="#212529" stroke-miterlimit="10" stroke-linecap="round"/>
<path d="M119.577 319.725C120.686 319.725 121.585 318.823 121.585 317.711C121.585 316.6 120.686 315.698 119.577 315.698C118.468 315.698 117.569 316.6 117.569 317.711C117.569 318.823 118.468 319.725 119.577 319.725Z" fill="#212529"/>
<path d="M133.474 319.725C134.583 319.725 135.482 318.823 135.482 317.711C135.482 316.6 134.583 315.698 133.474 315.698C132.366 315.698 131.467 316.6 131.467 317.711C131.467 318.823 132.366 319.725 133.474 319.725Z" fill="#212529"/>
<path d="M147.372 319.725C148.481 319.725 149.38 318.823 149.38 317.711C149.38 316.6 148.481 315.698 147.372 315.698C146.264 315.698 145.365 316.6 145.365 317.711C145.365 318.823 146.264 319.725 147.372 319.725Z" fill="#212529"/>
<path d="M119.575 330.564C120.684 330.564 121.583 329.663 121.583 328.551C121.583 327.439 120.684 326.538 119.575 326.538C118.467 326.538 117.568 327.439 117.568 328.551C117.568 329.663 118.467 330.564 119.575 330.564Z" fill="#212529"/>
<path d="M133.474 330.564C134.583 330.564 135.482 329.663 135.482 328.551C135.482 327.439 134.583 326.538 133.474 326.538C132.366 326.538 131.467 327.439 131.467 328.551C131.467 329.663 132.366 330.564 133.474 330.564Z" fill="#212529"/>
<path d="M147.372 330.564C148.481 330.564 149.38 329.663 149.38 328.551C149.38 327.439 148.481 326.538 147.372 326.538C146.264 326.538 145.365 327.439 145.365 328.551C145.365 329.663 146.264 330.564 147.372 330.564Z" fill="#212529"/>
<path d="M119.575 341.404C120.684 341.404 121.583 340.503 121.583 339.391C121.583 338.279 120.684 337.378 119.575 337.378C118.467 337.378 117.568 338.279 117.568 339.391C117.568 340.503 118.467 341.404 119.575 341.404Z" fill="#212529"/>
<path d="M133.474 341.404C134.583 341.404 135.482 340.503 135.482 339.391C135.482 338.279 134.583 337.378 133.474 337.378C132.366 337.378 131.467 338.279 131.467 339.391C131.467 340.503 132.366 341.404 133.474 341.404Z" fill="#212529"/>
<path d="M147.372 341.404C148.481 341.404 149.38 340.503 149.38 339.391C149.38 338.279 148.481 337.378 147.372 337.378C146.264 337.378 145.365 338.279 145.365 339.391C145.365 340.503 146.264 341.404 147.372 341.404Z" fill="#212529"/>
<path d="M21.512 187.324C22.6208 187.324 23.5196 186.423 23.5196 185.311C23.5196 184.199 22.6208 183.298 21.512 183.298C20.4032 183.298 19.5044 184.199 19.5044 185.311C19.5044 186.423 20.4032 187.324 21.512 187.324Z" fill="#212529"/>
<path d="M35.4107 187.323C36.5195 187.323 37.4183 186.422 37.4183 185.31C37.4183 184.198 36.5195 183.297 35.4107 183.297C34.3019 183.297 33.4031 184.198 33.4031 185.31C33.4031 186.422 34.3019 187.323 35.4107 187.323Z" fill="#212529"/>
<path d="M49.3091 187.323C50.4179 187.323 51.3167 186.422 51.3167 185.31C51.3167 184.198 50.4179 183.297 49.3091 183.297C48.2003 183.297 47.3015 184.198 47.3015 185.31C47.3015 186.422 48.2003 187.323 49.3091 187.323Z" fill="#212529"/>
<path d="M21.511 198.163C22.6198 198.163 23.5186 197.262 23.5186 196.15C23.5186 195.038 22.6198 194.137 21.511 194.137C20.4023 194.137 19.5034 195.038 19.5034 196.15C19.5034 197.262 20.4023 198.163 21.511 198.163Z" fill="#212529"/>
<path d="M35.4107 198.163C36.5195 198.163 37.4183 197.262 37.4183 196.15C37.4183 195.038 36.5195 194.137 35.4107 194.137C34.3019 194.137 33.4031 195.038 33.4031 196.15C33.4031 197.262 34.3019 198.163 35.4107 198.163Z" fill="#212529"/>
<path d="M49.3091 198.163C50.4179 198.163 51.3167 197.262 51.3167 196.15C51.3167 195.038 50.4179 194.137 49.3091 194.137C48.2003 194.137 47.3015 195.038 47.3015 196.15C47.3015 197.262 48.2003 198.163 49.3091 198.163Z" fill="#212529"/>
<path d="M21.511 209.003C22.6198 209.003 23.5186 208.101 23.5186 206.99C23.5186 205.878 22.6198 204.977 21.511 204.977C20.4023 204.977 19.5034 205.878 19.5034 206.99C19.5034 208.101 20.4023 209.003 21.511 209.003Z" fill="#212529"/>
<path d="M35.4107 209.003C36.5195 209.003 37.4183 208.101 37.4183 206.99C37.4183 205.878 36.5195 204.977 35.4107 204.977C34.3019 204.977 33.4031 205.878 33.4031 206.99C33.4031 208.101 34.3019 209.003 35.4107 209.003Z" fill="#212529"/>
<path d="M49.3091 209.003C50.4179 209.003 51.3167 208.101 51.3167 206.99C51.3167 205.878 50.4179 204.977 49.3091 204.977C48.2003 204.977 47.3015 205.878 47.3015 206.99C47.3015 208.101 48.2003 209.003 49.3091 209.003Z" fill="#212529"/>
<path d="M253.622 362.155V267.693" stroke="#212529" stroke-miterlimit="10" stroke-linecap="round"/>
<path d="M190.928 242.156C193.091 242.156 194.845 240.397 194.845 238.227C194.845 236.058 193.091 234.299 190.928 234.299C188.764 234.299 187.01 236.058 187.01 238.227C187.01 240.397 188.764 242.156 190.928 242.156Z" fill="#212529"/>
<path d="M253.573 270.662C255.737 270.662 257.491 268.903 257.491 266.734C257.491 264.564 255.737 262.805 253.573 262.805C251.409 262.805 249.655 264.564 249.655 266.734C249.655 268.903 251.409 270.662 253.573 270.662Z" fill="#212529"/>
<path d="M19.9845 244.432C22.1483 244.432 23.9023 242.674 23.9023 240.504C23.9023 238.334 22.1483 236.575 19.9845 236.575C17.8207 236.575 16.0667 238.334 16.0667 240.504C16.0667 242.674 17.8207 244.432 19.9845 244.432Z" fill="#212529"/>
<path d="M369.306 40.7465H323.255C321.046 40.7465 319.255 42.5374 319.255 44.7465V77.0089C319.255 79.2181 321.046 81.0089 323.255 81.0089H369.306C371.516 81.0089 373.306 79.2181 373.306 77.0089V44.7465C373.306 42.5374 371.516 40.7465 369.306 40.7465Z" fill="#93CB40"/>
<path d="M148.006 222.011H44.1978C41.9886 222.011 40.1978 223.802 40.1978 226.011V253.627C40.1978 255.837 41.9886 257.627 44.1978 257.627H148.006C150.215 257.627 152.006 255.837 152.006 253.627V226.011C152.006 223.802 150.215 222.011 148.006 222.011Z" fill="#93CB40"/>
<path d="M337.787 55.4579L331.61 61.6521L337.787 67.8463" stroke="white" stroke-miterlimit="10" stroke-linecap="round" stroke-linejoin="round"/>
<path d="M210.072 143.034L203.895 149.229L210.072 155.423" stroke="#212529" stroke-miterlimit="10" stroke-linecap="round" stroke-linejoin="round"/>
<path d="M354.774 55.4579L360.951 61.6521L354.774 67.8463" stroke="white" stroke-miterlimit="10" stroke-linecap="round" stroke-linejoin="round"/>
<path d="M77.5698 233.16V246.323" stroke="white" stroke-miterlimit="10" stroke-linecap="round"/>
<path d="M89.9241 233.16V246.323" stroke="white" stroke-miterlimit="10" stroke-linecap="round"/>
<path d="M59.0379 246.478C62.4495 246.478 65.2151 243.497 65.2151 239.819C65.2151 236.142 62.4495 233.16 59.0379 233.16C55.6263 233.16 52.8606 236.142 52.8606 239.819C52.8606 243.497 55.6263 246.478 59.0379 246.478Z" stroke="white" stroke-miterlimit="10" stroke-linecap="round"/>
<path d="M126.989 233.16V246.323" stroke="white" stroke-miterlimit="10" stroke-linecap="round"/>
<path d="M139.343 233.16V246.323" stroke="white" stroke-miterlimit="10" stroke-linecap="round"/>
<path d="M108.456 246.478C111.868 246.478 114.634 243.497 114.634 239.819C114.634 236.142 111.868 233.16 108.456 233.16C105.045 233.16 102.279 236.142 102.279 239.819C102.279 243.497 105.045 246.478 108.456 246.478Z" stroke="white" stroke-miterlimit="10" stroke-linecap="round"/>
<path d="M191.077 203.273H289.141" stroke="#212529" stroke-miterlimit="10" stroke-linecap="round"/>
<path d="M191.077 179.271H289.141" stroke="#212529" stroke-miterlimit="10" stroke-linecap="round"/>
<path d="M233.082 155.423H303.04" stroke="#212529" stroke-miterlimit="10" stroke-linecap="round"/>
<path d="M231.383 143.034L219.028 155.423" stroke="#212529" stroke-miterlimit="10" stroke-linecap="round"/>
<path d="M114.941 46.0948L108.764 52.289L114.941 58.4832" stroke="#212529" stroke-miterlimit="10" stroke-linecap="round" stroke-linejoin="round"/>
<path d="M95.9475 82.331H194.012" stroke="#212529" stroke-miterlimit="10" stroke-linecap="round"/>
<path d="M138.106 58.4833H207.91" stroke="#212529" stroke-miterlimit="10" stroke-linecap="round"/>
<path d="M136.408 46.0948L124.054 58.4832" stroke="#212529" stroke-miterlimit="10" stroke-linecap="round"/>
<path d="M48.5365 51.6697H19.5034V110.05" stroke="#212529" stroke-miterlimit="10" stroke-linecap="round"/>
<path d="M389.919 285.246H269.153V351.06H389.919V285.246Z" stroke="#212529" stroke-miterlimit="10" stroke-linecap="round"/>
<path d="M293.862 291.596H276.103V309.404H293.862V291.596Z" stroke="#212529" stroke-miterlimit="10" stroke-linecap="round"/>
<path d="M311.622 291.596H293.862V309.404H311.622V291.596Z" stroke="#212529" stroke-miterlimit="10" stroke-linecap="round"/>
<path d="M329.536 291.596H311.777V309.404H329.536V291.596Z" stroke="#212529" stroke-miterlimit="10" stroke-linecap="round"/>
<path d="M347.296 291.596H329.536V309.404H347.296V291.596Z" stroke="#212529" stroke-miterlimit="10" stroke-linecap="round"/>
<path d="M365.056 291.596H347.297V309.404H365.056V291.596Z" stroke="#212529" stroke-miterlimit="10" stroke-linecap="round"/>
<path d="M382.815 291.596H365.055V309.404H382.815V291.596Z" stroke="#212529" stroke-miterlimit="10" stroke-linecap="round"/>
<path d="M293.862 309.404H276.103V327.212H293.862V309.404Z" stroke="#212529" stroke-miterlimit="10" stroke-linecap="round"/>
<path d="M293.862 327.127H276.103V344.935H293.862V327.127Z" fill="#93CB40" stroke="#212529" stroke-miterlimit="10" stroke-linecap="round"/>
<path d="M311.622 309.404H293.862V327.212H311.622V309.404Z" stroke="#212529" stroke-miterlimit="10" stroke-linecap="round"/>
<path d="M311.622 327.127H293.862V344.935H311.622V327.127Z" stroke="#212529" stroke-miterlimit="10" stroke-linecap="round"/>
<path d="M329.536 309.404H311.777V327.212H329.536V309.404Z" stroke="#212529" stroke-miterlimit="10" stroke-linecap="round"/>
<path d="M329.536 327.127H311.777V344.935H329.536V327.127Z" stroke="#212529" stroke-miterlimit="10" stroke-linecap="round"/>
<path d="M365.056 309.404H347.297V327.212H365.056V309.404Z" stroke="#212529" stroke-miterlimit="10" stroke-linecap="round"/>
<path d="M365.056 327.127H347.297V344.935H365.056V327.127Z" stroke="#212529" stroke-miterlimit="10" stroke-linecap="round"/>
<path d="M347.339 309.404H329.58V327.212H347.339V309.404Z" fill="#93CB40" stroke="#212529" stroke-miterlimit="10" stroke-linecap="round"/>
<path d="M347.339 327.127H329.58V344.935H347.339V327.127Z" stroke="#212529" stroke-miterlimit="10" stroke-linecap="round"/>
<path d="M382.815 309.404H365.055V327.212H382.815V309.404Z" stroke="#212529" stroke-miterlimit="10" stroke-linecap="round"/>
<path d="M382.815 327.127H365.055V344.935H382.815V327.127Z" stroke="#212529" stroke-miterlimit="10" stroke-linecap="round"/>
<path d="M0.508301 21.7825H346.281" stroke="#212529" stroke-miterlimit="10" stroke-linecap="round"/>
<path d="M321.726 16.3625H309.526" stroke="#212529" stroke-miterlimit="10" stroke-linecap="round"/>
</svg>
