<svg width="356" height="375" viewBox="0 0 356 375" fill="none" xmlns="http://www.w3.org/2000/svg">
<path d="M335.804 25.395H354.633V265.04H335.804V25.395Z" stroke="#212529"/>
<path d="M210.826 92.5136V145.126V197.739L335.748 255.957V145.126V34.4768L210.826 92.5136Z" stroke="#212529" stroke-miterlimit="10"/>
<path d="M210.826 87.6326H86.2644V202.441H210.826V87.6326Z" stroke="#212529" stroke-miterlimit="10"/>
<path d="M86.2642 105.893H63.5511C55.0787 105.893 48.2288 112.764 48.2288 121.261V168.992C48.2288 177.49 55.0787 184.36 63.5511 184.36H86.2642V105.893V105.893Z" stroke="#212529" stroke-miterlimit="10"/>
<path d="M172.249 202.621V293.383H143.948L115.467 264.816V202.621" stroke="#212529" stroke-miterlimit="10"/>
<path d="M105.913 240.228H98.8822C97.6203 240.228 96.719 239.324 96.719 238.058V225.04C96.719 223.775 97.6203 222.871 98.8822 222.871H105.913V240.228Z" fill="#93CB40"/>
<path d="M115.467 217.809H105.913V245.652H115.467V217.809Z" stroke="#212529" stroke-miterlimit="10"/>
<path d="M86.2643 124.901H62.2888" stroke="#212529" stroke-miterlimit="10" stroke-linecap="round"/>
<path d="M86.2643 145.127H62.2888" stroke="#212529" stroke-miterlimit="10" stroke-linecap="round"/>
<path d="M86.2643 165.354H62.2888" stroke="#212529" stroke-miterlimit="10" stroke-linecap="round"/>
<path d="M222.723 258.489C231.086 258.489 237.865 251.689 237.865 243.301C237.865 234.913 231.086 228.114 222.723 228.114C214.36 228.114 207.581 234.913 207.581 243.301C207.581 251.689 214.36 258.489 222.723 258.489Z" stroke="#212529" stroke-miterlimit="10"/>
<path d="M243.634 263.008L234.26 253.606" stroke="#212529" stroke-miterlimit="10" stroke-linecap="round"/>
<path d="M236.423 292.84L243.814 290.851L245.797 297.903" stroke="#212529" stroke-miterlimit="10" stroke-linecap="round" stroke-linejoin="round"/>
<path d="M64.4521 373.658L105.372 346.718L143.407 358.29L187.752 315.078L225.787 321.949L243.633 291.032" stroke="#212529" stroke-miterlimit="10" stroke-linecap="round"/>
<path d="M225.608 327.011C228.594 327.011 231.016 324.583 231.016 321.587C231.016 318.592 228.594 316.163 225.608 316.163C222.621 316.163 220.2 318.592 220.2 321.587C220.2 324.583 222.621 327.011 225.608 327.011Z" fill="white" stroke="#212529" stroke-miterlimit="10" stroke-linecap="round"/>
<path d="M187.752 320.322C190.739 320.322 193.161 317.893 193.161 314.898C193.161 311.902 190.739 309.474 187.752 309.474C184.766 309.474 182.344 311.902 182.344 314.898C182.344 317.893 184.766 320.322 187.752 320.322Z" fill="white" stroke="#212529" stroke-miterlimit="10" stroke-linecap="round"/>
<path d="M143.407 362.81C146.394 362.81 148.815 360.381 148.815 357.386C148.815 354.39 146.394 351.962 143.407 351.962C140.42 351.962 137.999 354.39 137.999 357.386C137.999 360.381 140.42 362.81 143.407 362.81Z" fill="white" stroke="#212529" stroke-miterlimit="10" stroke-linecap="round"/>
<path d="M105.192 352.143C108.179 352.143 110.6 349.714 110.6 346.719C110.6 343.723 108.179 341.295 105.192 341.295C102.205 341.295 99.7839 343.723 99.7839 346.719C99.7839 349.714 102.205 352.143 105.192 352.143Z" fill="white" stroke="#212529" stroke-miterlimit="10" stroke-linecap="round"/>
<path d="M29.3013 245.652C44.9316 245.652 57.6025 232.943 57.6025 217.266C57.6025 201.589 44.9316 188.881 29.3013 188.881C13.6709 188.881 1 201.589 1 217.266C1 232.943 13.6709 245.652 29.3013 245.652Z" stroke="#212529" stroke-miterlimit="10" stroke-linecap="round"/>
<path d="M23.7133 207.684C22.812 207.322 21.9106 207.864 21.9106 208.768V217.085V225.402C21.9106 226.306 22.9922 227.03 23.7133 226.487L40.4782 218.17C41.3795 217.628 41.3795 216.362 40.4782 215.82L23.7133 207.684Z" fill="#93CB40"/>
<path d="M60.3212 20.8987H4.98047V32.6507H60.3212V20.8987Z" fill="#93CB40"/>
<path d="M60.862 20.8987H4.98047V54.5275H60.862V20.8987Z" stroke="#212529" stroke-miterlimit="10"/>
<path d="M41.9354 20.8988H23.5481V16.3787C23.5481 14.5707 24.9902 13.1243 26.7929 13.1243H38.8708C40.6735 13.1243 42.1156 14.5707 42.1156 16.3787V20.8988H41.9354Z" stroke="#212529" stroke-miterlimit="10"/>
<path d="M4.98047 32.6509H60.6817" stroke="#212529" stroke-miterlimit="10"/>
<path d="M32.7415 37.7131V29.2153" stroke="#212529" stroke-miterlimit="10"/>
<path d="M60.3212 20.8987H4.98047V32.6507H60.3212V20.8987Z" stroke="#212529" stroke-miterlimit="10"/>
<path d="M118.171 32.8499H108.437V80.7618H118.171V32.8499Z" stroke="#212529" stroke-miterlimit="10"/>
<path d="M134.034 20.0132H124.3V80.762H134.034V20.0132Z" stroke="#212529" stroke-miterlimit="10"/>
<path d="M149.897 26.5222H140.162V80.5814H149.897V26.5222Z" stroke="#212529" stroke-miterlimit="10"/>
<path d="M165.76 0.486816H156.026V80.5812H165.76V0.486816Z" fill="#93CB40"/>
<path d="M181.804 15.4934H172.069V80.5814H181.804V15.4934Z" stroke="#212529" stroke-miterlimit="10"/>
</svg>
