<svg width="404" height="374" viewBox="0 0 404 374" fill="none" xmlns="http://www.w3.org/2000/svg">
<path d="M0.500977 298.405H381.806C393.406 298.405 402.737 307.736 402.737 319.336C402.737 330.937 393.406 340.268 381.806 340.268H347.256H296.693" stroke="white" stroke-miterlimit="10" stroke-linecap="round" stroke-linejoin="round"/>
<path d="M95.8266 276.212H78.9302V284.913H95.8266V276.212Z" stroke="white" stroke-miterlimit="10" stroke-linecap="round" stroke-linejoin="round"/>
<path d="M123.441 298.405H51.1899V288.822L78.9304 284.913H95.8268L123.441 288.822V298.405Z" stroke="white" stroke-miterlimit="10" stroke-linecap="round" stroke-linejoin="round"/>
<path d="M88.3867 263.099L46.0195 207.87L111.84 171.051" stroke="white" stroke-miterlimit="10" stroke-linecap="round" stroke-linejoin="round"/>
<path d="M46.0201 216.445C50.7556 216.445 54.5944 212.606 54.5944 207.87C54.5944 203.135 50.7556 199.296 46.0201 199.296C41.2847 199.296 37.4458 203.135 37.4458 207.87C37.4458 212.606 41.2847 216.445 46.0201 216.445Z" fill="#191F2A" stroke="white" stroke-miterlimit="10" stroke-linecap="round" stroke-linejoin="round"/>
<path d="M87.5045 271.673C92.24 271.673 96.0788 267.834 96.0788 263.099C96.0788 258.364 92.24 254.525 87.5045 254.525C82.769 254.525 78.9302 258.364 78.9302 263.099C78.9302 267.834 82.769 271.673 87.5045 271.673Z" fill="#191F2A" stroke="white" stroke-miterlimit="10" stroke-linecap="round" stroke-linejoin="round"/>
<path d="M111.634 170.227L102.801 161.394L125.097 139.098L133.93 147.931L111.634 170.227Z" stroke="white"/>
<path d="M134.159 148.48L111.714 170.925L124.828 207.366L170.6 161.594L134.159 148.48Z" stroke="white" stroke-miterlimit="10" stroke-linecap="round" stroke-linejoin="round"/>
<path d="M147.777 184.543L153.199 179.121C156.225 182.148 156.225 187.065 153.199 190.091C150.173 193.118 145.255 193.118 142.355 190.091L147.777 184.543Z" stroke="white" stroke-miterlimit="10" stroke-linecap="round" stroke-linejoin="round"/>
<path d="M102.762 152.515L115.749 139.528" stroke="white" stroke-miterlimit="10" stroke-linecap="round" stroke-linejoin="round"/>
<path d="M100.997 145.832L109.067 137.762" stroke="white" stroke-miterlimit="10" stroke-linecap="round" stroke-linejoin="round"/>
<path d="M382.689 97.4128H193.55C190.145 97.4128 187.497 100.187 187.497 103.465V252.255C187.497 255.659 190.271 258.307 193.55 258.307H382.689" stroke="white" stroke-miterlimit="10" stroke-linecap="round" stroke-linejoin="round"/>
<path d="M187.496 229.558H363.648" stroke="white" stroke-miterlimit="10" stroke-linecap="round" stroke-linejoin="round"/>
<path d="M340.195 258.433H295.305C295.305 270.79 290.388 282.643 281.687 291.344L274.878 298.153H360.622L353.813 291.344C345.112 282.643 340.195 270.79 340.195 258.433Z" stroke="white" stroke-miterlimit="10" stroke-linecap="round" stroke-linejoin="round"/>
<path d="M231.755 183.787H343.599" stroke="white" stroke-miterlimit="10" stroke-linecap="round" stroke-linejoin="round"/>
<path d="M230.872 195.135H318.759" stroke="white" stroke-miterlimit="10" stroke-linecap="round" stroke-linejoin="round"/>
<path d="M205.275 189.461L211.454 195.135L220.407 183.786" stroke="#93CB40" stroke-miterlimit="10" stroke-linecap="round" stroke-linejoin="round"/>
<path d="M229.99 143.311H341.078" stroke="white" stroke-miterlimit="10" stroke-linecap="round" stroke-linejoin="round"/>
<path d="M229.107 154.659H316.237" stroke="white" stroke-miterlimit="10" stroke-linecap="round" stroke-linejoin="round"/>
<path d="M205.275 148.986L211.454 154.66L220.407 143.312" stroke="#93CB40" stroke-miterlimit="10" stroke-linecap="round" stroke-linejoin="round"/>
<path d="M194.314 75.1963V77.9327H202.515V75.1963" stroke="white" stroke-miterlimit="10" stroke-linecap="round" stroke-linejoin="round"/>
<path d="M191.854 70.8181H204.975" stroke="white" stroke-miterlimit="10" stroke-linecap="round" stroke-linejoin="round"/>
<path d="M194.587 67.5345L191.99 54.2629" stroke="white" stroke-miterlimit="10" stroke-linecap="round" stroke-linejoin="round"/>
<path d="M202.104 67.5345L204.838 54.2629" stroke="white" stroke-miterlimit="10" stroke-linecap="round" stroke-linejoin="round"/>
<path d="M191.99 53.4419C192.674 53.4419 192.674 56.1783 193.22 56.1783C193.904 56.1783 193.904 53.4419 194.45 53.4419C195.134 53.4419 195.134 56.1783 195.681 56.1783C196.364 56.1783 196.364 53.4419 196.911 53.4419C197.594 53.4419 197.594 56.1783 198.141 56.1783C198.824 56.1783 198.824 53.4419 199.371 53.4419C200.054 53.4419 200.054 56.1783 200.601 56.1783C201.284 56.1783 201.284 53.4419 201.831 53.4419C202.515 53.4419 202.515 56.1783 203.061 56.1783C203.608 56.1783 203.745 53.4419 204.291 53.4419" stroke="white" stroke-miterlimit="10" stroke-linecap="round" stroke-linejoin="round"/>
<path d="M198.414 68.2187C206.34 68.2187 212.766 61.7867 212.766 53.8525C212.766 45.9183 206.34 39.4863 198.414 39.4863C190.488 39.4863 184.063 45.9183 184.063 53.8525C184.063 61.7867 190.488 68.2187 198.414 68.2187Z" stroke="white" stroke-miterlimit="10" stroke-linecap="round" stroke-linejoin="round"/>
<path d="M191.854 66.5767V75.1964H204.975V66.5767" stroke="white" stroke-miterlimit="10" stroke-linecap="round" stroke-linejoin="round"/>
<path d="M268.098 73.6912V77.9326H280.536V73.6912" stroke="white" stroke-miterlimit="10" stroke-linecap="round" stroke-linejoin="round"/>
<path d="M264.408 67.1238H284.226" stroke="white" stroke-miterlimit="10" stroke-linecap="round" stroke-linejoin="round"/>
<path d="M268.645 62.1981L264.545 42.3591" stroke="white" stroke-miterlimit="10" stroke-linecap="round" stroke-linejoin="round"/>
<path d="M279.989 62.1981L283.953 42.3591" stroke="white" stroke-miterlimit="10" stroke-linecap="round" stroke-linejoin="round"/>
<path d="M264.545 41.675C265.502 41.675 265.502 44.4115 266.458 44.4115C267.415 44.4115 267.415 41.675 268.372 41.675C269.329 41.675 269.329 44.4115 270.285 44.4115C271.242 44.4115 271.242 41.675 272.199 41.675C273.156 41.675 273.156 44.4115 274.112 44.4115C275.069 44.4115 275.069 41.675 276.026 41.675C276.983 41.675 276.983 44.4115 277.939 44.4115C278.896 44.4115 278.896 41.675 279.853 41.675C280.81 41.675 280.81 44.4115 281.766 44.4115C282.723 44.4115 282.723 41.675 283.68 41.675" stroke="white" stroke-miterlimit="10" stroke-linecap="round" stroke-linejoin="round"/>
<path d="M274.249 63.156C286.175 63.156 295.844 53.4774 295.844 41.5383C295.844 29.5992 286.175 19.9207 274.249 19.9207C262.322 19.9207 252.653 29.5992 252.653 41.5383C252.653 53.4774 262.322 63.156 274.249 63.156Z" stroke="white" stroke-miterlimit="10" stroke-linecap="round" stroke-linejoin="round"/>
<path d="M264.408 60.8298V73.691H284.226V60.8298" stroke="white" stroke-miterlimit="10" stroke-linecap="round" stroke-linejoin="round"/>
<path d="M372.744 66.1663H351.285V73.2809H372.744V66.1663Z" fill="#93CB40"/>
<path d="M355.249 73.2808V77.9327H368.78V73.2808" stroke="white" stroke-miterlimit="10" stroke-linecap="round" stroke-linejoin="round"/>
<path d="M351.285 66.1663H372.744" stroke="white" stroke-miterlimit="10" stroke-linecap="round" stroke-linejoin="round"/>
<path d="M355.796 60.8301L351.422 39.2124" stroke="white" stroke-miterlimit="10" stroke-linecap="round" stroke-linejoin="round"/>
<path d="M368.233 60.8301L372.607 39.2124" stroke="white" stroke-miterlimit="10" stroke-linecap="round" stroke-linejoin="round"/>
<path d="M351.422 38.6653C352.515 38.6653 352.515 41.4017 353.472 41.4017C354.565 41.4017 354.565 38.6653 355.522 38.6653C356.616 38.6653 356.616 41.4017 357.572 41.4017C358.666 41.4017 358.666 38.6653 359.623 38.6653C360.716 38.6653 360.716 41.4017 361.673 41.4017C362.766 41.4017 362.766 38.6653 363.723 38.6653C364.816 38.6653 364.816 41.4017 365.773 41.4017C366.867 41.4017 366.867 38.6653 367.823 38.6653C368.917 38.6653 368.917 41.4017 370.01 41.4017C371.104 41.4017 371.104 38.6653 372.197 38.6653" stroke="white" stroke-miterlimit="10" stroke-linecap="round" stroke-linejoin="round"/>
<path d="M361.946 61.9247C374.93 61.9247 385.455 51.3886 385.455 38.3916C385.455 25.3946 374.93 14.8584 361.946 14.8584C348.963 14.8584 338.438 25.3946 338.438 38.3916C338.438 51.3886 348.963 61.9247 361.946 61.9247Z" stroke="white" stroke-miterlimit="10" stroke-linecap="round" stroke-linejoin="round"/>
<path d="M351.285 59.3252V73.2809H372.744V59.462" stroke="white" stroke-miterlimit="10" stroke-linecap="round" stroke-linejoin="round"/>
<path d="M362.629 0.355469H361.263V11.4379H362.629V0.355469Z" fill="#93CB40"/>
<path d="M335.644 10.9444L334.677 11.9119L342.506 19.7483L343.472 18.7808L335.644 10.9444Z" fill="#93CB40"/>
<path d="M381.43 56.7803L380.464 57.7478L388.292 65.5842L389.259 64.6168L381.43 56.7803Z" fill="#93CB40"/>
<path d="M324.1 37.5639L324.1 38.9321L335.171 38.9321L335.171 37.5639L324.1 37.5639Z" fill="#93CB40"/>
<path d="M388.854 37.6691L388.854 39.0374L399.925 39.0374L399.925 37.6691L388.854 37.6691Z" fill="#93CB40"/>
<path d="M334.662 64.6995L335.628 65.667L343.457 57.8306L342.49 56.8631L334.662 64.6995Z" fill="#93CB40"/>
<path d="M380.452 18.8636L381.418 19.8311L389.247 11.9946L388.28 11.0272L380.452 18.8636Z" fill="#93CB40"/>
<path d="M238.601 68.334H229.616V69.8057H238.601V68.334Z" fill="white"/>
<path d="M234.931 73.502V64.5083H233.46V73.502H234.931Z" fill="white"/>
<path d="M310.929 69.0737L319.49 69.0737" stroke="white" stroke-miterlimit="10" stroke-linecap="round" stroke-linejoin="round"/>
<path d="M317.03 66.2004L319.9 69.0737L317.166 71.8101" stroke="white" stroke-miterlimit="10" stroke-linecap="round" stroke-linejoin="round"/>
<path d="M296.491 307.45H175.917V373.159H296.491V307.45Z" stroke="white" stroke-miterlimit="10" stroke-linecap="round"/>
<path d="M200.587 313.789H182.855V331.569H200.587V313.789Z" stroke="white" stroke-miterlimit="10" stroke-linecap="round"/>
<path d="M218.318 313.789H200.587V331.569H218.318V313.789Z" stroke="white" stroke-miterlimit="10" stroke-linecap="round"/>
<path d="M236.205 313.789H218.473V331.569H236.205V313.789Z" stroke="white" stroke-miterlimit="10" stroke-linecap="round"/>
<path d="M253.936 313.789H236.205V331.569H253.936V313.789Z" stroke="white" stroke-miterlimit="10" stroke-linecap="round"/>
<path d="M271.668 313.789H253.937V331.569H271.668V313.789Z" stroke="white" stroke-miterlimit="10" stroke-linecap="round"/>
<path d="M289.398 313.789H271.667V331.569H289.398V313.789Z" stroke="white" stroke-miterlimit="10" stroke-linecap="round"/>
<path d="M200.587 331.569H182.855V349.349H200.587V331.569Z" stroke="white" stroke-miterlimit="10" stroke-linecap="round"/>
<path d="M200.587 349.264H182.855V367.044H200.587V349.264Z" fill="#93CB40" stroke="white" stroke-miterlimit="10" stroke-linecap="round"/>
<path d="M218.318 331.569H200.587V349.349H218.318V331.569Z" stroke="white" stroke-miterlimit="10" stroke-linecap="round"/>
<path d="M218.318 349.264H200.587V367.044H218.318V349.264Z" stroke="white" stroke-miterlimit="10" stroke-linecap="round"/>
<path d="M236.205 331.569H218.473V349.349H236.205V331.569Z" stroke="white" stroke-miterlimit="10" stroke-linecap="round"/>
<path d="M236.205 349.264H218.473V367.044H236.205V349.264Z" stroke="white" stroke-miterlimit="10" stroke-linecap="round"/>
<path d="M271.668 331.569H253.937V349.349H271.668V331.569Z" stroke="white" stroke-miterlimit="10" stroke-linecap="round"/>
<path d="M271.668 349.264H253.937V367.044H271.668V349.264Z" stroke="white" stroke-miterlimit="10" stroke-linecap="round"/>
<path d="M253.979 331.569H236.248V349.349H253.979V331.569Z" fill="#93CB40" stroke="white" stroke-miterlimit="10" stroke-linecap="round"/>
<path d="M253.979 349.264H236.248V367.044H253.979V349.264Z" stroke="white" stroke-miterlimit="10" stroke-linecap="round"/>
<path d="M289.398 331.569H271.667V349.349H289.398V331.569Z" stroke="white" stroke-miterlimit="10" stroke-linecap="round"/>
<path d="M289.398 349.264H271.667V367.044H289.398V349.264Z" stroke="white" stroke-miterlimit="10" stroke-linecap="round"/>
</svg>
