<svg width="389" height="376" viewBox="0 0 389 376" fill="none" xmlns="http://www.w3.org/2000/svg">
<path d="M245.949 45.1028C247.411 45.1028 248.597 43.9173 248.597 42.4548C248.597 40.9924 247.411 39.8068 245.949 39.8068C244.487 39.8068 243.301 40.9924 243.301 42.4548C243.301 43.9173 244.487 45.1028 245.949 45.1028Z" fill="#212529"/>
<path d="M264.281 45.1029C265.744 45.1029 266.929 43.9173 266.929 42.4549C266.929 40.9924 265.744 39.8069 264.281 39.8069C262.819 39.8069 261.633 40.9924 261.633 42.4549C261.633 43.9173 262.819 45.1029 264.281 45.1029Z" fill="#212529"/>
<path d="M282.613 45.1029C284.075 45.1029 285.261 43.9173 285.261 42.4549C285.261 40.9924 284.075 39.8069 282.613 39.8069C281.15 39.8069 279.965 40.9924 279.965 42.4549C279.965 43.9173 281.15 45.1029 282.613 45.1029Z" fill="#212529"/>
<path d="M245.948 59.3612C247.411 59.3612 248.596 58.1757 248.596 56.7132C248.596 55.2508 247.411 54.0652 245.948 54.0652C244.486 54.0652 243.3 55.2508 243.3 56.7132C243.3 58.1757 244.486 59.3612 245.948 59.3612Z" fill="#212529"/>
<path d="M264.281 59.3612C265.744 59.3612 266.929 58.1757 266.929 56.7132C266.929 55.2508 265.744 54.0652 264.281 54.0652C262.819 54.0652 261.633 55.2508 261.633 56.7132C261.633 58.1757 262.819 59.3612 264.281 59.3612Z" fill="#212529"/>
<path d="M282.613 59.3612C284.075 59.3612 285.261 58.1757 285.261 56.7132C285.261 55.2508 284.075 54.0652 282.613 54.0652C281.15 54.0652 279.965 55.2508 279.965 56.7132C279.965 58.1757 281.15 59.3612 282.613 59.3612Z" fill="#212529"/>
<path d="M245.948 73.6196C247.411 73.6196 248.596 72.434 248.596 70.9716C248.596 69.5092 247.411 68.3236 245.948 68.3236C244.486 68.3236 243.3 69.5092 243.3 70.9716C243.3 72.434 244.486 73.6196 245.948 73.6196Z" fill="#212529"/>
<path d="M264.281 73.6196C265.744 73.6196 266.929 72.434 266.929 70.9716C266.929 69.5092 265.744 68.3236 264.281 68.3236C262.819 68.3236 261.633 69.5092 261.633 70.9716C261.633 72.434 262.819 73.6196 264.281 73.6196Z" fill="#212529"/>
<path d="M282.613 73.6196C284.075 73.6196 285.261 72.434 285.261 70.9716C285.261 69.5092 284.075 68.3236 282.613 68.3236C281.15 68.3236 279.965 69.5092 279.965 70.9716C279.965 72.434 281.15 73.6196 282.613 73.6196Z" fill="#212529"/>
<path d="M145.529 235.758L137.382 243.906L145.529 252.053" stroke="#212529" stroke-miterlimit="10" stroke-linecap="round" stroke-linejoin="round"/>
<path d="M120.679 314.79H250.023" stroke="#212529" stroke-miterlimit="10" stroke-linecap="round"/>
<path d="M120.679 283.422H250.023" stroke="#212529" stroke-miterlimit="10" stroke-linecap="round"/>
<path d="M176.083 252.053H268.355" stroke="#212529" stroke-miterlimit="10" stroke-linecap="round"/>
<path d="M173.842 235.758L157.547 252.053" stroke="#212529" stroke-miterlimit="10" stroke-linecap="round"/>
<path d="M298.297 0.698181H90.5322V27.178H298.297V0.698181Z" stroke="#212529" stroke-miterlimit="10"/>
<path d="M298.297 336.789H90.5322V375.49H298.297V336.789Z" stroke="#212529" stroke-miterlimit="10"/>
<path d="M90.5322 290.144V374.268" stroke="#212529" stroke-miterlimit="10"/>
<path d="M98.6804 6.80896L111.92 20.0489" stroke="#212529" stroke-miterlimit="10" stroke-linecap="round"/>
<path d="M111.92 6.80896L98.6804 20.0489" stroke="#212529" stroke-miterlimit="10" stroke-linecap="round"/>
<path d="M194.415 367.343C200.04 367.343 204.599 362.783 204.599 357.158C204.599 351.533 200.04 346.973 194.415 346.973C188.79 346.973 184.23 351.533 184.23 357.158C184.23 362.783 188.79 367.343 194.415 367.343Z" fill="#212529"/>
<path d="M298.298 367.342V257.146" stroke="#212529" stroke-miterlimit="10" stroke-linecap="round"/>
<path d="M90.5322 27.1781V47.1398" stroke="#212529" stroke-miterlimit="10"/>
<path d="M298.298 82.3784V27.1781" stroke="#212529" stroke-miterlimit="10" stroke-linecap="round"/>
<path d="M90.5324 110.761H0.908203V200.385H90.5324V110.761Z" stroke="#212529" stroke-miterlimit="10"/>
<path d="M189.73 110.761H100.105V200.385H189.73V110.761Z" stroke="#212529" stroke-miterlimit="10"/>
<path d="M288.724 110.761H199.1V200.385H288.724V110.761Z" stroke="#212529" stroke-miterlimit="10"/>
<path d="M387.922 110.761H298.298V200.385H387.922V110.761Z" stroke="#212529" stroke-miterlimit="10"/>
<path fill-rule="evenodd" clip-rule="evenodd" d="M45.7204 133.982C49.3868 129.297 54.4791 129.093 54.4791 129.093C54.4791 129.093 55.2939 133.574 51.6274 137.852C47.7573 142.537 43.4798 141.722 43.4798 141.722C43.4798 141.722 42.4613 138.259 45.7204 133.982Z" fill="#93CB40"/>
<path fill-rule="evenodd" clip-rule="evenodd" d="M43.6834 145.185C45.5166 145.185 48.9793 142.537 53.4605 142.537C61.2008 142.537 64.2562 148.036 64.2562 148.036C64.2562 148.036 58.3491 151.092 58.3491 158.425C58.3491 166.776 65.682 169.628 65.682 169.628C65.682 169.628 60.5897 184.293 53.4605 184.293C50.2015 184.293 47.7572 182.053 44.2944 182.053C40.8317 182.053 37.3689 184.293 35.1283 184.293C28.8139 184.293 20.6663 170.442 20.6663 159.239C20.6663 148.24 27.5918 142.537 33.9062 142.537C38.3874 142.74 41.6465 145.185 43.6834 145.185Z" fill="#93CB40"/>
<path d="M151.232 133.37L153.88 129.704C153.88 129.704 153.88 129.5 153.677 129.297C153.473 129.093 153.269 129.093 153.269 129.297L150.621 132.963C148.788 132.352 146.751 131.741 144.103 131.741C141.455 131.741 139.215 132.148 137.381 132.759L134.733 129.093C134.733 129.093 134.53 129.093 134.326 129.093C134.122 129.297 134.122 129.297 134.122 129.5L136.567 133.167C129.234 136.426 129.03 144.37 129.03 144.37H158.769C158.769 144.573 158.565 136.629 151.232 133.37ZM137.381 139.889C136.363 139.889 135.548 139.074 135.548 138.055C135.548 137.037 136.363 136.222 137.381 136.222C138.4 136.222 139.215 137.037 139.215 138.055C139.215 139.074 138.4 139.889 137.381 139.889ZM150.418 139.889C149.399 139.889 148.584 139.074 148.584 138.055C148.584 137.037 149.399 136.222 150.418 136.222C151.436 136.222 152.251 137.037 152.251 138.055C152.251 139.074 151.436 139.889 150.418 139.889ZM163.657 145.184C161.824 145.184 160.398 146.61 160.398 148.444V162.702C160.398 164.535 161.824 165.961 163.657 165.961C165.491 165.961 166.917 164.535 166.917 162.702V148.444C166.917 146.61 165.491 145.184 163.657 145.184ZM124.141 145.184C122.308 145.184 120.882 146.61 120.882 148.444V162.702C120.882 164.535 122.308 165.961 124.141 165.961C125.975 165.961 127.4 164.535 127.4 162.702V148.444C127.4 146.61 125.975 145.184 124.141 145.184ZM129.03 158.628V171.461C129.03 172.479 129.845 173.294 130.863 173.294H134.733V181.238C134.733 183.071 136.159 184.497 137.992 184.497C139.826 184.497 141.251 183.071 141.251 181.238V173.294H147.159V181.238C147.159 183.071 148.584 184.497 150.418 184.497C152.251 184.497 153.677 183.071 153.677 181.238V173.294H157.547C158.565 173.294 159.38 172.479 159.38 171.461V158.628V146.407H129.03V158.628Z" fill="#93CB40"/>
<path d="M263.059 147.629C262.448 147.425 261.837 147.222 261.226 147.018C261.429 146.61 261.429 146.203 261.429 145.796C262.855 138.87 261.837 133.167 258.781 131.334C255.726 129.5 250.634 131.334 245.542 135.815C245.134 136.222 244.523 136.63 244.116 137.241C243.708 136.833 243.505 136.63 243.097 136.426C237.801 131.741 232.302 129.704 229.043 131.537C225.987 133.371 224.969 138.667 226.395 145.388C226.598 145.999 226.598 146.611 226.802 147.425C225.987 147.629 225.376 147.833 224.561 148.036C218.247 150.277 214.173 153.74 214.173 157.202C214.173 160.869 218.451 164.535 224.969 166.776C225.58 166.98 225.987 167.183 226.598 167.183C226.395 167.794 226.191 168.609 226.191 169.22C224.969 175.738 225.987 181.034 229.043 182.664C232.302 184.497 237.598 182.664 242.69 177.979C243.097 177.572 243.505 177.164 243.912 176.757C244.523 177.164 244.93 177.775 245.542 178.183C250.634 182.46 255.522 184.293 258.578 182.46C261.837 180.627 262.855 175.127 261.429 168.202C261.226 167.591 261.226 167.183 261.022 166.572C261.429 166.369 261.837 166.369 262.041 166.165C268.762 163.924 273.244 160.258 273.244 156.591C273.651 153.129 269.577 149.666 263.059 147.629ZM247.171 137.444C251.652 133.574 255.726 132.148 257.559 133.167C259.596 134.389 260.411 138.87 258.985 144.981C258.985 145.388 258.781 145.796 258.781 146.203C256.337 145.592 253.689 145.185 250.838 144.981C249.208 142.74 247.578 140.5 245.745 138.667C246.153 138.463 246.764 137.852 247.171 137.444ZM231.894 159.85C232.505 160.869 232.913 161.887 233.524 162.906C234.135 163.924 234.746 164.943 235.357 165.961C233.32 165.757 231.487 165.35 229.857 165.146C230.468 163.313 231.079 161.684 231.894 159.85ZM231.894 153.943C231.079 152.11 230.468 150.481 230.061 148.851C231.691 148.444 233.524 148.24 235.357 147.833C234.746 148.851 234.135 149.87 233.524 150.888C232.913 151.906 232.302 152.925 231.894 153.943ZM233.116 156.795C233.931 155.166 234.746 153.536 235.561 152.11C236.375 150.481 237.394 149.055 238.412 147.629C240.246 147.425 242.079 147.425 243.912 147.425C245.745 147.425 247.578 147.425 249.412 147.629C250.43 149.055 251.449 150.684 252.263 152.11C253.078 153.74 254.097 155.166 254.911 156.795C254.097 158.425 253.282 160.054 252.263 161.684C251.449 163.313 250.43 164.739 249.412 166.369C247.578 166.572 245.745 166.572 243.912 166.572C242.079 166.572 240.246 166.572 238.616 166.369C237.598 164.943 236.579 163.313 235.764 161.684C234.746 160.054 233.931 158.425 233.116 156.795ZM254.504 162.906C255.115 161.887 255.726 160.869 256.134 159.85C256.948 161.684 257.559 163.313 258.17 165.146C256.541 165.554 254.504 165.757 252.671 166.165C253.282 164.943 253.893 163.924 254.504 162.906ZM256.134 153.943C255.522 152.925 255.115 151.906 254.504 150.888C253.893 149.87 253.282 148.851 252.671 147.833C254.504 148.036 256.337 148.444 258.17 148.851C257.559 150.481 256.948 152.11 256.134 153.943ZM243.912 140.703C245.134 141.926 246.153 143.351 247.375 144.981C245.134 144.777 242.69 144.777 240.449 144.981C241.671 143.351 242.894 141.926 243.912 140.703ZM230.265 133.371C232.302 132.148 236.579 133.778 241.264 138.055C241.468 138.259 241.875 138.667 242.079 138.87C240.449 140.703 238.616 142.74 236.987 145.185C234.135 145.388 231.487 145.796 229.043 146.407C228.839 145.796 228.839 145.185 228.635 144.574C227.82 138.667 228.431 134.389 230.265 133.371ZM227.413 164.535C227.006 164.332 226.395 164.332 225.987 164.128C223.136 163.109 220.691 161.887 219.062 160.462C217.636 159.239 216.821 158.017 216.821 156.999C216.821 154.758 220.08 152.11 225.376 150.277C225.987 150.073 226.802 149.87 227.413 149.666C228.228 152.11 229.043 154.554 230.265 157.202C229.246 159.443 228.228 162.091 227.413 164.535ZM241.264 175.942C239.023 177.979 236.579 179.405 234.542 180.016C232.709 180.627 231.283 180.627 230.468 180.22C228.635 179.201 227.82 174.924 228.839 169.424C229.043 168.813 229.043 168.202 229.246 167.387C231.691 167.998 234.339 168.405 237.19 168.609C238.82 170.85 240.653 173.09 242.282 174.924C241.875 175.331 241.468 175.738 241.264 175.942ZM244.116 173.09C242.894 171.868 241.671 170.442 240.449 168.813C241.671 168.813 242.69 168.813 243.912 168.813C245.134 168.813 246.356 168.813 247.578 168.813C246.356 170.442 245.338 171.868 244.116 173.09ZM259.393 176.757C258.985 178.59 258.374 180.016 257.356 180.423C255.522 181.442 251.449 180.016 247.171 176.349C246.764 175.942 246.153 175.535 245.745 174.924C247.375 173.09 249.004 171.053 250.634 168.609C253.486 168.405 256.134 167.998 258.578 167.387C258.781 167.794 258.781 168.405 258.985 168.813C259.8 171.868 259.8 174.516 259.393 176.757ZM261.633 163.924C261.226 164.128 261.022 164.128 260.615 164.332C259.8 161.887 258.781 159.443 257.559 156.795C258.781 154.147 259.8 151.703 260.411 149.462C261.022 149.666 261.633 149.87 262.244 150.073C267.744 151.906 271.003 154.758 271.003 156.999C271.207 159.036 267.54 162.091 261.633 163.924ZM243.912 162.091C246.764 162.091 249.208 159.647 249.208 156.795C249.208 153.943 246.764 151.499 243.912 151.499C241.06 151.499 238.616 153.943 238.616 156.795C238.616 159.647 241.06 162.091 243.912 162.091Z" fill="#93CB40"/>
<path d="M332.518 134.389C331.092 134.389 329.87 135.204 329.055 136.426L318.463 154.962C317.852 156.184 317.852 157.61 318.463 158.832L329.055 177.368C329.666 178.59 331.092 179.405 332.518 179.405H353.905C355.331 179.405 356.553 178.59 357.368 177.368L367.96 158.832C368.571 157.61 368.571 156.184 367.96 154.962L357.368 136.426C356.757 135.204 355.331 134.389 353.905 134.389H332.518ZM332.721 145.185H336.388C336.591 145.185 336.795 145.185 336.795 145.388L343.11 156.388V156.591V156.388L349.424 145.388C349.424 145.185 349.628 145.185 349.831 145.185H353.498C353.905 145.185 354.109 145.592 353.905 145.796L347.795 156.591L353.905 167.387C354.109 167.591 353.905 168.202 353.498 168.202H349.831C349.628 168.202 349.424 168.202 349.424 167.998L343.11 156.999V156.795V156.999L336.795 167.998C336.795 168.202 336.591 168.202 336.388 168.202H332.721C332.314 168.202 332.11 167.794 332.314 167.387L338.425 156.591L332.314 145.796C332.11 145.796 332.314 145.388 332.721 145.185Z" fill="#93CB40"/>
<path d="M110.697 245.943C110.086 242.887 109.068 240.239 107.235 237.795L111.919 231.684L110.086 229.851L108.253 228.018L101.939 232.703C99.4943 231.073 96.8463 229.851 93.7909 229.444L92.7724 221.703H90.3282H87.8839L86.8654 229.444C83.81 230.055 81.162 231.073 78.7177 232.703L72.4033 228.018L70.5701 229.851L68.7369 231.684L73.4218 237.795C71.7922 240.239 70.5701 242.887 69.959 245.943L62.2188 246.961V249.405V251.85L69.959 252.868C70.5701 255.924 71.5885 258.571 73.2181 261.016L68.5332 267.127L70.3664 268.96L72.1996 270.793L78.3104 266.108C80.7547 267.738 83.6063 268.96 86.458 269.571L87.4765 277.107H89.9208H92.3651L93.3835 269.571C96.4389 268.96 99.2906 267.941 101.531 266.108L107.642 270.793L109.475 268.96L111.308 267.127L106.623 261.016C108.253 258.571 109.475 255.924 109.883 252.868L117.623 251.85V249.405V246.961L110.697 245.943Z" stroke="#212529" stroke-miterlimit="10"/>
<path d="M102.457 249.609C102.457 256.195 97.1182 261.534 90.5321 261.534C83.946 261.534 78.6069 256.195 78.6069 249.609C78.6069 243.023 83.946 237.684 90.5321 237.684C97.1182 237.684 102.457 243.023 102.457 249.609Z" stroke="black"/>
<path d="M106.013 78.1009C106.624 75.6566 106.624 73.2123 106.013 70.9717L111.512 67.9164L110.698 66.0831L109.883 64.0462L103.772 65.4721C102.55 63.4352 100.92 61.8056 98.8835 60.3798L100.513 54.2691L98.6798 53.4543L96.8466 52.6395L93.5876 58.1392C91.1433 57.5281 88.699 57.5281 86.4584 58.1392L83.1993 52.6395L81.3661 53.658L79.5329 54.4727L80.9587 60.5835C78.9218 61.8056 77.2923 63.4352 75.8664 65.4721L69.7557 63.8425L69.1446 65.6758L68.3298 67.509L73.6258 70.7681C73.0147 73.2124 73.0147 75.6566 73.6258 77.8972L68.3298 80.9526L69.1446 82.7858L69.9594 84.6191L76.0701 83.1932C77.2923 85.2301 79.1255 87.0634 81.1624 88.2855L79.5329 94.1926L81.3661 95.0073L83.1993 95.8221L86.4584 90.5261C88.9027 91.1372 91.347 91.1372 93.5876 90.5261L96.6429 95.8221L98.4762 95.0073L100.309 94.1926L98.8835 88.0818C100.92 86.8597 102.55 85.0264 103.976 82.9895L110.087 84.6191L110.901 82.7858L111.716 80.9526L106.013 78.1009Z" stroke="#212529" stroke-miterlimit="10"/>
<path d="M99.1986 74.4345C99.1986 79.6706 94.9538 83.9154 89.7177 83.9154C84.4815 83.9154 80.2368 79.6706 80.2368 74.4345C80.2368 69.1983 84.4815 64.9536 89.7177 64.9536C94.9538 64.9536 99.1986 69.1983 99.1986 74.4345Z" stroke="black"/>
<path d="M310.722 231.684C310.519 229.851 310.111 228.018 309.297 226.592L312.556 223.129L311.537 221.907L310.519 220.685L306.445 223.129C305.019 221.907 303.593 221.092 301.76 220.481L301.556 215.796L300.131 215.593L298.705 215.389L297.483 220.074C295.649 220.277 293.816 220.685 292.39 221.5L288.928 218.241L287.705 219.259L286.483 220.278L288.928 224.351C287.705 225.777 286.891 227.203 286.28 229.036L281.595 229.24L281.391 230.666L281.187 232.092L285.668 233.314C285.872 235.147 286.28 236.98 287.094 238.61L283.835 242.072L284.854 243.295L285.872 244.517L289.946 242.072C291.372 243.295 293.001 244.109 294.631 244.72L294.835 249.405L296.26 249.609L297.686 249.813L298.908 245.332C300.742 245.128 302.575 244.72 304.204 243.906L307.667 247.165L308.889 246.146L310.111 245.128L307.667 241.054C308.889 239.628 309.704 237.999 310.315 236.369L315 236.165L315.204 234.74L315.407 233.314L310.722 231.684Z" stroke="#212529" stroke-miterlimit="10"/>
<path d="M305.334 232.499C305.334 236.385 302.184 239.536 298.297 239.536C294.411 239.536 291.261 236.385 291.261 232.499C291.261 228.613 294.411 225.462 298.297 225.462C302.184 225.462 305.334 228.613 305.334 232.499Z" stroke="black"/>
</svg>
