<svg width="325" height="404" viewBox="0 0 325 404" fill="none" xmlns="http://www.w3.org/2000/svg">
<path d="M254.915 339.165C254.764 337.805 254.462 336.445 253.857 335.387L256.275 332.818L255.52 331.912L254.764 331.005L251.742 332.818C250.684 331.912 249.626 331.307 248.267 330.854L248.115 327.378L247.058 327.227L246 327.076L245.093 330.552C243.733 330.703 242.373 331.005 241.316 331.609L238.747 329.192L237.84 329.947L236.934 330.703L238.747 333.725C237.84 334.783 237.236 335.84 236.783 337.2L233.307 337.351L233.156 338.409L233.005 339.467L236.329 340.373C236.48 341.733 236.783 343.093 237.387 344.302L234.969 346.871L235.725 347.778L236.48 348.684L239.502 346.871C240.56 347.778 241.769 348.382 242.978 348.835L243.129 352.311L244.187 352.462L245.244 352.613L246.151 349.289C247.511 349.138 248.871 348.835 250.08 348.231L252.649 350.649L253.555 349.893L254.462 349.138L252.649 346.115C253.555 345.058 254.16 343.849 254.613 342.64L258.088 342.489L258.239 341.431L258.391 340.373L254.915 339.165Z" stroke="#212529" stroke-miterlimit="10"/>
<path d="M245.546 345.209C248.634 345.209 251.137 342.706 251.137 339.618C251.137 336.53 248.634 334.027 245.546 334.027C242.459 334.027 239.956 336.53 239.956 339.618C239.956 342.706 242.459 345.209 245.546 345.209Z" stroke="#212529" stroke-miterlimit="10"/>
<path d="M243.431 304.561C242.827 302.144 241.769 299.877 240.258 298.064L243.885 292.775L242.374 291.415L240.863 290.055L235.876 294.135C233.912 292.926 231.494 292.02 229.076 291.718L227.868 285.371L225.752 285.522L223.637 285.673L223.032 292.171C220.614 292.775 218.348 293.833 216.535 295.193L211.246 291.566L209.886 293.077L208.526 294.588L212.606 299.575C211.397 301.539 210.49 303.957 210.188 306.375L203.842 307.584L203.993 309.699L204.144 311.815L210.49 312.419C211.095 314.837 212.153 317.103 213.664 319.068L210.037 324.356L211.548 325.716L213.059 327.076L217.895 322.996C220.01 324.356 222.277 325.112 224.845 325.414L226.054 331.609L228.17 331.458L230.285 331.307L230.89 324.961C233.307 324.356 235.574 323.298 237.538 321.787L242.827 325.263L244.187 323.752L245.547 322.241L241.467 317.405C242.676 315.29 243.582 313.023 243.885 310.455L250.08 309.246L249.929 307.13L249.778 305.015L243.431 304.561Z" stroke="#212529" stroke-miterlimit="10"/>
<path d="M226.809 318.614C232.484 318.614 237.084 314.014 237.084 308.339C237.084 302.664 232.484 298.064 226.809 298.064C221.135 298.064 216.534 302.664 216.534 308.339C216.534 314.014 221.135 318.614 226.809 318.614Z" stroke="#212529" stroke-miterlimit="10"/>
<path d="M303.871 379.963H283.472V255.452C283.472 252.732 285.588 250.617 288.308 250.617H299.187C301.907 250.617 304.022 252.732 304.022 255.452V379.963H303.871Z" stroke="#212529" stroke-miterlimit="10" stroke-linecap="round" stroke-linejoin="round"/>
<path d="M293.597 403.384L283.322 379.963H303.873L293.597 403.384Z" stroke="#212529" stroke-miterlimit="10" stroke-linecap="round" stroke-linejoin="round"/>
<path d="M293.597 262.856V379.963" stroke="#212529" stroke-miterlimit="10" stroke-linecap="round" stroke-linejoin="round"/>
<path d="M283.322 262.856H303.873" stroke="#212529" stroke-miterlimit="10"/>
<path d="M288.007 390.691H299.34L293.598 403.384L288.007 390.691Z" fill="#212529"/>
<path d="M138.866 87.8765H177.7" stroke="#212529" stroke-miterlimit="10" stroke-linecap="round" stroke-linejoin="round"/>
<path d="M171.958 81.2278L178.758 88.0275L172.261 94.525" stroke="#212529" stroke-miterlimit="10" stroke-linecap="round" stroke-linejoin="round"/>
<path d="M161.531 74.5791H122.848" stroke="#212529" stroke-miterlimit="10" stroke-linecap="round" stroke-linejoin="round"/>
<path d="M128.439 67.9307L121.64 74.7304L128.137 81.2279" stroke="#212529" stroke-miterlimit="10" stroke-linecap="round" stroke-linejoin="round"/>
<path d="M91.7218 267.087H82.2022C76.7624 267.087 72.3804 262.705 72.3804 257.266V175.215C72.3804 169.776 76.7624 165.394 82.2022 165.394H91.7218C97.1616 165.394 101.544 169.776 101.544 175.215V257.266C101.544 262.705 97.1616 267.087 91.7218 267.087Z" stroke="#212529" stroke-miterlimit="10"/>
<path d="M71.8793 256.917H69.8105C60.7181 256.917 53.3867 249.585 53.3867 240.493V191.837C53.3867 182.745 60.7181 175.413 69.8105 175.413H71.8793V256.917Z" stroke="#212529"/>
<path d="M219.557 267.087H229.076C234.516 267.087 238.898 262.705 238.898 257.266V175.215C238.898 169.776 234.516 165.394 229.076 165.394H219.557C214.117 165.394 209.735 169.776 209.735 175.215V257.266C209.735 262.705 214.117 267.087 219.557 267.087Z" stroke="#212529" stroke-miterlimit="10"/>
<path d="M241.467 256.917H239.398V175.413H241.467C250.559 175.413 257.891 182.745 257.891 191.837V240.493C257.891 249.585 250.559 256.917 241.467 256.917Z" stroke="#212529"/>
<path d="M146.875 325.414H111.516C89.9079 325.414 72.5308 307.886 72.5308 286.429V154.665C72.5308 133.057 90.059 115.68 111.516 115.68H130.857H200.064C221.672 115.68 239.049 133.208 239.049 154.665V212.539" stroke="#212529" stroke-miterlimit="10"/>
<path d="M156.092 325.414H133.88C130.706 325.414 128.138 322.845 128.138 319.672V318.01C128.138 314.836 130.706 312.268 133.88 312.268H156.243C159.416 312.268 161.985 314.836 161.985 318.01V319.672C161.834 322.845 159.265 325.414 156.092 325.414Z" stroke="#212529" stroke-miterlimit="10"/>
<path d="M137.506 213.898H125.116V226.289H137.506V213.898Z" fill="#93CB40"/>
<path d="M162.59 213.898H150.199V226.289H162.59V213.898Z" fill="#93CB40"/>
<path d="M187.673 213.898H175.282V226.289H187.673V213.898Z" fill="#93CB40"/>
<path d="M6.64941 15.044L14.5069 23.2037L22.3644 15.044L17.8312 1.14233H14.5069H11.1826L6.64941 15.044Z" stroke="#212529" stroke-miterlimit="10"/>
<path d="M14.5073 81.904V23.2036" stroke="#212529" stroke-miterlimit="10"/>
<path d="M6.3042 82.0364V86.1162H22.7747V82.0364H6.3042Z" stroke="#212529" stroke-miterlimit="10"/>
<path d="M1.04639 86.2301L1.04639 90.0144H27.9431V86.2301H1.04639Z" stroke="#212529" stroke-miterlimit="10"/>
<path d="M27.9548 89.9919V148.47C27.9548 152.549 24.6305 155.723 20.7018 155.723H8.31116C4.23131 155.723 1.05811 152.398 1.05811 148.47V89.9919H27.9548Z" stroke="#212529" stroke-miterlimit="10"/>
<path d="M6.19629 89.9919V136.532" stroke="#212529" stroke-miterlimit="10" stroke-linecap="round"/>
<path d="M22.8179 89.9919V136.532" stroke="#212529" stroke-miterlimit="10" stroke-linecap="round"/>
<path d="M14.8091 89.9919V136.532" stroke="#212529" stroke-miterlimit="10" stroke-linecap="round"/>
<path d="M14.8091 162.674V194.406C14.8091 208.61 26.2931 220.094 40.497 220.094H48.3544" stroke="#212529" stroke-miterlimit="10"/>
<path d="M265.795 216.316H267.759C281.963 216.316 293.447 227.8 293.447 242.004V243.515" stroke="#212529" stroke-miterlimit="10"/>
<path d="M301.606 198.032L293.295 168.567L323.063 177.18L301.606 198.032Z" stroke="#212529" stroke-miterlimit="10" stroke-linecap="round" stroke-linejoin="round"/>
<path d="M323.819 198.939L312.788 187.908" stroke="#212529" stroke-miterlimit="10" stroke-linecap="round" stroke-linejoin="round"/>
<path d="M296.318 151.038H292.842V159.953H296.318V151.038Z" fill="#212529"/>
<path d="M281.934 155.603L279.477 158.06L285.781 164.364L288.238 161.907L281.934 155.603Z" fill="#212529"/>
<path d="M274.833 169.064L274.833 172.54L283.748 172.54L283.748 169.064L274.833 169.064Z" fill="#212529"/>
<path d="M279.414 183.449L281.872 185.906L288.176 179.603L285.718 177.145L279.414 183.449Z" fill="#212529"/>
<path d="M300.994 161.853L303.451 164.311L309.755 158.007L307.298 155.549L300.994 161.853Z" fill="#212529"/>
</svg>
