<svg width="338" height="304" viewBox="0 0 338 304" fill="none" xmlns="http://www.w3.org/2000/svg">
<path d="M1.14756 161.512L21.0685 161.512L21.0685 282.647C21.0685 285.296 19.0027 287.357 16.3465 287.357L5.72201 287.357C3.06588 287.357 1 285.296 1 282.647L0.999994 161.512L1.14756 161.512Z" stroke="#212529" stroke-miterlimit="10" stroke-linecap="round" stroke-linejoin="round"/>
<path d="M11.1822 138.698L21.0689 161.512L1.14795 161.512L11.1822 138.698Z" stroke="#212529" stroke-miterlimit="10" stroke-linecap="round" stroke-linejoin="round"/>
<path d="M11.1816 275.582L11.1816 161.512" stroke="#212529" stroke-miterlimit="10" stroke-linecap="round" stroke-linejoin="round"/>
<path d="M21.0689 275.582L1.14795 275.582" stroke="#212529" stroke-miterlimit="10"/>
<path d="M16.4943 150.914L5.57471 150.914L11.1821 138.697L16.4943 150.914Z" fill="#212529"/>
<path d="M299.083 274.179C300.219 274.179 301.14 273.256 301.14 272.117C301.14 270.978 300.219 270.055 299.083 270.055C297.948 270.055 297.027 270.978 297.027 272.117C297.027 273.256 297.948 274.179 299.083 274.179Z" fill="#212529"/>
<path d="M313.317 274.179C314.452 274.179 315.373 273.256 315.373 272.117C315.373 270.978 314.452 270.055 313.317 270.055C312.181 270.055 311.261 270.978 311.261 272.117C311.261 273.256 312.181 274.179 313.317 274.179Z" fill="#212529"/>
<path d="M327.551 274.179C328.686 274.179 329.607 273.256 329.607 272.117C329.607 270.978 328.686 270.055 327.551 270.055C326.415 270.055 325.495 270.978 325.495 272.117C325.495 273.256 326.415 274.179 327.551 274.179Z" fill="#212529"/>
<path d="M299.082 285.281C300.218 285.281 301.138 284.357 301.138 283.219C301.138 282.08 300.218 281.157 299.082 281.157C297.946 281.157 297.026 282.08 297.026 283.219C297.026 284.357 297.946 285.281 299.082 285.281Z" fill="#212529"/>
<path d="M313.317 285.281C314.452 285.281 315.373 284.357 315.373 283.219C315.373 282.08 314.452 281.157 313.317 281.157C312.181 281.157 311.261 282.08 311.261 283.219C311.261 284.357 312.181 285.281 313.317 285.281Z" fill="#212529"/>
<path d="M327.551 285.281C328.686 285.281 329.607 284.357 329.607 283.219C329.607 282.08 328.686 281.157 327.551 281.157C326.415 281.157 325.495 282.08 325.495 283.219C325.495 284.357 326.415 285.281 327.551 285.281Z" fill="#212529"/>
<path d="M299.082 296.383C300.218 296.383 301.138 295.459 301.138 294.321C301.138 293.182 300.218 292.259 299.082 292.259C297.946 292.259 297.026 293.182 297.026 294.321C297.026 295.459 297.946 296.383 299.082 296.383Z" fill="#212529"/>
<path d="M313.317 296.383C314.452 296.383 315.373 295.459 315.373 294.321C315.373 293.182 314.452 292.259 313.317 292.259C312.181 292.259 311.261 293.182 311.261 294.321C311.261 295.459 312.181 296.383 313.317 296.383Z" fill="#212529"/>
<path d="M327.551 296.383C328.686 296.383 329.607 295.459 329.607 294.321C329.607 293.182 328.686 292.259 327.551 292.259C326.415 292.259 325.495 293.182 325.495 294.321C325.495 295.459 326.415 296.383 327.551 296.383Z" fill="#212529"/>
<path d="M233.032 183.222H215.125V201.175H233.032V183.222Z" fill="#93CB40" stroke="#212529" stroke-miterlimit="10"/>
<path d="M233.032 201.175H215.124V219.128H233.032V201.175Z" stroke="#212529" stroke-miterlimit="10"/>
<path d="M250.798 183.222H232.891V201.175H250.798V183.222Z" stroke="#212529" stroke-miterlimit="10"/>
<path d="M250.798 201.175H232.891V219.128H250.798V201.175Z" stroke="#212529" stroke-miterlimit="10"/>
<path d="M181.148 188.735H156.19V213.756H181.148V188.735Z" stroke="#212529" stroke-miterlimit="10"/>
<path d="M161.831 183.363H151.255V193.966H161.831V183.363Z" fill="white" stroke="#212529" stroke-miterlimit="10"/>
<path d="M186.506 183.363H175.93V193.966H186.506V183.363Z" fill="white" stroke="#212529" stroke-miterlimit="10"/>
<path d="M161.83 208.385H151.255V218.987H161.83V208.385Z" fill="#93CB40" stroke="#212529" stroke-miterlimit="10"/>
<path d="M186.506 208.385H175.93V218.987H186.506V208.385Z" fill="white" stroke="#212529" stroke-miterlimit="10"/>
<path d="M119.979 208.102H101.649V183.222H119.979V199.337V208.102Z" stroke="#212529" stroke-miterlimit="10"/>
<path d="M101.79 200.468H119.979" stroke="#212529" stroke-miterlimit="10"/>
<path d="M110.814 218.987C109.545 218.987 108.417 217.997 108.417 216.584V208.102H113.211V216.584C113.211 217.856 112.083 218.987 110.814 218.987Z" stroke="#212529" stroke-miterlimit="10"/>
<path d="M101.649 188.028C101.649 188.028 106.161 185.908 109.968 188.028C113.775 190.149 114.903 190.714 119.979 191.138V183.222H101.649V188.028Z" fill="#93CB40" stroke="#212529" stroke-miterlimit="10"/>
<path d="M288.613 206.829C289.459 207.112 299.611 206.829 299.611 206.829L290.587 216.159C290.587 216.159 287.767 218.563 285.229 215.877C282.691 213.191 284.524 211.07 285.229 210.364C285.793 209.657 288.613 206.829 288.613 206.829Z" fill="#93CB40"/>
<path d="M284.806 216.159C283.255 214.604 283.255 212.06 284.806 210.505L310.187 185.059C311.738 183.504 314.276 183.504 315.827 185.059C317.378 186.614 317.378 189.159 315.827 190.714L290.446 216.159C288.895 217.714 286.357 217.714 284.806 216.159Z" stroke="#212529" stroke-miterlimit="10"/>
<path d="M282.55 218.563C281.845 217.856 281.845 216.725 282.55 216.018L283.819 214.746L286.357 217.29L285.088 218.563C284.383 219.269 283.255 219.269 282.55 218.563Z" fill="#212529"/>
<path d="M299.47 189.3L311.738 201.457" stroke="#212529" stroke-miterlimit="10" stroke-linecap="round"/>
<path d="M115.347 264.633H189.91" stroke="#212529" stroke-miterlimit="10" stroke-linecap="round"/>
<path d="M108.613 264.633H111.405" stroke="#212529" stroke-miterlimit="10" stroke-linecap="round"/>
<path d="M108.613 282.747H111.405" stroke="#212529" stroke-miterlimit="10" stroke-linecap="round"/>
<path d="M108.613 300.862H111.405" stroke="#212529" stroke-miterlimit="10" stroke-linecap="round"/>
<path d="M193.751 264.633H196.135" stroke="#212529" stroke-miterlimit="10" stroke-linecap="round"/>
<path d="M193.751 282.747H196.135" stroke="#212529" stroke-miterlimit="10" stroke-linecap="round"/>
<path d="M193.751 300.862H196.135" stroke="#212529" stroke-miterlimit="10" stroke-linecap="round"/>
<path d="M115.347 282.747H189.91" stroke="#93CB40" stroke-miterlimit="10" stroke-linecap="round"/>
<path d="M115.347 300.862H189.91" stroke="#212529" stroke-miterlimit="10" stroke-linecap="round"/>
<path d="M125.203 261.504H123.232V267.597H125.203V261.504Z" fill="#212529"/>
<path d="M133.744 279.783H131.772V285.876H133.744V279.783Z" fill="#93CB40"/>
<path d="M130.459 297.897H128.488V303.99H130.459V297.897Z" fill="#212529"/>
<path d="M314.141 143.529L325.814 155.232" stroke="#212529" stroke-miterlimit="10" stroke-linecap="round"/>
<path d="M325.814 143.529L314.141 155.232" stroke="#212529" stroke-miterlimit="10" stroke-linecap="round"/>
<path d="M336.948 237.869H75.4785V162.613V136.147H336.948V237.869Z" stroke="#212529" stroke-miterlimit="10"/>
<path d="M336.948 161.893H75.4785" stroke="#212529" stroke-miterlimit="10"/>
<path d="M132.772 86.9861H257.531" stroke="#212529" stroke-miterlimit="10"/>
<path d="M196.042 41.6776H241.235C241.235 66.5653 220.867 86.986 196.042 86.986C171.345 86.986 150.976 66.6929 150.849 41.9329L196.042 41.6776Z" stroke="#212529" stroke-miterlimit="10"/>
<path d="M239.071 40.0184H150.849V43.592H239.071V40.0184Z" fill="white"/>
<path d="M246.709 36.3173H235.888V47.1657H246.709V36.3173Z" fill="white" stroke="#212529" stroke-miterlimit="10"/>
<path d="M156.196 36.3173H145.375V47.1657H156.196V36.3173Z" fill="white" stroke="#212529" stroke-miterlimit="10"/>
<path d="M201.516 81.6255H190.695V92.474H201.516V81.6255Z" fill="white" stroke="#212529" stroke-miterlimit="10"/>
<path d="M262.495 81.6255H251.674V92.474H262.495V81.6255Z" fill="white" stroke="#212529" stroke-miterlimit="10"/>
<path d="M138.246 81.6255H127.425V92.474H138.246V81.6255Z" fill="white" stroke="#212529" stroke-miterlimit="10"/>
<path d="M205.336 24.9583H184.84C184.84 24.9583 183.822 38.4869 180.002 53.1643C186.877 55.7169 191.842 63.3746 191.842 72.4363H195.024H198.207C198.207 63.3746 203.172 55.7169 210.046 53.1643C206.354 38.4869 205.336 24.9583 205.336 24.9583Z" stroke="#212529" stroke-miterlimit="10"/>
<path d="M195.151 47.8038V72.3086" stroke="#212529" stroke-miterlimit="10"/>
<path d="M195.152 47.1657C196.488 47.1657 197.57 46.08 197.57 44.7408C197.57 43.4015 196.488 42.3158 195.152 42.3158C193.816 42.3158 192.733 43.4015 192.733 44.7408C192.733 46.08 193.816 47.1657 195.152 47.1657Z" stroke="#212529" stroke-miterlimit="10"/>
<path d="M208.01 13.344H181.912V24.9582H208.01V13.344Z" stroke="#212529" stroke-miterlimit="10"/>
<path d="M184.967 0.198242V13.344" stroke="#212529" stroke-miterlimit="10"/>
<path d="M205.081 0.198242V13.344" stroke="#212529" stroke-miterlimit="10"/>
</svg>
