<svg width="287" height="299" viewBox="0 0 287 299" fill="none" xmlns="http://www.w3.org/2000/svg">
<path d="M42.1502 187.053C43.259 187.053 44.1578 186.152 44.1578 185.04C44.1578 183.928 43.259 183.027 42.1502 183.027C41.0414 183.027 40.1426 183.928 40.1426 185.04C40.1426 186.152 41.0414 187.053 42.1502 187.053Z" fill="#212529"/>
<path d="M56.0477 187.053C57.1564 187.053 58.0553 186.152 58.0553 185.04C58.0553 183.928 57.1564 183.027 56.0477 183.027C54.9389 183.027 54.04 183.928 54.04 185.04C54.04 186.152 54.9389 187.053 56.0477 187.053Z" fill="#212529"/>
<path d="M69.9456 187.053C71.0543 187.053 71.9532 186.152 71.9532 185.04C71.9532 183.928 71.0543 183.027 69.9456 183.027C68.8368 183.027 67.938 183.928 67.938 185.04C67.938 186.152 68.8368 187.053 69.9456 187.053Z" fill="#212529"/>
<path d="M42.1487 197.893C43.2575 197.893 44.1563 196.992 44.1563 195.88C44.1563 194.768 43.2575 193.867 42.1487 193.867C41.0399 193.867 40.1411 194.768 40.1411 195.88C40.1411 196.992 41.0399 197.893 42.1487 197.893Z" fill="#212529"/>
<path d="M56.0477 197.893C57.1564 197.893 58.0553 196.992 58.0553 195.88C58.0553 194.768 57.1564 193.867 56.0477 193.867C54.9389 193.867 54.04 194.768 54.04 195.88C54.04 196.992 54.9389 197.893 56.0477 197.893Z" fill="#212529"/>
<path d="M69.9456 197.893C71.0543 197.893 71.9532 196.992 71.9532 195.88C71.9532 194.768 71.0543 193.867 69.9456 193.867C68.8368 193.867 67.938 194.768 67.938 195.88C67.938 196.992 68.8368 197.893 69.9456 197.893Z" fill="#212529"/>
<path d="M42.1487 208.733C43.2575 208.733 44.1563 207.831 44.1563 206.72C44.1563 205.608 43.2575 204.707 42.1487 204.707C41.0399 204.707 40.1411 205.608 40.1411 206.72C40.1411 207.831 41.0399 208.733 42.1487 208.733Z" fill="#212529"/>
<path d="M56.0477 208.733C57.1564 208.733 58.0553 207.831 58.0553 206.72C58.0553 205.608 57.1564 204.707 56.0477 204.707C54.9389 204.707 54.04 205.608 54.04 206.72C54.04 207.831 54.9389 208.733 56.0477 208.733Z" fill="#212529"/>
<path d="M69.9456 208.733C71.0543 208.733 71.9532 207.831 71.9532 206.72C71.9532 205.608 71.0543 204.707 69.9456 204.707C68.8368 204.707 67.938 205.608 67.938 206.72C67.938 207.831 68.8368 208.733 69.9456 208.733Z" fill="#212529"/>
<path d="M103.291 197.449L96.4019 204.338L103.291 211.228" stroke="#212529" stroke-miterlimit="10" stroke-linecap="round" stroke-linejoin="round"/>
<path d="M82.2778 237.753H191.651" stroke="#212529" stroke-miterlimit="10" stroke-linecap="round"/>
<path d="M129.127 211.228H207.152" stroke="#212529" stroke-miterlimit="10" stroke-linecap="round"/>
<path d="M127.233 197.449L113.453 211.228" stroke="#212529" stroke-miterlimit="10" stroke-linecap="round"/>
<path d="M232.472 1.12085H56.7861V23.5122H232.472V1.12085Z" stroke="#212529" stroke-miterlimit="10"/>
<path d="M232.472 265.319H56.7861V298.044H232.472V265.319Z" stroke="#212529" stroke-miterlimit="10"/>
<path d="M56.7861 225.875V297.011" stroke="#212529" stroke-miterlimit="10"/>
<path d="M208.072 6.28815L219.267 17.4838" stroke="#212529" stroke-miterlimit="10" stroke-linecap="round"/>
<path d="M219.267 6.28815L208.072 17.4838" stroke="#212529" stroke-miterlimit="10" stroke-linecap="round"/>
<path d="M144.629 291.155C149.385 291.155 153.241 287.299 153.241 282.543C153.241 277.787 149.385 273.931 144.629 273.931C139.873 273.931 136.017 277.787 136.017 282.543C136.017 287.299 139.873 291.155 144.629 291.155Z" fill="#212529"/>
<path d="M232.473 297.971V217.972" stroke="#212529" stroke-miterlimit="10" stroke-linecap="round"/>
<path d="M56.7861 23.5123V40.3919" stroke="#212529" stroke-miterlimit="10"/>
<path d="M232.472 92.8416V23.5123" stroke="#212529" stroke-miterlimit="10" stroke-linecap="round"/>
<path d="M206.137 79.1769L136.808 79.1769" stroke="#212529" stroke-miterlimit="10" stroke-linecap="round"/>
<path d="M206.137 57.7127L108.93 57.7127" stroke="#212529" stroke-miterlimit="10" stroke-linecap="round"/>
<path d="M48.9449 102.004H18.7859C8.84476 102.004 0.785889 110.062 0.785889 120.004V150.163C0.785889 160.104 8.84476 168.163 18.7859 168.163H48.9449C58.886 168.163 66.9449 160.104 66.9449 150.163V120.004C66.9449 110.062 58.886 102.004 48.9449 102.004Z" stroke="#212529" stroke-miterlimit="10"/>
<path d="M122.17 102.004H92.0115C82.0703 102.004 74.0115 110.062 74.0115 120.004V150.163C74.0115 160.104 82.0704 168.163 92.0115 168.163H122.17C132.112 168.163 140.17 160.104 140.17 150.163V120.004C140.17 110.062 132.112 102.004 122.17 102.004Z" stroke="#212529" stroke-miterlimit="10"/>
<path d="M195.246 102.004H165.087C155.146 102.004 147.087 110.062 147.087 120.004V150.163C147.087 160.104 155.146 168.163 165.087 168.163H195.246C205.188 168.163 213.246 160.104 213.246 150.163V120.004C213.246 110.062 205.188 102.004 195.246 102.004Z" stroke="#212529" stroke-miterlimit="10"/>
<path d="M268.473 102.004H238.314C228.373 102.004 220.314 110.062 220.314 120.004V150.163C220.314 160.104 228.373 168.163 238.314 168.163H268.473C278.414 168.163 286.473 160.104 286.473 150.163V120.004C286.473 110.062 278.414 102.004 268.473 102.004Z" stroke="#212529" stroke-miterlimit="10"/>
<path fill-rule="evenodd" clip-rule="evenodd" d="M35.4769 121.548C37.7971 118.583 41.0197 118.454 41.0197 118.454C41.0197 118.454 41.5353 121.29 39.215 123.997C36.7659 126.962 34.059 126.446 34.059 126.446C34.059 126.446 33.4145 124.255 35.4769 121.548Z" fill="#93CB40"/>
<path fill-rule="evenodd" clip-rule="evenodd" d="M34.1875 128.638C35.3476 128.638 37.539 126.962 40.3748 126.962C45.2731 126.962 47.2066 130.442 47.2066 130.442C47.2066 130.442 43.4685 132.376 43.4685 137.016C43.4685 142.301 48.1089 144.106 48.1089 144.106C48.1089 144.106 44.8864 153.387 40.3748 153.387C38.3124 153.387 36.7656 151.969 34.5742 151.969C32.3829 151.969 30.1916 153.387 28.7736 153.387C24.7777 153.387 19.6216 144.621 19.6216 137.532C19.6216 130.571 24.0043 126.962 28.0002 126.962C30.8361 127.091 32.8985 128.638 34.1875 128.638Z" fill="#93CB40"/>
<path d="M111.732 121.161L113.407 118.841C113.407 118.841 113.407 118.712 113.278 118.583C113.149 118.454 113.021 118.454 113.021 118.583L111.345 120.903C110.185 120.517 108.896 120.13 107.22 120.13C105.544 120.13 104.126 120.388 102.966 120.774L101.29 118.454C101.29 118.454 101.162 118.454 101.033 118.454C100.904 118.583 100.904 118.583 100.904 118.712L102.451 121.032C97.8101 123.095 97.6812 128.122 97.6812 128.122H116.501C116.501 128.251 116.372 123.223 111.732 121.161ZM102.966 125.286C102.322 125.286 101.806 124.77 101.806 124.126C101.806 123.481 102.322 122.966 102.966 122.966C103.611 122.966 104.126 123.481 104.126 124.126C104.126 124.77 103.611 125.286 102.966 125.286ZM111.216 125.286C110.571 125.286 110.056 124.77 110.056 124.126C110.056 123.481 110.571 122.966 111.216 122.966C111.86 122.966 112.376 123.481 112.376 124.126C112.376 124.77 111.86 125.286 111.216 125.286ZM119.595 128.637C118.434 128.637 117.532 129.54 117.532 130.7V139.723C117.532 140.883 118.434 141.785 119.595 141.785C120.755 141.785 121.657 140.883 121.657 139.723V130.7C121.657 129.54 120.755 128.637 119.595 128.637ZM94.5876 128.637C93.4275 128.637 92.5251 129.54 92.5251 130.7V139.723C92.5251 140.883 93.4275 141.785 94.5876 141.785C95.7477 141.785 96.65 140.883 96.65 139.723V130.7C96.65 129.54 95.7477 128.637 94.5876 128.637ZM97.6812 137.145V145.266C97.6812 145.91 98.1968 146.426 98.8414 146.426H101.29V151.453C101.29 152.613 102.193 153.515 103.353 153.515C104.513 153.515 105.415 152.613 105.415 151.453V146.426H109.154V151.453C109.154 152.613 110.056 153.515 111.216 153.515C112.376 153.515 113.278 152.613 113.278 151.453V146.426H115.728C116.372 146.426 116.888 145.91 116.888 145.266V137.145V129.411H97.6812V137.145Z" fill="#93CB40"/>
<path d="M192.404 130.184C192.017 130.055 191.631 129.926 191.244 129.798C191.373 129.54 191.373 129.282 191.373 129.024C192.275 124.641 191.631 121.032 189.697 119.872C187.764 118.712 184.541 119.872 181.318 122.708C181.061 122.966 180.674 123.224 180.416 123.61C180.158 123.352 180.029 123.224 179.772 123.095C176.42 120.13 172.94 118.841 170.877 120.001C168.944 121.161 168.299 124.513 169.202 128.766C169.331 129.153 169.331 129.54 169.459 130.055C168.944 130.184 168.557 130.313 168.042 130.442C164.046 131.86 161.468 134.051 161.468 136.243C161.468 138.563 164.174 140.883 168.299 142.301C168.686 142.43 168.944 142.559 169.331 142.559C169.202 142.946 169.073 143.461 169.073 143.848C168.299 147.973 168.944 151.324 170.877 152.355C172.94 153.516 176.291 152.355 179.514 149.391C179.772 149.133 180.029 148.875 180.287 148.617C180.674 148.875 180.932 149.262 181.318 149.52C184.541 152.227 187.635 153.387 189.568 152.227C191.631 151.066 192.275 147.586 191.373 143.203C191.244 142.817 191.244 142.559 191.115 142.172C191.373 142.043 191.631 142.043 191.76 141.914C196.013 140.496 198.849 138.176 198.849 135.856C199.107 133.665 196.529 131.473 192.404 130.184ZM182.35 123.739C185.186 121.29 187.764 120.388 188.924 121.032C190.213 121.806 190.728 124.641 189.826 128.509C189.826 128.766 189.697 129.024 189.697 129.282C188.15 128.895 186.475 128.637 184.67 128.509C183.639 127.091 182.607 125.673 181.447 124.513C181.705 124.384 182.092 123.997 182.35 123.739ZM172.682 137.918C173.069 138.563 173.327 139.207 173.713 139.852C174.1 140.496 174.487 141.141 174.873 141.785C173.584 141.657 172.424 141.399 171.393 141.27C171.78 140.11 172.166 139.078 172.682 137.918ZM172.682 134.18C172.166 133.02 171.78 131.989 171.522 130.958C172.553 130.7 173.713 130.571 174.873 130.313C174.487 130.958 174.1 131.602 173.713 132.247C173.327 132.891 172.94 133.536 172.682 134.18ZM173.455 135.985C173.971 134.954 174.487 133.922 175.002 133.02C175.518 131.989 176.162 131.087 176.807 130.184C177.967 130.055 179.127 130.055 180.287 130.055C181.447 130.055 182.607 130.055 183.768 130.184C184.412 131.087 185.057 132.118 185.572 133.02C186.088 134.051 186.732 134.954 187.248 135.985C186.732 137.016 186.217 138.047 185.572 139.078C185.057 140.11 184.412 141.012 183.768 142.043C182.607 142.172 181.447 142.172 180.287 142.172C179.127 142.172 177.967 142.172 176.936 142.043C176.291 141.141 175.647 140.11 175.131 139.078C174.487 138.047 173.971 137.016 173.455 135.985ZM186.99 139.852C187.377 139.207 187.764 138.563 188.021 137.918C188.537 139.078 188.924 140.11 189.31 141.27C188.279 141.528 186.99 141.657 185.83 141.914C186.217 141.141 186.603 140.496 186.99 139.852ZM188.021 134.18C187.635 133.536 187.377 132.891 186.99 132.247C186.603 131.602 186.217 130.958 185.83 130.313C186.99 130.442 188.15 130.7 189.31 130.958C188.924 131.989 188.537 133.02 188.021 134.18ZM180.287 125.802C181.061 126.575 181.705 127.477 182.479 128.509C181.061 128.38 179.514 128.38 178.096 128.509C178.869 127.477 179.643 126.575 180.287 125.802ZM171.651 121.161C172.94 120.388 175.647 121.419 178.612 124.126C178.74 124.255 178.998 124.513 179.127 124.641C178.096 125.802 176.936 127.091 175.905 128.637C174.1 128.766 172.424 129.024 170.877 129.411C170.748 129.024 170.748 128.637 170.62 128.251C170.104 124.513 170.491 121.806 171.651 121.161ZM169.846 140.883C169.588 140.754 169.202 140.754 168.944 140.625C167.139 139.981 165.592 139.207 164.561 138.305C163.659 137.532 163.143 136.758 163.143 136.114C163.143 134.696 165.206 133.02 168.557 131.86C168.944 131.731 169.459 131.602 169.846 131.473C170.362 133.02 170.877 134.567 171.651 136.243C171.006 137.661 170.362 139.336 169.846 140.883ZM178.612 148.102C177.194 149.391 175.647 150.293 174.358 150.68C173.198 151.066 172.295 151.066 171.78 150.809C170.62 150.164 170.104 147.457 170.748 143.977C170.877 143.59 170.877 143.203 171.006 142.688C172.553 143.074 174.229 143.332 176.033 143.461C177.065 144.879 178.225 146.297 179.256 147.457C178.998 147.715 178.74 147.973 178.612 148.102ZM180.416 146.297C179.643 145.524 178.869 144.621 178.096 143.59C178.869 143.59 179.514 143.59 180.287 143.59C181.061 143.59 181.834 143.59 182.607 143.59C181.834 144.621 181.19 145.524 180.416 146.297ZM190.084 148.617C189.826 149.777 189.439 150.68 188.795 150.937C187.635 151.582 185.057 150.68 182.35 148.359C182.092 148.102 181.705 147.844 181.447 147.457C182.479 146.297 183.51 145.008 184.541 143.461C186.346 143.332 188.021 143.074 189.568 142.688C189.697 142.946 189.697 143.332 189.826 143.59C190.342 145.524 190.342 147.199 190.084 148.617ZM191.502 140.496C191.244 140.625 191.115 140.625 190.857 140.754C190.342 139.207 189.697 137.661 188.924 135.985C189.697 134.309 190.342 132.762 190.728 131.344C191.115 131.473 191.502 131.602 191.888 131.731C195.369 132.891 197.431 134.696 197.431 136.114C197.56 137.403 195.24 139.336 191.502 140.496ZM180.287 139.336C182.092 139.336 183.639 137.789 183.639 135.985C183.639 134.18 182.092 132.633 180.287 132.633C178.483 132.633 176.936 134.18 176.936 135.985C176.936 137.789 178.483 139.336 180.287 139.336Z" fill="#93CB40"/>
<path d="M246.626 121.806C245.724 121.806 244.95 122.321 244.435 123.095L237.732 134.825C237.345 135.598 237.345 136.501 237.732 137.274L244.435 149.004C244.821 149.777 245.724 150.293 246.626 150.293H260.161C261.063 150.293 261.836 149.777 262.352 149.004L269.055 137.274C269.442 136.501 269.442 135.598 269.055 134.825L262.352 123.095C261.965 122.321 261.063 121.806 260.161 121.806H246.626ZM246.755 128.637H249.075C249.204 128.637 249.333 128.637 249.333 128.766L253.329 135.727V135.856V135.727L257.325 128.766C257.325 128.637 257.454 128.637 257.583 128.637H259.903C260.161 128.637 260.29 128.895 260.161 129.024L256.294 135.856L260.161 142.688C260.29 142.817 260.161 143.203 259.903 143.203H257.583C257.454 143.203 257.325 143.203 257.325 143.075L253.329 136.114V135.985V136.114L249.333 143.075C249.333 143.203 249.204 143.203 249.075 143.203H246.755C246.497 143.203 246.368 142.946 246.497 142.688L250.364 135.856L246.497 129.024C246.368 129.024 246.497 128.766 246.755 128.637Z" fill="#93CB40"/>
<path d="M73.096 69.3009C72.6442 67.0416 71.891 65.0835 70.5354 63.276L73.9998 58.7573L72.6442 57.4017L71.2885 56.046L66.6192 59.5104C64.8117 58.3054 62.8536 57.4017 60.5943 57.1004L59.8411 51.3767H58.0337H56.2262L55.473 57.1004C53.2137 57.5523 51.2556 58.3054 49.4481 59.5104L44.7787 56.046L43.4231 57.4017L42.0675 58.7573L45.5319 63.276C44.3269 65.0835 43.4231 67.0416 42.9713 69.3009L37.2476 70.0541V71.8615V73.669L42.9713 74.4222C43.4231 76.6815 44.1763 78.6396 45.3812 80.4471L41.9169 84.9658L43.2725 86.3214L44.6281 87.6771L49.1468 84.2127C50.9543 85.4177 53.0631 86.3214 55.1718 86.7733L55.9249 92.3464H57.7324H59.5399L60.293 86.7733C62.5524 86.3214 64.6611 85.5683 66.318 84.2127L70.8367 87.6771L72.1923 86.3214L73.5479 84.9658L70.0836 80.4471C71.2885 78.6396 72.1923 76.6815 72.4935 74.4222L78.2172 73.669V71.8615V70.0541L73.096 69.3009Z" stroke="#212529" stroke-miterlimit="10"/>
<path d="M66.8724 72.0121C66.8724 76.8104 62.9827 80.7002 58.1844 80.7002C53.3861 80.7002 49.4963 76.8104 49.4963 72.0121C49.4963 67.2138 53.3861 63.324 58.1844 63.324C62.9827 63.324 66.8724 67.2138 66.8724 72.0121Z" stroke="black"/>
<path d="M242.979 190.442C242.806 188.892 242.462 187.342 241.773 186.136L244.529 183.208L243.668 182.175L242.806 181.141L239.362 183.208C238.156 182.175 236.95 181.486 235.4 180.969L235.228 177.008L234.022 176.835L232.816 176.663L231.783 180.625C230.233 180.797 228.683 181.141 227.477 181.83L224.549 179.074L223.515 179.936L222.482 180.797L224.549 184.242C223.515 185.447 222.826 186.653 222.31 188.203L218.348 188.375L218.176 189.581L218.004 190.787L221.793 191.82C221.965 193.37 222.31 194.921 222.999 196.299L220.243 199.227L221.104 200.26L221.965 201.294L225.41 199.227C226.616 200.26 227.994 200.949 229.372 201.466L229.544 205.427L230.749 205.6L231.955 205.772L232.989 201.983C234.539 201.81 236.089 201.466 237.467 200.777L240.395 203.533L241.428 202.671L242.462 201.81L240.395 198.365C241.428 197.16 242.117 195.782 242.634 194.404L246.596 194.232L246.768 193.026L246.94 191.82L242.979 190.442Z" stroke="#212529" stroke-miterlimit="10"/>
<path d="M238.345 191.131C238.345 194.375 235.715 197.004 232.472 197.004C229.228 197.004 226.599 194.375 226.599 191.131C226.599 187.888 229.228 185.258 232.472 185.258C235.715 185.258 238.345 187.888 238.345 191.131Z" stroke="black"/>
</svg>
