<svg width="261" height="347" viewBox="0 0 261 347" fill="none" xmlns="http://www.w3.org/2000/svg">
<path d="M244.916 79.0986C244.786 77.9337 244.528 76.7689 244.01 75.8629L246.081 73.6626L245.434 72.8861L244.786 72.1095L242.198 73.6626C241.292 72.8861 240.386 72.3684 239.221 71.9801L239.092 69.0032L238.186 68.8738L237.28 68.7444L236.503 71.7212C235.338 71.8506 234.173 72.1095 233.267 72.6272L231.067 70.5564L230.291 71.2035L229.514 71.8507L231.067 74.4392C230.291 75.3452 229.773 76.2512 229.385 77.416L226.408 77.5455L226.278 78.4514L226.149 79.3574L228.996 80.134C229.126 81.2989 229.385 82.4637 229.902 83.4991L227.831 85.6994L228.479 86.4759L229.126 87.2525L231.714 85.6994C232.62 86.476 233.656 86.9937 234.691 87.382L234.821 90.3588L235.727 90.4882L236.633 90.6176L237.409 87.7702C238.574 87.6408 239.739 87.3819 240.774 86.8642L242.975 88.9351L243.751 88.2879L244.528 87.6408L242.975 85.0523C243.751 84.1463 244.269 83.1108 244.657 82.0754L247.634 81.946L247.763 81.04L247.893 80.134L244.916 79.0986Z" stroke="#212529" stroke-miterlimit="10"/>
<path d="M236.891 84.2756C239.536 84.2756 241.68 82.1316 241.68 79.4868C241.68 76.842 239.536 74.698 236.891 74.698C234.246 74.698 232.102 76.842 232.102 79.4868C232.102 82.1316 234.246 84.2756 236.891 84.2756Z" stroke="#212529" stroke-miterlimit="10"/>
<path d="M235.079 49.4595C234.562 47.3887 233.656 45.4472 232.361 43.8941L235.468 39.3642L234.173 38.1993L232.879 37.0345L228.608 40.529C226.926 39.4936 224.855 38.717 222.784 38.4582L221.748 33.0222L219.936 33.1516L218.124 33.2811L217.607 38.8465C215.536 39.3642 213.594 40.2702 212.041 41.435L207.511 38.3287L206.347 39.623L205.182 40.9173L208.676 45.1884C207.641 46.871 206.864 48.9418 206.605 51.0126L201.169 52.0481L201.299 53.86L201.428 55.672L206.864 56.1897C207.382 58.2606 208.288 60.202 209.582 61.8845L206.476 66.4145L207.77 67.5794L209.065 68.7442L213.206 65.2497C215.018 66.4145 216.96 67.0617 219.16 67.3205L220.195 72.627L222.007 72.4976L223.819 72.3682L224.337 66.9322C226.408 66.4145 228.349 65.5085 230.032 64.2142L234.562 67.1911L235.727 65.8968L236.891 64.6025L233.397 60.4608C234.432 58.6489 235.209 56.7074 235.468 54.5072L240.774 53.4717L240.645 51.6598L240.515 49.8478L235.079 49.4595Z" stroke="#212529" stroke-miterlimit="10"/>
<path d="M220.842 61.4964C225.703 61.4964 229.643 57.5561 229.643 52.6954C229.643 47.8347 225.703 43.8943 220.842 43.8943C215.981 43.8943 212.041 47.8347 212.041 52.6954C212.041 57.5561 215.981 61.4964 220.842 61.4964Z" stroke="#212529" stroke-miterlimit="10"/>
<path d="M260.161 325.47H242.688V218.821C242.688 216.492 244.5 214.68 246.83 214.68H256.148C258.478 214.68 260.29 216.492 260.29 218.821V325.47H260.161Z" stroke="#212529" stroke-miterlimit="10" stroke-linecap="round" stroke-linejoin="round"/>
<path d="M251.361 345.531L242.56 325.47H260.162L251.361 345.531Z" stroke="#212529" stroke-miterlimit="10" stroke-linecap="round" stroke-linejoin="round"/>
<path d="M251.36 225.164V325.47" stroke="#212529" stroke-miterlimit="10" stroke-linecap="round" stroke-linejoin="round"/>
<path d="M242.56 225.163H260.162" stroke="#212529" stroke-miterlimit="10"/>
<path d="M246.572 334.659H256.279L251.361 345.531L246.572 334.659Z" fill="#212529"/>
<path d="M78.5438 228.788H70.3898C65.7304 228.788 61.9771 225.034 61.9771 220.375V150.096C61.9771 145.436 65.7304 141.683 70.3898 141.683H78.5438C83.2032 141.683 86.9566 145.436 86.9566 150.096V220.375C86.9566 225.034 83.2032 228.788 78.5438 228.788Z" stroke="#212529" stroke-miterlimit="10"/>
<path d="M61.9803 220.004H60.2801C52.5317 220.004 46.2842 213.757 46.2842 206.008V164.333C46.2842 156.584 52.5317 150.337 60.2801 150.337H61.9803V220.004Z" stroke="#212529"/>
<path d="M187.942 228.872H196.096C200.755 228.872 204.508 225.118 204.508 220.459V150.18C204.508 145.52 200.755 141.767 196.096 141.767H187.942C183.282 141.767 179.529 145.52 179.529 150.18V220.459C179.529 225.118 183.282 228.872 187.942 228.872Z" stroke="#212529" stroke-miterlimit="10"/>
<path d="M206.287 220.004H204.587V150.337H206.287C214.036 150.337 220.283 156.584 220.283 164.333V206.008C220.283 213.757 214.036 220.004 206.287 220.004Z" stroke="#212529"/>
<path d="M125.686 278.747H95.4001C76.892 278.747 62.0078 263.733 62.0078 245.355V132.494C62.0078 113.986 77.0214 99.1016 95.4001 99.1016H111.967H171.245C189.753 99.1016 204.637 114.115 204.637 132.494V182.065" stroke="#212529" stroke-miterlimit="10"/>
<path d="M133.582 278.747H114.556C111.838 278.747 109.638 276.546 109.638 273.828V272.405C109.638 269.687 111.838 267.486 114.556 267.486H133.711C136.429 267.486 138.629 269.687 138.629 272.405V273.828C138.5 276.546 136.3 278.747 133.582 278.747Z" stroke="#212529" stroke-miterlimit="10"/>
<path d="M117.662 156.905H107.049V167.518H117.662V156.905Z" fill="#93CB40"/>
<path d="M139.147 156.905H128.534V167.518H139.147V156.905Z" fill="#93CB40"/>
<path d="M160.632 156.905H150.019V167.518H160.632V156.905Z" fill="#93CB40"/>
<path d="M5.57812 12.9027L12.3084 19.8918L19.0386 12.9027L15.1558 0.995361H12.3084H9.46095L5.57812 12.9027Z" stroke="#212529" stroke-miterlimit="10"/>
<path d="M12.3086 70.1708V19.8916" stroke="#212529" stroke-miterlimit="10"/>
<path d="M5.28223 70.2843V73.7788H19.3898V70.2843H5.28223Z" stroke="#212529" stroke-miterlimit="10"/>
<path d="M0.778809 73.8762L0.778809 77.1177H23.8169V73.8762H0.778809Z" stroke="#212529" stroke-miterlimit="10"/>
<path d="M23.8272 77.0986V127.187C23.8272 130.682 20.9798 133.4 17.6146 133.4H7.00158C3.50704 133.4 0.789062 130.552 0.789062 127.187V77.0986H23.8272Z" stroke="#212529" stroke-miterlimit="10"/>
<path d="M5.18994 77.0986V116.962" stroke="#212529" stroke-miterlimit="10" stroke-linecap="round"/>
<path d="M19.4268 77.0986V116.962" stroke="#212529" stroke-miterlimit="10" stroke-linecap="round"/>
<path d="M12.5669 77.0986V116.962" stroke="#212529" stroke-miterlimit="10" stroke-linecap="round"/>
<path d="M12.5669 139.353V166.533C12.5669 178.699 22.4034 188.536 34.5696 188.536H41.2998" stroke="#212529" stroke-miterlimit="10"/>
<path d="M227.546 185.3H229.229C241.395 185.3 251.232 195.136 251.232 207.302V208.597" stroke="#212529" stroke-miterlimit="10"/>
<path d="M160.043 241.24L150.595 231.792" stroke="#212529" stroke-miterlimit="10" stroke-linecap="round" stroke-linejoin="round"/>
<path d="M141.017 240.463L133.899 215.225L159.396 222.602L141.017 240.463Z" stroke="#212529" stroke-miterlimit="10" stroke-linecap="round" stroke-linejoin="round"/>
<path d="M136.488 200.211H133.511V207.847H136.488V200.211Z" fill="#212529"/>
<path d="M124.167 204.12L122.062 206.225L127.462 211.625L129.567 209.52L124.167 204.12Z" fill="#212529"/>
<path d="M118.085 215.651L118.085 218.627L125.721 218.627L125.721 215.651L118.085 215.651Z" fill="#212529"/>
<path d="M122.009 227.972L124.114 230.077L129.513 224.677L127.408 222.572L122.009 227.972Z" fill="#212529"/>
<path d="M140.493 209.474L142.598 211.579L147.997 206.18L145.892 204.075L140.493 209.474Z" fill="#212529"/>
</svg>
