<svg width="356" height="375" viewBox="0 0 356 375" fill="none" xmlns="http://www.w3.org/2000/svg">
<path d="M355.577 24.8604H335.748V265.505H355.577V24.8604Z" fill="#212529"/>
<path d="M210.826 92.4789V145.092V197.704L335.748 255.922V145.092V34.4421L210.826 92.4789Z" stroke="#212529" stroke-miterlimit="10"/>
<path d="M210.826 87.5979H86.2644V202.406H210.826V87.5979Z" stroke="#212529" stroke-miterlimit="10"/>
<path d="M86.2642 105.859H63.5511C55.0787 105.859 48.2288 112.729 48.2288 121.227V168.958C48.2288 177.455 55.0787 184.326 63.5511 184.326H86.2642V105.859V105.859Z" stroke="#212529" stroke-miterlimit="10"/>
<path d="M172.249 202.586V293.348H143.948L115.467 264.782V202.586" stroke="#212529" stroke-miterlimit="10"/>
<path d="M105.913 240.193H98.8822C97.6203 240.193 96.719 239.289 96.719 238.024V225.006C96.719 223.74 97.6203 222.836 98.8822 222.836H105.913V240.193Z" fill="#93CB40"/>
<path d="M115.467 217.774H105.913V245.618H115.467V217.774Z" stroke="#212529" stroke-miterlimit="10"/>
<path d="M86.2643 124.866H62.2888" stroke="#212529" stroke-miterlimit="10" stroke-linecap="round"/>
<path d="M86.2643 145.093H62.2888" stroke="#212529" stroke-miterlimit="10" stroke-linecap="round"/>
<path d="M86.2643 165.319H62.2888" stroke="#212529" stroke-miterlimit="10" stroke-linecap="round"/>
<path d="M222.723 258.454C231.086 258.454 237.865 251.655 237.865 243.267C237.865 234.879 231.086 228.079 222.723 228.079C214.36 228.079 207.581 234.879 207.581 243.267C207.581 251.655 214.36 258.454 222.723 258.454Z" stroke="#212529" stroke-miterlimit="10"/>
<path d="M243.634 262.974L234.26 253.572" stroke="#212529" stroke-miterlimit="10" stroke-linecap="round"/>
<path d="M236.423 292.806L243.814 290.817L245.797 297.868" stroke="#212529" stroke-miterlimit="10" stroke-linecap="round" stroke-linejoin="round"/>
<path d="M64.4521 373.623L105.372 346.684L143.407 358.255L187.752 315.044L225.787 321.914L243.633 290.997" stroke="#212529" stroke-miterlimit="10" stroke-linecap="round"/>
<path d="M225.608 326.977C228.594 326.977 231.016 324.548 231.016 321.553C231.016 318.557 228.594 316.128 225.608 316.128C222.621 316.128 220.2 318.557 220.2 321.553C220.2 324.548 222.621 326.977 225.608 326.977Z" fill="white" stroke="#212529" stroke-miterlimit="10" stroke-linecap="round"/>
<path d="M187.752 320.287C190.739 320.287 193.161 317.859 193.161 314.863C193.161 311.867 190.739 309.439 187.752 309.439C184.766 309.439 182.344 311.867 182.344 314.863C182.344 317.859 184.766 320.287 187.752 320.287Z" fill="white" stroke="#212529" stroke-miterlimit="10" stroke-linecap="round"/>
<path d="M143.407 362.775C146.394 362.775 148.815 360.347 148.815 357.351C148.815 354.355 146.394 351.927 143.407 351.927C140.42 351.927 137.999 354.355 137.999 357.351C137.999 360.347 140.42 362.775 143.407 362.775Z" fill="white" stroke="#212529" stroke-miterlimit="10" stroke-linecap="round"/>
<path d="M105.192 352.108C108.179 352.108 110.6 349.68 110.6 346.684C110.6 343.688 108.179 341.26 105.192 341.26C102.205 341.26 99.7839 343.688 99.7839 346.684C99.7839 349.68 102.205 352.108 105.192 352.108Z" fill="white" stroke="#212529" stroke-miterlimit="10" stroke-linecap="round"/>
<path d="M29.3013 245.617C44.9316 245.617 57.6025 232.908 57.6025 217.232C57.6025 201.555 44.9316 188.846 29.3013 188.846C13.6709 188.846 1 201.555 1 217.232C1 232.908 13.6709 245.617 29.3013 245.617Z" stroke="#212529" stroke-miterlimit="10" stroke-linecap="round"/>
<path d="M23.7133 207.649C22.812 207.287 21.9106 207.83 21.9106 208.734V217.051V225.368C21.9106 226.272 22.9922 226.995 23.7133 226.453L40.4782 218.136C41.3795 217.593 41.3795 216.327 40.4782 215.785L23.7133 207.649Z" fill="#93CB40"/>
<path d="M60.3212 20.864H4.98047V32.616H60.3212V20.864Z" fill="#93CB40"/>
<path d="M60.862 20.864H4.98047V54.4928H60.862V20.864Z" stroke="#212529" stroke-miterlimit="10"/>
<path d="M41.9354 20.8642H23.5481V16.3441C23.5481 14.536 24.9902 13.0896 26.7929 13.0896H38.8708C40.6735 13.0896 42.1156 14.536 42.1156 16.3441V20.8642H41.9354Z" stroke="#212529" stroke-miterlimit="10"/>
<path d="M4.98047 32.6162H60.6817" stroke="#212529" stroke-miterlimit="10"/>
<path d="M32.7415 37.6785V29.1807" stroke="#212529" stroke-miterlimit="10"/>
<path d="M60.3212 20.864H4.98047V32.616H60.3212V20.864Z" stroke="#212529" stroke-miterlimit="10"/>
<path d="M118.171 32.8152H108.437V80.7272H118.171V32.8152Z" stroke="#212529" stroke-miterlimit="10"/>
<path d="M134.034 19.9785H124.3V80.7273H134.034V19.9785Z" stroke="#212529" stroke-miterlimit="10"/>
<path d="M149.897 26.4875H140.162V80.5467H149.897V26.4875Z" stroke="#212529" stroke-miterlimit="10"/>
<path d="M165.76 0.452148H156.026V80.5465H165.76V0.452148Z" fill="#93CB40"/>
<path d="M181.804 15.4587H172.069V80.5467H181.804V15.4587Z" stroke="#212529" stroke-miterlimit="10"/>
</svg>
