<svg width="317" height="288" viewBox="0 0 317 288" fill="none" xmlns="http://www.w3.org/2000/svg">
<path d="M301.248 62.4055H316.162V216.029H301.248V62.4055Z" stroke="#212529"/>
<path d="M200.844 105.353V139.159V172.965L301.104 210.372V139.159V68.0623L200.844 105.353Z" stroke="#212529" stroke-miterlimit="10"/>
<path d="M200.826 81.6326H76.2644V196.441H200.826V81.6326Z" stroke="#212529" stroke-miterlimit="10"/>
<path d="M76.2642 99.8933H53.5511C45.0787 99.8933 38.2288 106.764 38.2288 115.261V162.992C38.2288 171.49 45.0787 178.36 53.5511 178.36H76.2642V99.8933V99.8933Z" stroke="#212529" stroke-miterlimit="10"/>
<path d="M140.394 196.621V287.383H119.339L98.1494 258.816V196.621" stroke="#212529" stroke-miterlimit="10"/>
<path d="M88.5955 234.228H81.5651C80.3032 234.228 79.4019 233.324 79.4019 232.058V219.04C79.4019 217.775 80.3032 216.871 81.5651 216.871H88.5955V234.228Z" fill="#93CB40"/>
<path d="M98.1496 211.809H88.5955V239.652H98.1496V211.809Z" stroke="#212529" stroke-miterlimit="10"/>
<path d="M76.2646 118.901H52.2891" stroke="#212529" stroke-miterlimit="10" stroke-linecap="round"/>
<path d="M76.2646 139.127H52.2891" stroke="#212529" stroke-miterlimit="10" stroke-linecap="round"/>
<path d="M76.2646 159.354H52.2891" stroke="#212529" stroke-miterlimit="10" stroke-linecap="round"/>
<path d="M16.1424 55.4088C24.5054 55.4088 31.2849 48.6091 31.2849 40.2212C31.2849 31.8334 24.5054 25.0337 16.1424 25.0337C7.7795 25.0337 1 31.8334 1 40.2212C1 48.6091 7.7795 55.4088 16.1424 55.4088Z" stroke="#212529" stroke-miterlimit="10"/>
<path d="M37.0531 59.9282L27.6792 50.5264" stroke="#212529" stroke-miterlimit="10" stroke-linecap="round"/>
<path d="M22.3013 247.663C34.0831 247.663 43.6342 238.083 43.6342 226.267C43.6342 214.45 34.0831 204.87 22.3013 204.87C10.5195 204.87 0.968506 214.45 0.968506 226.267C0.968506 238.083 10.5195 247.663 22.3013 247.663Z" stroke="#212529" stroke-miterlimit="10" stroke-linecap="round"/>
<path d="M18.0893 219.043C17.4099 218.771 16.7305 219.179 16.7305 219.861V226.13V232.399C16.7305 233.081 17.5458 233.626 18.0893 233.217L30.7262 226.948C31.4056 226.539 31.4056 225.585 30.7262 225.176L18.0893 219.043Z" fill="#93CB40"/>
<path d="M251.341 251.005H196V262.757H251.341V251.005Z" fill="#93CB40"/>
<path d="M251.881 251.005H196V284.633H251.881V251.005Z" stroke="#212529" stroke-miterlimit="10"/>
<path d="M232.955 251.005H214.568V246.485C214.568 244.677 216.01 243.23 217.812 243.23H229.89C231.693 243.23 233.135 244.677 233.135 246.485V251.005H232.955Z" stroke="#212529" stroke-miterlimit="10"/>
<path d="M196 262.757H251.701" stroke="#212529" stroke-miterlimit="10"/>
<path d="M223.761 267.819V259.321" stroke="#212529" stroke-miterlimit="10"/>
<path d="M251.341 251.005H196V262.757H251.341V251.005Z" stroke="#212529" stroke-miterlimit="10"/>
<path d="M147.504 36.6421H140.085V61.3114H147.504V36.6421Z" stroke="#212529" stroke-miterlimit="10"/>
<path d="M159.594 15.0134H152.175V61.3115H159.594V15.0134Z" stroke="#212529" stroke-miterlimit="10"/>
<path d="M171.683 25.4888H164.264V61.174H171.683V25.4888Z" stroke="#212529" stroke-miterlimit="10"/>
<path d="M183.773 0.13208H176.354V61.1739H183.773V0.13208Z" fill="#93CB40"/>
<path d="M196 11.5688H188.582V61.1739H196V11.5688Z" stroke="#212529" stroke-miterlimit="10"/>
</svg>
