<svg width="342" height="319" viewBox="0 0 342 319" fill="none" xmlns="http://www.w3.org/2000/svg">
<path d="M299.35 5.41357L309.005 15.0288" stroke="#212529" stroke-miterlimit="10" stroke-linecap="round"/>
<path d="M309.005 5.41357L299.35 15.0288" stroke="#212529" stroke-miterlimit="10" stroke-linecap="round"/>
<path d="M18.5814 229.228H0.882324V0.680176H315.392V43.5791" stroke="#212529" stroke-miterlimit="10" stroke-linecap="round"/>
<path d="M66.579 36.9224L60.6372 42.8395L66.579 48.7565" stroke="#212529" stroke-miterlimit="10" stroke-linecap="round" stroke-linejoin="round"/>
<path d="M88.7124 48.7563H156.003" stroke="#212529" stroke-miterlimit="10" stroke-linecap="round"/>
<path d="M87.0779 36.9224L75.1943 48.7565" stroke="#212529" stroke-miterlimit="10" stroke-linecap="round"/>
<path d="M37.5084 48.7563H15.9146V104.525" stroke="#212529" stroke-miterlimit="10" stroke-linecap="round"/>
<path d="M1.24951 19.7573L315.392 20.2063" stroke="#212529" stroke-miterlimit="10" stroke-linecap="round"/>
<path d="M291.773 15.0293H280.038" stroke="#212529" stroke-miterlimit="10" stroke-linecap="round"/>
<path d="M321.723 55.3887C326.002 57.3173 332.31 59.6586 340.503 61.3625C340.531 61.553 340.566 61.8248 340.602 62.1726C340.678 62.9248 340.755 64.032 340.753 65.4395C340.748 68.2547 340.428 72.27 339.159 77.0492C336.641 86.5345 330.381 99.0559 315.392 111.187C300.403 99.0559 294.143 86.5345 291.625 77.0492C290.357 72.27 290.036 68.2547 290.031 65.4395C290.029 64.032 290.106 62.9248 290.182 62.1726C290.218 61.8263 290.253 61.5553 290.281 61.3649C298.402 59.7319 304.71 57.3905 309.007 55.4438C311.185 54.4569 312.847 53.5713 313.967 52.9307C314.527 52.6104 314.951 52.3514 315.237 52.1716C315.295 52.1352 315.347 52.102 315.393 52.0723C315.438 52.1006 315.488 52.1321 315.543 52.1664C315.825 52.3425 316.244 52.5963 316.798 52.9108C317.906 53.5397 319.554 54.4112 321.723 55.3887Z" stroke="#212529"/>
<path d="M319.849 89.6405H310.787C308.856 89.6405 307.222 88.0133 307.222 86.0902V79.1377C307.222 77.2146 308.856 75.5874 310.787 75.5874H319.849C321.78 75.5874 323.414 77.2146 323.414 79.1377V86.0902C323.414 88.0133 321.928 89.6405 319.849 89.6405Z" stroke="#212529" stroke-miterlimit="10" stroke-linecap="round"/>
<path d="M311.233 75.5872V72.037C311.233 69.8181 313.015 67.895 315.392 67.895C317.62 67.895 319.551 69.6701 319.551 72.037V75.5872" stroke="#212529" stroke-miterlimit="10" stroke-linecap="round"/>
<path d="M315.392 85.2027C317.033 85.2027 318.363 83.8781 318.363 82.2442C318.363 80.6102 317.033 79.2856 315.392 79.2856C313.751 79.2856 312.421 80.6102 312.421 82.2442C312.421 83.8781 313.751 85.2027 315.392 85.2027Z" fill="#212529"/>
<path d="M315.541 86.6823H315.095C314.65 86.6823 314.204 86.2385 314.204 85.7947V84.6113H316.432V85.7947C316.432 86.2385 316.135 86.6823 315.541 86.6823Z" fill="#212529"/>
<path d="M118.421 134.811H197.745" stroke="#212529" stroke-miterlimit="10" stroke-linecap="round" stroke-linejoin="round"/>
<path d="M118.421 121.579H197.745" stroke="#212529" stroke-miterlimit="10" stroke-linecap="round" stroke-linejoin="round"/>
<path d="M182.593 134.844H132.087V310.983H182.593V134.844Z" stroke="#212529" stroke-miterlimit="10" stroke-linecap="round" stroke-linejoin="round"/>
<path d="M268.898 104.823H45.7828C43.5546 104.823 41.6235 102.9 41.6235 100.681C41.6235 98.4621 43.5546 96.5391 45.7828 96.5391H269.046C271.275 96.5391 273.206 98.4621 273.206 100.681C273.057 102.9 271.275 104.823 268.898 104.823Z" stroke="#212529" stroke-miterlimit="10" stroke-linecap="round" stroke-linejoin="round"/>
<path d="M157.34 110.592C162.837 110.592 167.293 106.155 167.293 100.681C167.293 95.2074 162.837 90.77 157.34 90.77C151.844 90.77 147.388 95.2074 147.388 100.681C147.388 106.155 151.844 110.592 157.34 110.592Z" fill="#93CB40" stroke="#212529" stroke-miterlimit="10"/>
<path d="M250.033 96.5391V133.817" stroke="#212529" stroke-miterlimit="10" stroke-linecap="round" stroke-linejoin="round"/>
<path d="M278.256 190.177H221.809L250.032 133.817L278.256 190.177Z" stroke="#212529" stroke-miterlimit="10" stroke-linecap="round" stroke-linejoin="round"/>
<path d="M284.94 205.413C262.361 212.958 237.851 212.958 215.124 205.413V190.177H284.94V205.413Z" fill="#93CB40" stroke="#212529" stroke-miterlimit="10"/>
<path d="M250.032 137.071C251.837 137.071 253.3 135.614 253.3 133.816C253.3 132.019 251.837 130.562 250.032 130.562C248.227 130.562 246.764 132.019 246.764 133.816C246.764 135.614 248.227 137.071 250.032 137.071Z" fill="#212529"/>
<path d="M61.2314 96.5391V133.817" stroke="#212529" stroke-miterlimit="10" stroke-linecap="round" stroke-linejoin="round"/>
<path d="M89.4551 190.177H32.8594L61.2315 133.817L89.4551 190.177Z" stroke="#212529" stroke-miterlimit="10" stroke-linecap="round" stroke-linejoin="round"/>
<path d="M96.1395 205.413C73.5606 212.958 49.0507 212.958 26.3232 205.413V190.177H96.1395V205.413Z" fill="#93CB40" stroke="#212529" stroke-miterlimit="10"/>
<path d="M61.2314 137.071C63.0362 137.071 64.4994 135.614 64.4994 133.816C64.4994 132.019 63.0362 130.562 61.2314 130.562C59.4265 130.562 57.9634 132.019 57.9634 133.816C57.9634 135.614 59.4265 137.071 61.2314 137.071Z" fill="#212529"/>
<path d="M157.428 295.403C165.235 295.403 171.565 289.1 171.565 281.325C171.565 273.55 165.235 267.247 157.428 267.247C149.621 267.247 143.292 273.55 143.292 281.325C143.292 289.1 149.621 295.403 157.428 295.403Z" stroke="#212529" stroke-miterlimit="10" stroke-linecap="round" stroke-linejoin="round"/>
<path d="M157.428 272.387C158.999 272.387 160.345 272.722 161.467 273.392C162.365 273.951 163.038 274.621 163.599 275.515C163.823 275.85 163.711 276.409 163.374 276.632C163.038 276.856 162.477 276.744 162.252 276.409C161.916 275.962 161.579 275.627 161.243 275.292C160.682 274.845 160.009 274.51 159.335 274.286C158.662 274.063 157.989 273.951 157.316 273.951C156.531 273.951 155.745 274.063 154.96 274.398C154.287 274.733 153.613 275.068 153.052 275.515C152.491 275.962 152.043 276.521 151.706 277.191C151.37 277.861 151.033 278.532 150.921 279.202C150.696 279.872 150.696 280.655 150.696 281.325C150.696 282.666 151.033 283.895 151.594 285.012C152.155 286.129 152.94 287.023 154.062 287.805C155.072 288.476 156.194 288.811 157.428 288.811C158.101 288.811 158.774 288.699 159.448 288.476C160.121 288.252 160.794 287.917 161.355 287.358C161.804 287.023 162.14 286.576 162.477 286.129C162.701 285.794 163.15 285.682 163.599 285.794C164.048 286.018 164.16 286.576 163.935 286.911C163.599 287.47 163.15 287.917 162.589 288.364C161.804 289.034 160.906 289.481 160.009 289.816C159.111 290.151 158.213 290.263 157.204 290.263C156.306 290.263 155.296 290.04 154.511 289.705C153.613 289.369 152.828 288.922 152.155 288.252C151.482 287.693 150.921 287.023 150.36 286.241C149.911 285.459 149.462 284.677 149.238 283.783C149.013 282.889 148.789 281.995 148.789 281.102C148.789 279.984 149.013 278.979 149.35 277.861C149.687 276.856 150.248 275.85 150.921 275.068C151.594 274.174 152.491 273.504 153.613 273.057C154.96 272.61 156.082 272.387 157.428 272.387Z" fill="#212529"/>
<path d="M115.321 311.083H199.358V318.219H115.321V311.083Z" stroke="#212529"/>
</svg>
