<svg width="344" height="344" viewBox="0 0 344 344" fill="none" xmlns="http://www.w3.org/2000/svg">
<path d="M223.514 93.0854H85.1616V110.767H223.514V93.0854Z" stroke="#212529" stroke-miterlimit="10"/>
<path d="M223.514 317.505H85.1616V343.348H223.514V317.505Z" stroke="#212529" stroke-miterlimit="10"/>
<path d="M85.1616 110.767V325.666" stroke="#212529" stroke-miterlimit="10"/>
<path d="M119.072 131.169H104.151V170.612" stroke="#212529" stroke-miterlimit="10" stroke-linecap="round"/>
<path d="M208.587 97.1658L217.404 106.007" stroke="#212529" stroke-miterlimit="10" stroke-linecap="round"/>
<path d="M217.404 97.1658L208.587 106.007" stroke="#212529" stroke-miterlimit="10" stroke-linecap="round"/>
<path d="M290.249 4.94958L299.065 13.7904" stroke="#212529" stroke-miterlimit="10" stroke-linecap="round"/>
<path d="M299.065 4.94958L290.249 13.7904" stroke="#212529" stroke-miterlimit="10" stroke-linecap="round"/>
<path d="M154.338 337.907C158.084 337.907 161.12 334.862 161.12 331.106C161.12 327.351 158.084 324.306 154.338 324.306C150.593 324.306 147.556 327.351 147.556 331.106C147.556 334.862 150.593 337.907 154.338 337.907Z" fill="#212529"/>
<path d="M168.58 210.056V233.858H304.22V88.325" stroke="#212529" stroke-miterlimit="10" stroke-linecap="round"/>
<path d="M18.2918 210.736H1.20117V0.597168H304.898V18.6488" stroke="#212529" stroke-miterlimit="10" stroke-linecap="round"/>
<path d="M105.781 280.238C106.755 280.238 107.545 279.446 107.545 278.47C107.545 277.493 106.755 276.702 105.781 276.702C104.808 276.702 104.018 277.493 104.018 278.47C104.018 279.446 104.808 280.238 105.781 280.238Z" fill="#212529"/>
<path d="M117.987 280.238C118.961 280.238 119.75 279.447 119.75 278.47C119.75 277.493 118.961 276.702 117.987 276.702C117.013 276.702 116.224 277.493 116.224 278.47C116.224 279.447 117.013 280.238 117.987 280.238Z" fill="#212529"/>
<path d="M130.194 280.238C131.168 280.238 131.957 279.447 131.957 278.47C131.957 277.493 131.168 276.702 130.194 276.702C129.22 276.702 128.431 277.493 128.431 278.47C128.431 279.447 129.22 280.238 130.194 280.238Z" fill="#212529"/>
<path d="M105.779 289.759C106.753 289.759 107.543 288.967 107.543 287.991C107.543 287.014 106.753 286.223 105.779 286.223C104.806 286.223 104.016 287.014 104.016 287.991C104.016 288.967 104.806 289.759 105.779 289.759Z" fill="#212529"/>
<path d="M117.987 289.759C118.961 289.759 119.75 288.967 119.75 287.991C119.75 287.014 118.961 286.223 117.987 286.223C117.013 286.223 116.224 287.014 116.224 287.991C116.224 288.967 117.013 289.759 117.987 289.759Z" fill="#212529"/>
<path d="M130.194 289.759C131.168 289.759 131.957 288.967 131.957 287.991C131.957 287.014 131.168 286.223 130.194 286.223C129.22 286.223 128.431 287.014 128.431 287.991C128.431 288.967 129.22 289.759 130.194 289.759Z" fill="#212529"/>
<path d="M105.779 299.28C106.753 299.28 107.543 298.488 107.543 297.512C107.543 296.535 106.753 295.744 105.779 295.744C104.806 295.744 104.016 296.535 104.016 297.512C104.016 298.488 104.806 299.28 105.779 299.28Z" fill="#212529"/>
<path d="M117.987 299.28C118.961 299.28 119.75 298.488 119.75 297.512C119.75 296.535 118.961 295.744 117.987 295.744C117.013 295.744 116.224 296.535 116.224 297.512C116.224 298.488 117.013 299.28 117.987 299.28Z" fill="#212529"/>
<path d="M130.194 299.28C131.168 299.28 131.957 298.488 131.957 297.512C131.957 296.535 131.168 295.744 130.194 295.744C129.22 295.744 128.431 296.535 128.431 297.512C128.431 298.488 129.22 299.28 130.194 299.28Z" fill="#212529"/>
<path d="M19.6491 163.949C20.6229 163.949 21.4124 163.157 21.4124 162.18C21.4124 161.204 20.6229 160.412 19.6491 160.412C18.6752 160.412 17.8857 161.204 17.8857 162.18C17.8857 163.157 18.6752 163.949 19.6491 163.949Z" fill="#212529"/>
<path d="M31.8561 163.948C32.8299 163.948 33.6194 163.156 33.6194 162.18C33.6194 161.203 32.8299 160.411 31.8561 160.411C30.8822 160.411 30.0928 161.203 30.0928 162.18C30.0928 163.156 30.8822 163.948 31.8561 163.948Z" fill="#212529"/>
<path d="M44.0636 163.948C45.0375 163.948 45.8269 163.156 45.8269 162.18C45.8269 161.203 45.0375 160.411 44.0636 160.411C43.0898 160.411 42.3003 161.203 42.3003 162.18C42.3003 163.156 43.0898 163.948 44.0636 163.948Z" fill="#212529"/>
<path d="M19.6481 173.468C20.6219 173.468 21.4114 172.677 21.4114 171.7C21.4114 170.724 20.6219 169.932 19.6481 169.932C18.6742 169.932 17.8848 170.724 17.8848 171.7C17.8848 172.677 18.6742 173.468 19.6481 173.468Z" fill="#212529"/>
<path d="M31.8561 173.468C32.8299 173.468 33.6194 172.677 33.6194 171.7C33.6194 170.724 32.8299 169.932 31.8561 169.932C30.8822 169.932 30.0928 170.724 30.0928 171.7C30.0928 172.677 30.8822 173.468 31.8561 173.468Z" fill="#212529"/>
<path d="M44.0636 173.468C45.0375 173.468 45.8269 172.677 45.8269 171.7C45.8269 170.724 45.0375 169.932 44.0636 169.932C43.0898 169.932 42.3003 170.724 42.3003 171.7C42.3003 172.677 43.0898 173.468 44.0636 173.468Z" fill="#212529"/>
<path d="M19.6481 182.989C20.6219 182.989 21.4114 182.198 21.4114 181.221C21.4114 180.245 20.6219 179.453 19.6481 179.453C18.6742 179.453 17.8848 180.245 17.8848 181.221C17.8848 182.198 18.6742 182.989 19.6481 182.989Z" fill="#212529"/>
<path d="M31.8561 182.989C32.8299 182.989 33.6194 182.198 33.6194 181.221C33.6194 180.245 32.8299 179.453 31.8561 179.453C30.8822 179.453 30.0928 180.245 30.0928 181.221C30.0928 182.198 30.8822 182.989 31.8561 182.989Z" fill="#212529"/>
<path d="M44.0636 182.989C45.0375 182.989 45.8269 182.198 45.8269 181.221C45.8269 180.245 45.0375 179.453 44.0636 179.453C43.0898 179.453 42.3003 180.245 42.3003 181.221C42.3003 182.198 43.0898 182.989 44.0636 182.989Z" fill="#212529"/>
<path d="M223.514 317.505V234.538" stroke="#212529" stroke-miterlimit="10" stroke-linecap="round"/>
<path d="M168.449 212.108C170.349 212.108 171.89 210.563 171.89 208.658C171.89 206.752 170.349 205.207 168.449 205.207C166.548 205.207 165.008 206.752 165.008 208.658C165.008 210.563 166.548 212.108 168.449 212.108Z" fill="#212529"/>
<path d="M223.471 237.146C225.372 237.146 226.912 235.601 226.912 233.695C226.912 231.79 225.372 230.245 223.471 230.245C221.571 230.245 220.03 231.79 220.03 233.695C220.03 235.601 221.571 237.146 223.471 237.146Z" fill="#212529"/>
<path d="M18.3068 214.108C20.2073 214.108 21.7479 212.563 21.7479 210.657C21.7479 208.752 20.2073 207.207 18.3068 207.207C16.4064 207.207 14.8657 208.752 14.8657 210.657C14.8657 212.563 16.4064 214.108 18.3068 214.108Z" fill="#212529"/>
<path d="M324.636 35.2072H285.162C282.952 35.2072 281.162 36.998 281.162 39.2072V66.5703C281.162 68.7795 282.952 70.5703 285.162 70.5703H324.636C326.845 70.5703 328.636 68.7794 328.636 66.5703V39.2072C328.636 36.998 326.845 35.2072 324.636 35.2072Z" fill="#93CB40"/>
<path d="M130.264 194.414H40.0605C37.8514 194.414 36.0605 196.205 36.0605 198.414V221.697C36.0605 223.906 37.8514 225.697 40.0605 225.697H130.264C132.473 225.697 134.264 223.906 134.264 221.697V198.414C134.264 196.205 132.473 194.414 130.264 194.414Z" fill="#93CB40"/>
<path d="M297.438 48.1284L292.012 53.5688L297.438 59.0093" stroke="white" stroke-miterlimit="10" stroke-linecap="round" stroke-linejoin="round"/>
<path d="M185.264 140.044L179.838 145.485L185.264 150.925" stroke="#212529" stroke-miterlimit="10" stroke-linecap="round" stroke-linejoin="round"/>
<path d="M312.358 48.1284L317.784 53.5688L312.358 59.0093" stroke="white" stroke-miterlimit="10" stroke-linecap="round" stroke-linejoin="round"/>
<path d="M68.8843 204.207V215.768" stroke="white" stroke-miterlimit="10" stroke-linecap="round"/>
<path d="M79.7354 204.207V215.768" stroke="white" stroke-miterlimit="10" stroke-linecap="round"/>
<path d="M52.6077 215.904C55.6042 215.904 58.0333 213.286 58.0333 210.056C58.0333 206.826 55.6042 204.207 52.6077 204.207C49.6112 204.207 47.1821 206.826 47.1821 210.056C47.1821 213.286 49.6112 215.904 52.6077 215.904Z" stroke="white" stroke-miterlimit="10" stroke-linecap="round"/>
<path d="M112.29 204.207V215.768" stroke="white" stroke-miterlimit="10" stroke-linecap="round"/>
<path d="M123.141 204.207V215.768" stroke="white" stroke-miterlimit="10" stroke-linecap="round"/>
<path d="M96.0125 215.904C99.009 215.904 101.438 213.286 101.438 210.056C101.438 206.826 99.009 204.207 96.0125 204.207C93.016 204.207 90.5869 206.826 90.5869 210.056C90.5869 213.286 93.016 215.904 96.0125 215.904Z" stroke="white" stroke-miterlimit="10" stroke-linecap="round"/>
<path d="M168.58 171.871H254.711" stroke="#212529" stroke-miterlimit="10" stroke-linecap="round"/>
<path d="M205.474 150.925H266.919" stroke="#212529" stroke-miterlimit="10" stroke-linecap="round"/>
<path d="M203.982 140.044L193.13 150.925" stroke="#212529" stroke-miterlimit="10" stroke-linecap="round"/>
<path d="M101.709 39.9046L96.2837 45.3451L101.709 50.7856" stroke="#212529" stroke-miterlimit="10" stroke-linecap="round" stroke-linejoin="round"/>
<path d="M85.0264 71.7315H171.158" stroke="#212529" stroke-miterlimit="10" stroke-linecap="round"/>
<path d="M122.056 50.7857H183.365" stroke="#212529" stroke-miterlimit="10" stroke-linecap="round"/>
<path d="M120.564 39.9046L109.713 50.7856" stroke="#212529" stroke-miterlimit="10" stroke-linecap="round"/>
<path d="M43.3845 44.8011H17.8843V96.0777" stroke="#212529" stroke-miterlimit="10" stroke-linecap="round"/>
<path d="M343.226 249.955H237.155V307.761H343.226V249.955Z" stroke="#212529" stroke-miterlimit="10" stroke-linecap="round"/>
<path d="M258.858 255.532H243.259V271.173H258.858V255.532Z" stroke="#212529" stroke-miterlimit="10" stroke-linecap="round"/>
<path d="M274.456 255.532H258.857V271.173H274.456V255.532Z" stroke="#212529" stroke-miterlimit="10" stroke-linecap="round"/>
<path d="M290.19 255.532H274.592V271.173H290.19V255.532Z" stroke="#212529" stroke-miterlimit="10" stroke-linecap="round"/>
<path d="M305.789 255.532H290.191V271.173H305.789V255.532Z" stroke="#212529" stroke-miterlimit="10" stroke-linecap="round"/>
<path d="M321.389 255.532H305.79V271.173H321.389V255.532Z" stroke="#212529" stroke-miterlimit="10" stroke-linecap="round"/>
<path d="M336.986 255.532H321.388V271.173H336.986V255.532Z" stroke="#212529" stroke-miterlimit="10" stroke-linecap="round"/>
<path d="M258.858 271.173H243.259V286.815H258.858V271.173Z" stroke="#212529" stroke-miterlimit="10" stroke-linecap="round"/>
<path d="M258.858 286.74H243.259V302.381H258.858V286.74Z" fill="#93CB40" stroke="#212529" stroke-miterlimit="10" stroke-linecap="round"/>
<path d="M274.456 271.173H258.857V286.815H274.456V271.173Z" stroke="#212529" stroke-miterlimit="10" stroke-linecap="round"/>
<path d="M274.456 286.74H258.857V302.381H274.456V286.74Z" stroke="#212529" stroke-miterlimit="10" stroke-linecap="round"/>
<path d="M290.19 271.173H274.592V286.815H290.19V271.173Z" stroke="#212529" stroke-miterlimit="10" stroke-linecap="round"/>
<path d="M290.19 286.74H274.592V302.381H290.19V286.74Z" stroke="#212529" stroke-miterlimit="10" stroke-linecap="round"/>
<path d="M321.389 271.173H305.79V286.815H321.389V271.173Z" stroke="#212529" stroke-miterlimit="10" stroke-linecap="round"/>
<path d="M321.389 286.74H305.79V302.381H321.389V286.74Z" stroke="#212529" stroke-miterlimit="10" stroke-linecap="round"/>
<path d="M305.827 271.173H290.229V286.815H305.827V271.173Z" fill="#93CB40" stroke="#212529" stroke-miterlimit="10" stroke-linecap="round"/>
<path d="M305.827 286.74H290.229V302.381H305.827V286.74Z" stroke="#212529" stroke-miterlimit="10" stroke-linecap="round"/>
<path d="M336.986 271.173H321.388V286.815H336.986V271.173Z" stroke="#212529" stroke-miterlimit="10" stroke-linecap="round"/>
<path d="M336.986 286.74H321.388V302.381H336.986V286.74Z" stroke="#212529" stroke-miterlimit="10" stroke-linecap="round"/>
<path d="M1.20068 18.5508H304.898" stroke="#212529" stroke-miterlimit="10" stroke-linecap="round"/>
<path d="M283.332 13.7903H272.616" stroke="#212529" stroke-miterlimit="10" stroke-linecap="round"/>
</svg>
