<svg width="437" height="301" viewBox="0 0 437 301" fill="none" xmlns="http://www.w3.org/2000/svg">
<path d="M0.500977 219.156H413.681C426.251 219.156 436.362 229.267 436.362 241.837C436.362 254.407 426.251 264.518 413.681 264.518H376.243H321.453" stroke="white" stroke-miterlimit="10" stroke-linecap="round" stroke-linejoin="round"/>
<path d="M103.795 195.108H85.4863V204.536H103.795V195.108Z" stroke="white" stroke-miterlimit="10" stroke-linecap="round" stroke-linejoin="round"/>
<path d="M133.718 219.156H55.4272V208.772L85.4866 204.536H103.796L133.718 208.772V219.156Z" stroke="white" stroke-miterlimit="10" stroke-linecap="round" stroke-linejoin="round"/>
<path d="M95.7338 180.899L49.825 121.053L121.148 81.156" stroke="white" stroke-miterlimit="10" stroke-linecap="round" stroke-linejoin="round"/>
<path d="M49.8253 130.344C54.9566 130.344 59.1163 126.185 59.1163 121.053C59.1163 115.922 54.9566 111.762 49.8253 111.762C44.6939 111.762 40.5342 115.922 40.5342 121.053C40.5342 126.185 44.6939 130.344 49.8253 130.344Z" fill="#191F2A" stroke="white" stroke-miterlimit="10" stroke-linecap="round" stroke-linejoin="round"/>
<path d="M94.7774 190.19C99.9087 190.19 104.068 186.03 104.068 180.899C104.068 175.767 99.9087 171.608 94.7774 171.608C89.6461 171.608 85.4863 175.767 85.4863 180.899C85.4863 186.03 89.6461 190.19 94.7774 190.19Z" fill="#191F2A" stroke="white" stroke-miterlimit="10" stroke-linecap="round" stroke-linejoin="round"/>
<path d="M111.293 70.6917L135.512 46.4724L145.143 56.103L120.924 80.3222L111.293 70.6917Z" stroke="white"/>
<path d="M145.332 56.6985L121.011 81.0193L135.221 120.506L184.819 70.9084L145.332 56.6985Z" stroke="white" stroke-miterlimit="10" stroke-linecap="round" stroke-linejoin="round"/>
<path d="M160.089 95.7764L165.964 89.9011C169.243 93.1803 169.243 98.509 165.964 101.788C162.685 105.067 157.356 105.067 154.213 101.788L160.089 95.7764Z" stroke="white" stroke-miterlimit="10" stroke-linecap="round" stroke-linejoin="round"/>
<path d="M111.31 61.0711L125.383 46.9978" stroke="white" stroke-miterlimit="10" stroke-linecap="round" stroke-linejoin="round"/>
<path d="M109.397 53.8293L118.142 45.0847" stroke="white" stroke-miterlimit="10" stroke-linecap="round" stroke-linejoin="round"/>
<path d="M414.637 1.36206H209.687C205.997 1.36206 203.128 4.368 203.128 7.92047V169.148C203.128 172.837 206.134 175.706 209.687 175.706H414.637" stroke="white" stroke-miterlimit="10" stroke-linecap="round" stroke-linejoin="round"/>
<path d="M203.128 144.554H394.005" stroke="white" stroke-miterlimit="10" stroke-linecap="round" stroke-linejoin="round"/>
<path d="M368.591 175.843H319.949C319.949 189.233 314.621 202.077 305.193 211.504L297.815 218.883H390.726L383.347 211.504C373.92 202.077 368.591 189.233 368.591 175.843Z" stroke="white" stroke-miterlimit="10" stroke-linecap="round" stroke-linejoin="round"/>
<path d="M251.086 94.9561H372.28" stroke="white" stroke-miterlimit="10" stroke-linecap="round" stroke-linejoin="round"/>
<path d="M250.13 107.253H345.363" stroke="white" stroke-miterlimit="10" stroke-linecap="round" stroke-linejoin="round"/>
<path d="M222.393 101.105L229.088 107.253L238.789 94.9563" stroke="#93CB40" stroke-miterlimit="10" stroke-linecap="round" stroke-linejoin="round"/>
<path d="M249.174 51.0962H369.548" stroke="white" stroke-miterlimit="10" stroke-linecap="round" stroke-linejoin="round"/>
<path d="M248.217 63.3933H342.631" stroke="white" stroke-miterlimit="10" stroke-linecap="round" stroke-linejoin="round"/>
<path d="M222.393 57.2454L229.088 63.3939L238.789 51.0969" stroke="#93CB40" stroke-miterlimit="10" stroke-linecap="round" stroke-linejoin="round"/>
<path d="M321.234 228.957H190.581V300.159H321.234V228.957Z" stroke="white" stroke-miterlimit="10" stroke-linecap="round"/>
<path d="M217.313 235.826H198.099V255.092H217.313V235.826Z" stroke="white" stroke-miterlimit="10" stroke-linecap="round"/>
<path d="M236.526 235.826H217.313V255.092H236.526V235.826Z" stroke="white" stroke-miterlimit="10" stroke-linecap="round"/>
<path d="M255.908 235.826H236.694V255.092H255.908V235.826Z" stroke="white" stroke-miterlimit="10" stroke-linecap="round"/>
<path d="M275.121 235.826H255.907V255.092H275.121V235.826Z" stroke="white" stroke-miterlimit="10" stroke-linecap="round"/>
<path d="M294.335 235.826H275.122V255.092H294.335V235.826Z" stroke="white" stroke-miterlimit="10" stroke-linecap="round"/>
<path d="M313.548 235.826H294.334V255.092H313.548V235.826Z" stroke="white" stroke-miterlimit="10" stroke-linecap="round"/>
<path d="M217.313 255.092H198.099V274.359H217.313V255.092Z" stroke="white" stroke-miterlimit="10" stroke-linecap="round"/>
<path d="M217.313 274.266H198.099V293.533H217.313V274.266Z" fill="#93CB40" stroke="white" stroke-miterlimit="10" stroke-linecap="round"/>
<path d="M236.526 255.092H217.313V274.359H236.526V255.092Z" stroke="white" stroke-miterlimit="10" stroke-linecap="round"/>
<path d="M236.526 274.266H217.313V293.533H236.526V274.266Z" stroke="white" stroke-miterlimit="10" stroke-linecap="round"/>
<path d="M255.908 255.092H236.694V274.359H255.908V255.092Z" stroke="white" stroke-miterlimit="10" stroke-linecap="round"/>
<path d="M255.908 274.266H236.694V293.533H255.908V274.266Z" stroke="white" stroke-miterlimit="10" stroke-linecap="round"/>
<path d="M294.335 255.092H275.122V274.359H294.335V255.092Z" stroke="white" stroke-miterlimit="10" stroke-linecap="round"/>
<path d="M294.335 274.266H275.122V293.533H294.335V274.266Z" stroke="white" stroke-miterlimit="10" stroke-linecap="round"/>
<path d="M275.168 255.092H255.954V274.359H275.168V255.092Z" fill="#93CB40" stroke="white" stroke-miterlimit="10" stroke-linecap="round"/>
<path d="M275.168 274.266H255.954V293.533H275.168V274.266Z" stroke="white" stroke-miterlimit="10" stroke-linecap="round"/>
<path d="M313.548 255.092H294.334V274.359H313.548V255.092Z" stroke="white" stroke-miterlimit="10" stroke-linecap="round"/>
<path d="M313.548 274.266H294.334V293.533H313.548V274.266Z" stroke="white" stroke-miterlimit="10" stroke-linecap="round"/>
</svg>
