<svg width="57" height="56" viewBox="0 0 57 56" fill="none" xmlns="http://www.w3.org/2000/svg">
<path d="M35.5125 37.0655C37.283 37.0655 38.7183 35.6302 38.7183 33.8596C38.7183 32.0891 37.283 30.6538 35.5125 30.6538C33.7419 30.6538 32.3066 32.0891 32.3066 33.8596C32.3066 35.6302 33.7419 37.0655 35.5125 37.0655Z" stroke="#93CB40" stroke-miterlimit="10" stroke-linecap="round"/>
<path d="M22.1884 33.8594V31.1044H20.1847V29.1509H18.2812V33.8594H22.0882H32.3068" stroke="#93CB40" stroke-miterlimit="10" stroke-linecap="round"/>
<path d="M21.4871 25.8946C23.2576 25.8946 24.6929 24.4593 24.6929 22.6887C24.6929 20.9182 23.2576 19.4829 21.4871 19.4829C19.7165 19.4829 18.2812 20.9182 18.2812 22.6887C18.2812 24.4593 19.7165 25.8946 21.4871 25.8946Z" stroke="#212529" stroke-miterlimit="10"/>
<path d="M34.8113 22.689V25.444H37.1655V27.3975H38.6683V22.689H34.9114H24.6929" stroke="#212529" stroke-miterlimit="10" stroke-linecap="round"/>
<path d="M28.5001 45.3802C38.1827 45.3802 46.032 37.5309 46.032 27.8483C46.032 18.1657 38.1827 10.3164 28.5001 10.3164C18.8176 10.3164 10.9683 18.1657 10.9683 27.8483C10.9683 37.5309 18.8176 45.3802 28.5001 45.3802Z" stroke="#212529" stroke-miterlimit="10" stroke-dasharray="1 1"/>
<path d="M54.7978 25.4939L49.6886 24.6924C49.1876 21.136 47.735 17.83 45.6813 15.075L48.7368 10.9174C49.0374 10.4666 48.9873 9.86548 48.6366 9.46475L46.8835 7.71156C46.4827 7.31084 45.8816 7.26075 45.4308 7.61138L41.2733 10.6669C38.5182 8.6132 35.2122 7.21065 31.6558 6.65965L30.8543 1.55036C30.7541 0.999361 30.3033 0.598633 29.7523 0.598633H27.2978C26.7468 0.598633 26.296 0.999361 26.1958 1.55036L25.3944 6.65965C21.8379 7.16056 18.5319 8.6132 15.7769 10.6669L11.6193 7.61138C11.1685 7.31084 10.5674 7.36093 10.1667 7.71156L8.41351 9.46475C8.01278 9.86548 7.96269 10.4666 8.31333 10.9174L11.3689 15.075C9.31515 17.83 7.9126 21.136 7.3616 24.6924L2.20222 25.4939C1.65122 25.5941 1.25049 26.0449 1.25049 26.5959V29.0504C1.25049 29.6014 1.65122 30.0522 2.20222 30.1524L7.31151 30.9538C7.81242 34.5103 9.26506 37.8163 11.3188 40.5713L8.26324 44.7289C7.96269 45.1797 8.01278 45.7808 8.36342 46.1815L10.1166 47.9347C10.5173 48.3354 11.1184 48.3855 11.5692 48.0349L15.7268 44.9793C18.4818 47.0331 21.7878 48.4356 25.3443 48.9866L26.1458 54.0959C26.2459 54.6469 26.6968 55.0476 27.2478 55.0476H29.7022C30.2532 55.0476 30.704 54.6469 30.8042 54.0959L31.6057 48.9866C35.1621 48.4857 38.4682 47.0331 41.2232 44.9793L45.3807 48.0349C45.8315 48.3354 46.4326 48.2853 46.8334 47.9347L48.5865 46.1815C48.9873 45.7808 49.0374 45.1797 48.6867 44.7289L45.6312 40.5713C47.6849 37.8163 49.0875 34.5103 49.6385 30.9538L54.7478 30.1524C55.2988 30.0522 55.6995 29.6014 55.6995 29.0504V26.5959C55.7496 26.0449 55.3488 25.5941 54.7978 25.4939Z" stroke="#212529" stroke-miterlimit="10" stroke-linecap="round"/>
</svg>
