<svg width="358" height="374" viewBox="0 0 358 374" fill="none" xmlns="http://www.w3.org/2000/svg">
<path d="M35.1109 243.974L54.5617 243.974L54.5617 362.25C54.5617 364.837 52.5446 366.849 49.9511 366.849L39.5774 366.849C36.9839 366.849 34.9668 364.837 34.9668 362.25L34.9668 243.974L35.1109 243.974Z" stroke="#212529" stroke-miterlimit="10" stroke-linecap="round" stroke-linejoin="round"/>
<path d="M44.9088 221.698L54.5621 243.974L35.1113 243.974L44.9088 221.698Z" stroke="#212529" stroke-miterlimit="10" stroke-linecap="round" stroke-linejoin="round"/>
<path d="M44.9082 355.352L44.9082 243.974" stroke="#212529" stroke-miterlimit="10" stroke-linecap="round" stroke-linejoin="round"/>
<path d="M54.5621 355.352L35.1113 355.352" stroke="#212529" stroke-miterlimit="10"/>
<path d="M50.0955 233.626L39.4336 233.626L44.9086 221.698L50.0955 233.626Z" fill="#212529"/>
<path d="M319.948 351.366C321.057 351.366 321.956 350.465 321.956 349.353C321.956 348.242 321.057 347.34 319.948 347.34C318.839 347.34 317.94 348.242 317.94 349.353C317.94 350.465 318.839 351.366 319.948 351.366Z" fill="#212529"/>
<path d="M333.846 351.367C334.955 351.367 335.854 350.465 335.854 349.353C335.854 348.242 334.955 347.34 333.846 347.34C332.738 347.34 331.839 348.242 331.839 349.353C331.839 350.465 332.738 351.367 333.846 351.367Z" fill="#212529"/>
<path d="M347.744 351.367C348.853 351.367 349.752 350.465 349.752 349.353C349.752 348.242 348.853 347.34 347.744 347.34C346.635 347.34 345.736 348.242 345.736 349.353C345.736 350.465 346.635 351.367 347.744 351.367Z" fill="#212529"/>
<path d="M319.947 362.206C321.056 362.206 321.955 361.305 321.955 360.193C321.955 359.081 321.056 358.18 319.947 358.18C318.838 358.18 317.939 359.081 317.939 360.193C317.939 361.305 318.838 362.206 319.947 362.206Z" fill="#212529"/>
<path d="M333.846 362.206C334.955 362.206 335.854 361.305 335.854 360.193C335.854 359.081 334.955 358.18 333.846 358.18C332.738 358.18 331.839 359.081 331.839 360.193C331.839 361.305 332.738 362.206 333.846 362.206Z" fill="#212529"/>
<path d="M347.744 362.206C348.853 362.206 349.752 361.305 349.752 360.193C349.752 359.081 348.853 358.18 347.744 358.18C346.635 358.18 345.736 359.081 345.736 360.193C345.736 361.305 346.635 362.206 347.744 362.206Z" fill="#212529"/>
<path d="M319.947 373.046C321.056 373.046 321.955 372.145 321.955 371.033C321.955 369.921 321.056 369.02 319.947 369.02C318.838 369.02 317.939 369.921 317.939 371.033C317.939 372.145 318.838 373.046 319.947 373.046Z" fill="#212529"/>
<path d="M333.846 373.046C334.955 373.046 335.854 372.145 335.854 371.033C335.854 369.921 334.955 369.02 333.846 369.02C332.738 369.02 331.839 369.921 331.839 371.033C331.839 372.145 332.738 373.046 333.846 373.046Z" fill="#212529"/>
<path d="M347.744 373.046C348.853 373.046 349.752 372.145 349.752 371.033C349.752 369.921 348.853 369.02 347.744 369.02C346.635 369.02 345.736 369.921 345.736 371.033C345.736 372.145 346.635 373.046 347.744 373.046Z" fill="#212529"/>
<path d="M147.704 253.564H120.142C110.2 253.564 102.142 261.623 102.142 271.564V299.288C102.142 309.23 110.2 317.288 120.142 317.288H147.704C157.645 317.288 165.704 309.23 165.704 299.288V271.564C165.704 261.623 157.645 253.564 147.704 253.564Z" stroke="#212529" stroke-miterlimit="10"/>
<path d="M338.39 253.564H310.828C300.887 253.564 292.828 261.623 292.828 271.564V299.288C292.828 309.23 300.887 317.288 310.828 317.288H338.39C348.331 317.288 356.39 309.23 356.39 299.288V271.564C356.39 261.623 348.331 253.564 338.39 253.564Z" stroke="#212529" stroke-miterlimit="10"/>
<path d="M261.129 265.031H240.377V285.836H261.129V265.031Z" fill="#93CB40" stroke="#212529" stroke-miterlimit="10"/>
<path d="M261.129 285.836H240.377V306.64H261.129V285.836Z" stroke="#212529" stroke-miterlimit="10"/>
<path d="M281.716 265.031H260.965V285.836H281.716V265.031Z" stroke="#212529" stroke-miterlimit="10"/>
<path d="M281.716 285.836H260.965V306.64H281.716V285.836Z" stroke="#212529" stroke-miterlimit="10"/>
<path d="M211.619 271.42H182.697V300.416H211.619V271.42Z" stroke="#212529" stroke-miterlimit="10"/>
<path d="M189.233 265.195H176.979V277.481H189.233V265.195Z" fill="#F4F5F8" stroke="#212529" stroke-miterlimit="10"/>
<path d="M217.828 265.195H205.573V277.481H217.828V265.195Z" fill="#F4F5F8" stroke="#212529" stroke-miterlimit="10"/>
<path d="M189.233 294.19H176.979V306.477H189.233V294.19Z" fill="#93CB40" stroke="#212529" stroke-miterlimit="10"/>
<path d="M217.828 294.19H205.573V306.477H217.828V294.19Z" fill="#F4F5F8" stroke="#212529" stroke-miterlimit="10"/>
<path d="M144.462 293.863H123.22V265.031H144.462V283.706V293.863Z" stroke="#212529" stroke-miterlimit="10"/>
<path d="M123.383 285.017H144.461" stroke="#212529" stroke-miterlimit="10"/>
<path d="M133.84 306.477C132.37 306.477 131.062 305.33 131.062 303.692V293.863H136.618V303.692C136.618 305.166 135.311 306.477 133.84 306.477Z" stroke="#212529" stroke-miterlimit="10"/>
<path d="M123.22 270.601C123.22 270.601 128.448 268.144 132.86 270.601C137.272 273.058 138.579 273.714 144.462 274.205V265.031H123.22V270.601Z" fill="#93CB40" stroke="#212529" stroke-miterlimit="10"/>
<path d="M311.946 292.389C312.926 292.716 324.691 292.389 324.691 292.389L314.233 303.2C314.233 303.2 310.965 305.985 308.024 302.873C305.083 299.76 307.207 297.303 308.024 296.484C308.678 295.665 311.946 292.389 311.946 292.389Z" fill="#93CB40"/>
<path d="M307.534 303.2C305.736 301.398 305.736 298.45 307.534 296.648L336.945 267.161C338.743 265.359 341.684 265.359 343.481 267.161C345.279 268.963 345.279 271.912 343.481 273.714L314.07 303.2C312.272 305.002 309.331 305.002 307.534 303.2Z" stroke="#212529" stroke-miterlimit="10"/>
<path d="M304.919 305.985C304.102 305.166 304.102 303.856 304.919 303.036L306.39 301.562L309.331 304.511L307.861 305.985C307.044 306.804 305.736 306.804 304.919 305.985Z" fill="#212529"/>
<path d="M324.527 272.075L338.743 286.163" stroke="#212529" stroke-miterlimit="10" stroke-linecap="round"/>
<path d="M7.60059 157.945H80.404" stroke="#212529" stroke-miterlimit="10" stroke-linecap="round"/>
<path d="M1.02539 157.945H3.75186" stroke="#212529" stroke-miterlimit="10" stroke-linecap="round"/>
<path d="M1.02539 175.632H3.75186" stroke="#212529" stroke-miterlimit="10" stroke-linecap="round"/>
<path d="M1.02539 193.319H3.75186" stroke="#212529" stroke-miterlimit="10" stroke-linecap="round"/>
<path d="M84.1543 157.945H86.4819" stroke="#212529" stroke-miterlimit="10" stroke-linecap="round"/>
<path d="M84.1543 175.632H86.4819" stroke="#212529" stroke-miterlimit="10" stroke-linecap="round"/>
<path d="M84.1543 193.319H86.4819" stroke="#212529" stroke-miterlimit="10" stroke-linecap="round"/>
<path d="M7.60059 175.632H80.404" stroke="#93CB40" stroke-miterlimit="10" stroke-linecap="round"/>
<path d="M7.60059 193.319H80.404" stroke="#212529" stroke-miterlimit="10" stroke-linecap="round"/>
<path d="M17.2244 154.89H15.2998V160.839H17.2244V154.89Z" fill="#212529"/>
<path d="M25.5632 172.738H23.6387V178.687H25.5632V172.738Z" fill="#93CB40"/>
<path d="M22.3562 190.425H20.4316V196.374H22.3562V190.425Z" fill="#212529"/>
<path d="M334.651 140.118L346.049 151.545" stroke="#212529" stroke-miterlimit="10" stroke-linecap="round"/>
<path d="M346.049 140.118L334.651 151.545" stroke="#212529" stroke-miterlimit="10" stroke-linecap="round"/>
<path d="M356.919 232.232H101.621V158.752V132.911H356.919V232.232Z" stroke="#212529" stroke-miterlimit="10"/>
<path d="M356.919 158.049H101.621" stroke="#212529" stroke-miterlimit="10"/>
<path d="M333.287 179.983H303.576V209.77H333.287V179.983Z" fill="#212529" stroke="#212529" stroke-miterlimit="10" stroke-linecap="round"/>
<path d="M292.82 180.013H262.438V210.472H292.82V180.013Z" stroke="#212529" stroke-miterlimit="10" stroke-linecap="round"/>
<path d="M263.178 209.586L292.082 180.727" stroke="#212529" stroke-miterlimit="10"/>
<path d="M292.082 209.586L263.178 180.727" stroke="#212529" stroke-miterlimit="10"/>
<path d="M168.545 84.9098H290.359" stroke="#212529" stroke-miterlimit="10"/>
<path d="M230.322 40.6707H274.448C274.448 64.9709 254.56 84.9096 230.322 84.9096C206.208 84.9096 186.32 65.0956 186.195 40.9199L230.322 40.6707Z" stroke="#212529" stroke-miterlimit="10"/>
<path d="M272.335 39.0507H186.195V42.5399H272.335V39.0507Z" fill="white"/>
<path d="M279.793 35.4368H269.228V46.0292H279.793V35.4368Z" fill="white" stroke="#212529" stroke-miterlimit="10"/>
<path d="M191.416 35.4368H180.851V46.0292H191.416V35.4368Z" fill="white" stroke="#212529" stroke-miterlimit="10"/>
<path d="M235.667 79.6758H225.102V90.2682H235.667V79.6758Z" fill="white" stroke="#212529" stroke-miterlimit="10"/>
<path d="M295.206 79.6758H284.641V90.2682H295.206V79.6758Z" fill="white" stroke="#212529" stroke-miterlimit="10"/>
<path d="M173.89 79.6758H163.324V90.2682H173.89V79.6758Z" fill="white" stroke="#212529" stroke-miterlimit="10"/>
<path d="M239.396 24.3459H219.384C219.384 24.3459 218.389 37.5553 214.66 51.8863C221.372 54.3786 226.22 61.8556 226.22 70.7034H229.328H232.435C232.435 61.8556 237.283 54.3786 243.995 51.8863C240.39 37.5553 239.396 24.3459 239.396 24.3459Z" stroke="#212529" stroke-miterlimit="10"/>
<path d="M229.452 46.6523V70.5788" stroke="#212529" stroke-miterlimit="10"/>
<path d="M229.452 46.0293C230.756 46.0293 231.813 44.9692 231.813 43.6615C231.813 42.3539 230.756 41.2938 229.452 41.2938C228.147 41.2938 227.09 42.3539 227.09 43.6615C227.09 44.9692 228.147 46.0293 229.452 46.0293Z" stroke="#212529" stroke-miterlimit="10"/>
<path d="M242.006 13.0059H216.524V24.346H242.006V13.0059Z" stroke="#212529" stroke-miterlimit="10"/>
<path d="M219.508 0.170288V13.0058" stroke="#212529" stroke-miterlimit="10"/>
<path d="M239.147 0.170288V13.0058" stroke="#212529" stroke-miterlimit="10"/>
</svg>
