<svg width="56" height="56" viewBox="0 0 56 56" fill="none" xmlns="http://www.w3.org/2000/svg">
<path d="M55.2287 48.6021H0.571777V54.7767H55.2287V48.6021Z" stroke="#212529" stroke-miterlimit="10" stroke-linecap="round" stroke-linejoin="round"/>
<path d="M18.0666 36.9385H0.571777V48.716H18.0666V36.9385Z" stroke="#212529" stroke-miterlimit="10" stroke-dasharray="1 1"/>
<path d="M37.8481 19.2153H18.0664V48.602H37.8481V19.2153Z" stroke="#212529" stroke-miterlimit="10" stroke-linecap="round" stroke-linejoin="round"/>
<path d="M55.2287 48.0298V48.6015H54.657" stroke="#212529" stroke-miterlimit="10"/>
<path d="M52.37 48.6016H39.449" stroke="#212529" stroke-miterlimit="10" stroke-dasharray="1.02 1.02"/>
<path d="M38.3056 48.6015H37.7339V48.0298" stroke="#212529" stroke-miterlimit="10"/>
<path d="M37.7339 45.6288V32.3647" stroke="#212529" stroke-miterlimit="10" stroke-dasharray="1.06 1.06"/>
<path d="M37.7339 31.1069V30.5352H38.3056" stroke="#212529" stroke-miterlimit="10"/>
<path d="M40.7068 30.5352H53.5134" stroke="#212529" stroke-miterlimit="10" stroke-dasharray="1.02 1.02"/>
<path d="M54.657 30.5352H55.2287V31.1069" stroke="#212529" stroke-miterlimit="10"/>
<path d="M55.2288 33.6226V46.8866" stroke="#212529" stroke-miterlimit="10" stroke-dasharray="1.06 1.06"/>
<path d="M28.5865 1.37752L29.8443 5.26526C29.9586 5.49395 30.1873 5.72264 30.5304 5.72264H34.5324C35.2185 5.72264 35.4472 6.52305 34.9898 6.98044L31.6738 9.38168C31.4451 9.61037 31.3308 9.83906 31.4451 10.1821L32.7029 14.0698C32.9316 14.6416 32.2455 15.2133 31.6738 14.8702L28.3578 12.469C28.1291 12.2403 27.7861 12.2403 27.5574 12.469L24.2414 14.8702C23.6697 15.2133 22.9836 14.7559 23.2123 14.0698L24.4701 10.1821C24.5844 9.95341 24.4701 9.61037 24.2414 9.38168L20.9254 6.98044C20.3536 6.6374 20.6967 5.72264 21.3828 5.72264H25.3848C25.7279 5.72264 25.9566 5.49395 26.0709 5.26526L27.3287 1.37752C27.443 0.805799 28.3578 0.805799 28.5865 1.37752Z" stroke="#93CB40" stroke-miterlimit="10" stroke-linecap="round"/>
<path d="M25.8418 31.7933L28.1287 29.3921V38.311H26.2992H29.9582" stroke="#212529" stroke-miterlimit="10" stroke-linecap="round" stroke-linejoin="round"/>
</svg>
