<svg width="404" height="278" viewBox="0 0 404 278" fill="none" xmlns="http://www.w3.org/2000/svg">
<path d="M0.500977 202.405H381.806C393.406 202.405 402.737 211.736 402.737 223.336C402.737 234.937 393.406 244.268 381.806 244.268H347.256H296.693" stroke="white" stroke-miterlimit="10" stroke-linecap="round" stroke-linejoin="round"/>
<path d="M95.8266 180.212H78.9302V188.913H95.8266V180.212Z" stroke="white" stroke-miterlimit="10" stroke-linecap="round" stroke-linejoin="round"/>
<path d="M123.441 202.405H51.1899V192.822L78.9304 188.913H95.8268L123.441 192.822V202.405Z" stroke="white" stroke-miterlimit="10" stroke-linecap="round" stroke-linejoin="round"/>
<path d="M88.387 167.099L46.0198 111.87L111.84 75.051" stroke="white" stroke-miterlimit="10" stroke-linecap="round" stroke-linejoin="round"/>
<path d="M46.0201 120.445C50.7556 120.445 54.5944 116.606 54.5944 111.87C54.5944 107.135 50.7556 103.296 46.0201 103.296C41.2847 103.296 37.4458 107.135 37.4458 111.87C37.4458 116.606 41.2847 120.445 46.0201 120.445Z" fill="#191F2A" stroke="white" stroke-miterlimit="10" stroke-linecap="round" stroke-linejoin="round"/>
<path d="M87.5045 175.673C92.24 175.673 96.0788 171.834 96.0788 167.099C96.0788 162.364 92.24 158.525 87.5045 158.525C82.769 158.525 78.9302 162.364 78.9302 167.099C78.9302 171.834 82.769 175.673 87.5045 175.673Z" fill="#191F2A" stroke="white" stroke-miterlimit="10" stroke-linecap="round" stroke-linejoin="round"/>
<path d="M111.634 74.2269L102.801 65.3938L125.097 43.0975L133.93 51.9306L111.634 74.2269Z" stroke="white"/>
<path d="M134.159 52.4802L111.714 74.9248L124.828 111.366L170.599 65.5939L134.159 52.4802Z" stroke="white" stroke-miterlimit="10" stroke-linecap="round" stroke-linejoin="round"/>
<path d="M147.777 88.5433L153.199 83.1213C156.225 86.1476 156.225 91.0652 153.199 94.0914C150.173 97.1176 145.255 97.1176 142.355 94.0914L147.777 88.5433Z" stroke="white" stroke-miterlimit="10" stroke-linecap="round" stroke-linejoin="round"/>
<path d="M102.762 56.5154L115.749 43.5278" stroke="white" stroke-miterlimit="10" stroke-linecap="round" stroke-linejoin="round"/>
<path d="M100.997 49.8324L109.067 41.7625" stroke="white" stroke-miterlimit="10" stroke-linecap="round" stroke-linejoin="round"/>
<path d="M382.689 1.41284H193.549C190.145 1.41284 187.497 4.18689 187.497 7.4653V156.255C187.497 159.659 190.271 162.307 193.549 162.307H382.689" stroke="white" stroke-miterlimit="10" stroke-linecap="round" stroke-linejoin="round"/>
<path d="M187.496 133.558H363.648" stroke="white" stroke-miterlimit="10" stroke-linecap="round" stroke-linejoin="round"/>
<path d="M340.195 162.433H295.305C295.305 174.79 290.388 186.643 281.687 195.344L274.878 202.153H360.622L353.813 195.344C345.112 186.643 340.195 174.79 340.195 162.433Z" stroke="white" stroke-miterlimit="10" stroke-linecap="round" stroke-linejoin="round"/>
<path d="M231.755 87.7866H343.599" stroke="white" stroke-miterlimit="10" stroke-linecap="round" stroke-linejoin="round"/>
<path d="M230.872 99.1353H318.759" stroke="white" stroke-miterlimit="10" stroke-linecap="round" stroke-linejoin="round"/>
<path d="M205.275 93.4606L211.454 99.1347L220.407 87.7864" stroke="#93CB40" stroke-miterlimit="10" stroke-linecap="round" stroke-linejoin="round"/>
<path d="M229.99 47.3105H341.077" stroke="white" stroke-miterlimit="10" stroke-linecap="round" stroke-linejoin="round"/>
<path d="M229.107 58.6589H316.237" stroke="white" stroke-miterlimit="10" stroke-linecap="round" stroke-linejoin="round"/>
<path d="M205.275 52.9857L211.454 58.6599L220.407 47.3115" stroke="#93CB40" stroke-miterlimit="10" stroke-linecap="round" stroke-linejoin="round"/>
<path d="M296.491 211.45H175.917V277.159H296.491V211.45Z" stroke="white" stroke-miterlimit="10" stroke-linecap="round"/>
<path d="M200.587 217.789H182.855V235.569H200.587V217.789Z" stroke="white" stroke-miterlimit="10" stroke-linecap="round"/>
<path d="M218.318 217.789H200.587V235.569H218.318V217.789Z" stroke="white" stroke-miterlimit="10" stroke-linecap="round"/>
<path d="M236.204 217.789H218.473V235.569H236.204V217.789Z" stroke="white" stroke-miterlimit="10" stroke-linecap="round"/>
<path d="M253.936 217.789H236.204V235.569H253.936V217.789Z" stroke="white" stroke-miterlimit="10" stroke-linecap="round"/>
<path d="M271.667 217.789H253.936V235.569H271.667V217.789Z" stroke="white" stroke-miterlimit="10" stroke-linecap="round"/>
<path d="M289.398 217.789H271.667V235.569H289.398V217.789Z" stroke="white" stroke-miterlimit="10" stroke-linecap="round"/>
<path d="M200.587 235.569H182.855V253.349H200.587V235.569Z" stroke="white" stroke-miterlimit="10" stroke-linecap="round"/>
<path d="M200.587 253.264H182.855V271.044H200.587V253.264Z" fill="#93CB40" stroke="white" stroke-miterlimit="10" stroke-linecap="round"/>
<path d="M218.318 235.569H200.587V253.349H218.318V235.569Z" stroke="white" stroke-miterlimit="10" stroke-linecap="round"/>
<path d="M218.318 253.264H200.587V271.044H218.318V253.264Z" stroke="white" stroke-miterlimit="10" stroke-linecap="round"/>
<path d="M236.204 235.569H218.473V253.349H236.204V235.569Z" stroke="white" stroke-miterlimit="10" stroke-linecap="round"/>
<path d="M236.204 253.264H218.473V271.044H236.204V253.264Z" stroke="white" stroke-miterlimit="10" stroke-linecap="round"/>
<path d="M271.667 235.569H253.936V253.349H271.667V235.569Z" stroke="white" stroke-miterlimit="10" stroke-linecap="round"/>
<path d="M271.667 253.264H253.936V271.044H271.667V253.264Z" stroke="white" stroke-miterlimit="10" stroke-linecap="round"/>
<path d="M253.978 235.569H236.247V253.349H253.978V235.569Z" fill="#93CB40" stroke="white" stroke-miterlimit="10" stroke-linecap="round"/>
<path d="M253.978 253.264H236.247V271.044H253.978V253.264Z" stroke="white" stroke-miterlimit="10" stroke-linecap="round"/>
<path d="M289.398 235.569H271.667V253.349H289.398V235.569Z" stroke="white" stroke-miterlimit="10" stroke-linecap="round"/>
<path d="M289.398 253.264H271.667V271.044H289.398V253.264Z" stroke="white" stroke-miterlimit="10" stroke-linecap="round"/>
</svg>
