<svg width="325" height="404" viewBox="0 0 325 404" fill="none" xmlns="http://www.w3.org/2000/svg">
<path d="M254.916 339.165C254.765 337.805 254.463 336.445 253.858 335.387L256.276 332.818L255.521 331.912L254.765 331.005L251.743 332.818C250.685 331.912 249.627 331.307 248.267 330.854L248.116 327.378L247.059 327.227L246.001 327.076L245.094 330.552C243.734 330.703 242.374 331.005 241.317 331.609L238.748 329.192L237.841 329.947L236.935 330.703L238.748 333.725C237.841 334.783 237.237 335.84 236.783 337.2L233.308 337.351L233.157 338.409L233.006 339.467L236.33 340.373C236.481 341.733 236.783 343.093 237.388 344.302L234.97 346.871L235.726 347.778L236.481 348.684L239.503 346.871C240.561 347.778 241.77 348.382 242.979 348.835L243.13 352.311L244.188 352.462L245.245 352.613L246.152 349.289C247.512 349.138 248.872 348.835 250.081 348.231L252.65 350.649L253.556 349.893L254.463 349.138L252.65 346.115C253.556 345.058 254.161 343.849 254.614 342.64L258.089 342.489L258.24 341.431L258.392 340.373L254.916 339.165Z" stroke="#212529" stroke-miterlimit="10"/>
<path d="M245.547 345.209C248.635 345.209 251.138 342.706 251.138 339.618C251.138 336.53 248.635 334.027 245.547 334.027C242.459 334.027 239.956 336.53 239.956 339.618C239.956 342.706 242.459 345.209 245.547 345.209Z" stroke="#212529" stroke-miterlimit="10"/>
<path d="M243.432 304.561C242.828 302.144 241.77 299.877 240.259 298.064L243.886 292.775L242.375 291.415L240.864 290.055L235.877 294.135C233.913 292.926 231.495 292.02 229.077 291.718L227.869 285.371L225.753 285.522L223.638 285.673L223.033 292.171C220.615 292.775 218.349 293.833 216.536 295.193L211.247 291.566L209.887 293.077L208.527 294.588L212.607 299.575C211.398 301.539 210.491 303.957 210.189 306.375L203.843 307.584L203.994 309.699L204.145 311.815L210.491 312.419C211.096 314.837 212.154 317.103 213.665 319.068L210.038 324.356L211.549 325.716L213.06 327.076L217.896 322.996C220.011 324.356 222.278 325.112 224.846 325.414L226.055 331.609L228.171 331.458L230.286 331.307L230.891 324.961C233.308 324.356 235.575 323.298 237.539 321.787L242.828 325.263L244.188 323.752L245.548 322.241L241.468 317.405C242.677 315.29 243.583 313.023 243.886 310.455L250.081 309.246L249.93 307.13L249.779 305.015L243.432 304.561Z" stroke="#212529" stroke-miterlimit="10"/>
<path d="M226.81 318.614C232.485 318.614 237.085 314.014 237.085 308.339C237.085 302.664 232.485 298.064 226.81 298.064C221.135 298.064 216.535 302.664 216.535 308.339C216.535 314.014 221.135 318.614 226.81 318.614Z" stroke="#212529" stroke-miterlimit="10"/>
<path d="M303.871 379.963H283.472V255.452C283.472 252.732 285.587 250.617 288.307 250.617H299.187C301.907 250.617 304.022 252.732 304.022 255.452V379.963H303.871Z" stroke="#212529" stroke-miterlimit="10" stroke-linecap="round" stroke-linejoin="round"/>
<path d="M293.597 403.384L283.322 379.963H303.873L293.597 403.384Z" stroke="#212529" stroke-miterlimit="10" stroke-linecap="round" stroke-linejoin="round"/>
<path d="M293.597 262.856V379.963" stroke="#212529" stroke-miterlimit="10" stroke-linecap="round" stroke-linejoin="round"/>
<path d="M283.322 262.856H303.873" stroke="#212529" stroke-miterlimit="10"/>
<path d="M288.007 390.691H299.34L293.598 403.384L288.007 390.691Z" fill="#212529"/>
<path d="M138.867 87.8765H177.701" stroke="#212529" stroke-miterlimit="10" stroke-linecap="round" stroke-linejoin="round"/>
<path d="M171.959 81.2278L178.759 88.0275L172.261 94.525" stroke="#212529" stroke-miterlimit="10" stroke-linecap="round" stroke-linejoin="round"/>
<path d="M161.532 74.5791H122.849" stroke="#212529" stroke-miterlimit="10" stroke-linecap="round" stroke-linejoin="round"/>
<path d="M128.44 67.9307L121.641 74.7304L128.138 81.2279" stroke="#212529" stroke-miterlimit="10" stroke-linecap="round" stroke-linejoin="round"/>
<path d="M91.7223 267.087H82.2027C76.7629 267.087 72.3809 262.705 72.3809 257.266V175.215C72.3809 169.776 76.7629 165.394 82.2027 165.394H91.7223C97.1621 165.394 101.544 169.776 101.544 175.215V257.266C101.544 262.705 97.1621 267.087 91.7223 267.087Z" stroke="#212529" stroke-miterlimit="10"/>
<path d="M71.8803 256.917H69.8115C60.7191 256.917 53.3877 249.585 53.3877 240.493V191.837C53.3877 182.745 60.7191 175.413 69.8115 175.413H71.8803V256.917Z" stroke="#212529"/>
<path d="M219.557 267.087H229.077C234.517 267.087 238.899 262.705 238.899 257.266V175.215C238.899 169.776 234.517 165.394 229.077 165.394H219.557C214.117 165.394 209.735 169.776 209.735 175.215V257.266C209.735 262.705 214.117 267.087 219.557 267.087Z" stroke="#212529" stroke-miterlimit="10"/>
<path d="M241.467 256.917H239.398V175.413H241.467C250.56 175.413 257.891 182.745 257.891 191.837V240.493C257.891 249.585 250.56 256.917 241.467 256.917Z" stroke="#212529"/>
<path d="M146.875 325.414H111.516C89.9083 325.414 72.5312 307.886 72.5312 286.429V154.665C72.5312 133.057 90.0595 115.68 111.516 115.68H130.858H200.064C221.672 115.68 239.049 133.208 239.049 154.665V212.539" stroke="#212529" stroke-miterlimit="10"/>
<path d="M156.093 325.414H133.881C130.707 325.414 128.139 322.845 128.139 319.672V318.01C128.139 314.836 130.707 312.268 133.881 312.268H156.244C159.417 312.268 161.986 314.836 161.986 318.01V319.672C161.835 322.845 159.266 325.414 156.093 325.414Z" stroke="#212529" stroke-miterlimit="10"/>
<path d="M137.507 213.898H125.116V226.289H137.507V213.898Z" fill="#93CB40"/>
<path d="M162.591 213.898H150.2V226.289H162.591V213.898Z" fill="#93CB40"/>
<path d="M187.674 213.898H175.283V226.289H187.674V213.898Z" fill="#93CB40"/>
<path d="M6.65039 15.044L14.5079 23.2037L22.3653 15.044L17.8322 1.14233H14.5079H11.1835L6.65039 15.044Z" stroke="#212529" stroke-miterlimit="10"/>
<path d="M14.5078 81.904V23.2036" stroke="#212529" stroke-miterlimit="10"/>
<path d="M6.30469 82.0364V86.1162H22.7752V82.0364H6.30469Z" stroke="#212529" stroke-miterlimit="10"/>
<path d="M1.04688 86.2301L1.04688 90.0144H27.9436V86.2301H1.04688Z" stroke="#212529" stroke-miterlimit="10"/>
<path d="M27.9553 89.9919V148.47C27.9553 152.549 24.631 155.723 20.7023 155.723H8.31164C4.2318 155.723 1.05859 152.398 1.05859 148.47V89.9919H27.9553Z" stroke="#212529" stroke-miterlimit="10"/>
<path d="M6.19727 89.9919V136.532" stroke="#212529" stroke-miterlimit="10" stroke-linecap="round"/>
<path d="M22.8184 89.9919V136.532" stroke="#212529" stroke-miterlimit="10" stroke-linecap="round"/>
<path d="M14.8096 89.9919V136.532" stroke="#212529" stroke-miterlimit="10" stroke-linecap="round"/>
<path d="M14.8096 162.674V194.406C14.8096 208.61 26.2936 220.094 40.4975 220.094H48.3549" stroke="#212529" stroke-miterlimit="10"/>
<path d="M265.795 216.316H267.759C281.963 216.316 293.447 227.8 293.447 242.004V243.515" stroke="#212529" stroke-miterlimit="10"/>
<path d="M301.607 198.032L293.296 168.567L323.064 177.18L301.607 198.032Z" stroke="#212529" stroke-miterlimit="10" stroke-linecap="round" stroke-linejoin="round"/>
<path d="M323.819 198.939L312.788 187.908" stroke="#212529" stroke-miterlimit="10" stroke-linecap="round" stroke-linejoin="round"/>
<path d="M296.318 151.038H292.843V159.953H296.318V151.038Z" fill="#212529"/>
<path d="M281.934 155.603L279.477 158.06L285.781 164.364L288.238 161.907L281.934 155.603Z" fill="#212529"/>
<path d="M274.834 169.064L274.834 172.54L283.749 172.54L283.749 169.064L274.834 169.064Z" fill="#212529"/>
<path d="M279.415 183.449L281.872 185.906L288.176 179.603L285.719 177.145L279.415 183.449Z" fill="#212529"/>
<path d="M300.995 161.853L303.452 164.311L309.756 158.007L307.299 155.549L300.995 161.853Z" fill="#212529"/>
</svg>
