<svg width="385" height="402" viewBox="0 0 385 402" fill="none" xmlns="http://www.w3.org/2000/svg">
<path d="M79.2043 261.025L101.319 261.025L101.319 395.502C101.319 398.443 99.026 400.731 96.0773 400.731L84.2826 400.731C81.3339 400.731 79.0405 398.443 79.0405 395.502L79.0405 261.025L79.2043 261.025Z" stroke="#212529" stroke-miterlimit="10" stroke-linecap="round" stroke-linejoin="round"/>
<path d="M90.3438 235.698L101.319 261.025L79.2043 261.025L90.3438 235.698Z" stroke="#212529" stroke-miterlimit="10" stroke-linecap="round" stroke-linejoin="round"/>
<path d="M90.3438 387.659L90.3437 261.025" stroke="#212529" stroke-miterlimit="10" stroke-linecap="round" stroke-linejoin="round"/>
<path d="M101.319 387.659L79.2043 387.659" stroke="#212529" stroke-miterlimit="10"/>
<path d="M96.2412 249.26L84.1189 249.26L90.3439 235.698L96.2412 249.26Z" fill="#212529"/>
<path d="M24.0091 305.852C25.1178 305.852 26.0167 304.951 26.0167 303.839C26.0167 302.727 25.1178 301.826 24.0091 301.826C22.9003 301.826 22.0015 302.727 22.0015 303.839C22.0015 304.951 22.9003 305.852 24.0091 305.852Z" fill="#212529"/>
<path d="M37.9065 305.852C39.0153 305.852 39.9142 304.951 39.9142 303.839C39.9142 302.727 39.0153 301.826 37.9065 301.826C36.7978 301.826 35.8989 302.727 35.8989 303.839C35.8989 304.951 36.7978 305.852 37.9065 305.852Z" fill="#212529"/>
<path d="M51.8045 305.852C52.9132 305.852 53.8121 304.951 53.8121 303.839C53.8121 302.727 52.9132 301.826 51.8045 301.826C50.6957 301.826 49.7969 302.727 49.7969 303.839C49.7969 304.951 50.6957 305.852 51.8045 305.852Z" fill="#212529"/>
<path d="M24.0076 316.692C25.1164 316.692 26.0152 315.791 26.0152 314.679C26.0152 313.567 25.1164 312.666 24.0076 312.666C22.8988 312.666 22 313.567 22 314.679C22 315.791 22.8988 316.692 24.0076 316.692Z" fill="#212529"/>
<path d="M37.9065 316.692C39.0153 316.692 39.9142 315.791 39.9142 314.679C39.9142 313.567 39.0153 312.666 37.9065 312.666C36.7978 312.666 35.8989 313.567 35.8989 314.679C35.8989 315.791 36.7978 316.692 37.9065 316.692Z" fill="#212529"/>
<path d="M51.8045 316.692C52.9132 316.692 53.8121 315.791 53.8121 314.679C53.8121 313.567 52.9132 312.666 51.8045 312.666C50.6957 312.666 49.7969 313.567 49.7969 314.679C49.7969 315.791 50.6957 316.692 51.8045 316.692Z" fill="#212529"/>
<path d="M24.0076 327.532C25.1164 327.532 26.0152 326.631 26.0152 325.519C26.0152 324.407 25.1164 323.506 24.0076 323.506C22.8988 323.506 22 324.407 22 325.519C22 326.631 22.8988 327.532 24.0076 327.532Z" fill="#212529"/>
<path d="M37.9065 327.532C39.0153 327.532 39.9142 326.631 39.9142 325.519C39.9142 324.407 39.0153 323.506 37.9065 323.506C36.7978 323.506 35.8989 324.407 35.8989 325.519C35.8989 326.631 36.7978 327.532 37.9065 327.532Z" fill="#212529"/>
<path d="M51.8045 327.532C52.9132 327.532 53.8121 326.631 53.8121 325.519C53.8121 324.407 52.9132 323.506 51.8045 323.506C50.6957 323.506 49.7969 324.407 49.7969 325.519C49.7969 326.631 50.6957 327.532 51.8045 327.532Z" fill="#212529"/>
<path d="M192.703 267.564H129.141V331.288H192.703V267.564Z" stroke="#212529" stroke-miterlimit="10"/>
<path d="M256.265 267.564H192.703V331.288H256.265V267.564Z" stroke="#212529" stroke-miterlimit="10"/>
<path d="M319.827 267.564H256.265V331.288H319.827V267.564Z" stroke="#212529" stroke-miterlimit="10"/>
<path d="M383.389 267.564H319.827V331.288H383.389V267.564Z" stroke="#212529" stroke-miterlimit="10"/>
<path d="M288.128 279.031H267.376V299.836H288.128V279.031Z" fill="#93CB40" stroke="#212529" stroke-miterlimit="10"/>
<path d="M288.128 299.836H267.376V320.64H288.128V299.836Z" stroke="#212529" stroke-miterlimit="10"/>
<path d="M308.716 279.031H287.964V299.836H308.716V279.031Z" stroke="#212529" stroke-miterlimit="10"/>
<path d="M308.716 299.836H287.964V320.64H308.716V299.836Z" stroke="#212529" stroke-miterlimit="10"/>
<path d="M238.618 285.42H209.696V314.416H238.618V285.42Z" stroke="#212529" stroke-miterlimit="10"/>
<path d="M216.232 279.195H203.977V291.481H216.232V279.195Z" fill="#F4F5F8" stroke="#212529" stroke-miterlimit="10"/>
<path d="M244.827 279.195H232.572V291.481H244.827V279.195Z" fill="#F4F5F8" stroke="#212529" stroke-miterlimit="10"/>
<path d="M216.232 308.19H203.977V320.477H216.232V308.19Z" fill="#93CB40" stroke="#212529" stroke-miterlimit="10"/>
<path d="M244.827 308.19H232.572V320.477H244.827V308.19Z" fill="#F4F5F8" stroke="#212529" stroke-miterlimit="10"/>
<path d="M171.461 307.863H150.219V279.031H171.461V297.706V307.863Z" stroke="#212529" stroke-miterlimit="10"/>
<path d="M150.382 299.017H171.461" stroke="#212529" stroke-miterlimit="10"/>
<path d="M160.84 320.477C159.369 320.477 158.062 319.33 158.062 317.692V307.863H163.618V317.692C163.618 319.166 162.311 320.477 160.84 320.477Z" stroke="#212529" stroke-miterlimit="10"/>
<path d="M150.219 284.601C150.219 284.601 155.448 282.144 159.86 284.601C164.271 287.058 165.578 287.714 171.461 288.205V279.031H150.219V284.601Z" fill="#93CB40" stroke="#212529" stroke-miterlimit="10"/>
<path d="M338.945 306.389C339.925 306.716 351.69 306.389 351.69 306.389L341.232 317.2C341.232 317.2 337.964 319.985 335.023 316.873C332.082 313.76 334.206 311.303 335.023 310.484C335.677 309.665 338.945 306.389 338.945 306.389Z" fill="#93CB40"/>
<path d="M334.533 317.2C332.735 315.398 332.735 312.45 334.533 310.648L363.945 281.161C365.742 279.359 368.683 279.359 370.481 281.161C372.278 282.963 372.278 285.912 370.481 287.714L341.069 317.2C339.271 319.002 336.33 319.002 334.533 317.2Z" stroke="#212529" stroke-miterlimit="10"/>
<path d="M331.918 319.985C331.101 319.166 331.101 317.856 331.918 317.036L333.389 315.562L336.33 318.511L334.86 319.985C334.043 320.804 332.735 320.804 331.918 319.985Z" fill="#212529"/>
<path d="M351.526 286.075L365.742 300.163" stroke="#212529" stroke-miterlimit="10" stroke-linecap="round"/>
<path d="M51.2687 90.9703H0.848389V141.519H51.2687V90.9703Z" stroke="#212529" stroke-miterlimit="10" stroke-linecap="round"/>
<path d="M25.9548 116.141L51.0612 90.9703L0.848389 141.519V90.9703L51.0612 141.519" stroke="#212529" stroke-miterlimit="10" stroke-linecap="round" stroke-linejoin="round"/>
<path d="M157.786 350.611H129.401V379.069H157.786V350.611Z" stroke="#212529" stroke-miterlimit="10" stroke-linecap="round"/>
<path d="M143.535 364.782L157.669 350.611L129.401 379.069V350.611L157.669 379.069" stroke="#212529" stroke-miterlimit="10" stroke-linecap="round" stroke-linejoin="round"/>
<path d="M11.4302 160.657H105.619" stroke="#212529" stroke-miterlimit="10" stroke-linecap="round"/>
<path d="M2.9231 160.657H6.45044" stroke="#212529" stroke-miterlimit="10" stroke-linecap="round"/>
<path d="M2.9231 183.539H6.45044" stroke="#212529" stroke-miterlimit="10" stroke-linecap="round"/>
<path d="M2.9231 206.422H6.45044" stroke="#212529" stroke-miterlimit="10" stroke-linecap="round"/>
<path d="M110.471 160.657H113.482" stroke="#212529" stroke-miterlimit="10" stroke-linecap="round"/>
<path d="M110.471 183.539H113.482" stroke="#212529" stroke-miterlimit="10" stroke-linecap="round"/>
<path d="M110.471 206.422H113.482" stroke="#212529" stroke-miterlimit="10" stroke-linecap="round"/>
<path d="M11.4302 183.539H105.619" stroke="#93CB40" stroke-miterlimit="10" stroke-linecap="round"/>
<path d="M11.4302 206.422H105.619" stroke="#212529" stroke-miterlimit="10" stroke-linecap="round"/>
<path d="M23.8795 156.705H21.3896V164.401H23.8795V156.705Z" fill="#212529"/>
<path d="M34.6691 179.795H32.1792V187.492H34.6691V179.795Z" fill="#93CB40"/>
<path d="M30.5197 202.677H28.0298V210.374H30.5197V202.677Z" fill="#212529"/>
<path d="M361.65 154.118L373.047 165.545" stroke="#212529" stroke-miterlimit="10" stroke-linecap="round"/>
<path d="M373.047 154.118L361.65 165.545" stroke="#212529" stroke-miterlimit="10" stroke-linecap="round"/>
<path d="M383.918 246.232H128.62V172.752V146.911H383.918V246.232Z" stroke="#212529" stroke-miterlimit="10"/>
<path d="M383.919 172.049H128.62" stroke="#212529" stroke-miterlimit="10"/>
<path d="M366.735 187.518H324.127V230.235H366.735V187.518Z" fill="#212529" stroke="#212529" stroke-miterlimit="10" stroke-linecap="round"/>
<path d="M311.152 187.518H268.543V230.235H311.152V187.518Z" stroke="#212529" stroke-miterlimit="10" stroke-linecap="round"/>
<path d="M255.568 187.518H212.96V230.235H255.568V187.518Z" stroke="#212529" stroke-miterlimit="10" stroke-linecap="round"/>
<path d="M212.96 230.059L255.568 187.518" stroke="#212529" stroke-miterlimit="10"/>
<path d="M255.568 230.059L212.96 187.518" stroke="#212529" stroke-miterlimit="10"/>
<path d="M176.445 111.395H336.575" stroke="#212529" stroke-miterlimit="10"/>
<path d="M257.654 53.24H315.66C315.66 85.184 289.517 111.394 257.654 111.394C225.954 111.394 199.811 85.3478 199.647 53.5676L257.654 53.24Z" stroke="#212529" stroke-miterlimit="10"/>
<path d="M312.882 51.1104H199.647V55.6972H312.882V51.1104Z" fill="#F4F5F8"/>
<path d="M322.686 46.3597H308.797V60.2841H322.686V46.3597Z" fill="#F4F5F8" stroke="#212529" stroke-miterlimit="10"/>
<path d="M206.51 46.3597H192.621V60.2841H206.51V46.3597Z" fill="#F4F5F8" stroke="#212529" stroke-miterlimit="10"/>
<path d="M264.68 104.514H250.791V118.439H264.68V104.514Z" fill="#F4F5F8" stroke="#212529" stroke-miterlimit="10"/>
<path d="M342.948 104.514H329.059V118.439H342.948V104.514Z" fill="#F4F5F8" stroke="#212529" stroke-miterlimit="10"/>
<path d="M183.471 104.514H169.582V118.439H183.471V104.514Z" fill="#F4F5F8" stroke="#212529" stroke-miterlimit="10"/>
<path d="M269.582 31.7802H243.275C243.275 31.7802 241.968 49.1446 237.066 67.9834C245.889 71.2597 252.262 81.0886 252.262 92.7195H256.347H260.432C260.432 81.0886 266.804 71.2597 275.628 67.9834C270.889 49.1446 269.582 31.7802 269.582 31.7802Z" stroke="#212529" stroke-miterlimit="10"/>
<path d="M256.51 61.1031V92.5557" stroke="#212529" stroke-miterlimit="10"/>
<path d="M256.51 60.2841C258.225 60.2841 259.615 58.8906 259.615 57.1716C259.615 55.4526 258.225 54.0591 256.51 54.0591C254.795 54.0591 253.406 55.4526 253.406 57.1716C253.406 58.8906 254.795 60.2841 256.51 60.2841Z" stroke="#212529" stroke-miterlimit="10"/>
<path d="M273.013 16.873H239.517V31.7803H273.013V16.873Z" stroke="#212529" stroke-miterlimit="10"/>
<path d="M243.438 0V16.873" stroke="#212529" stroke-miterlimit="10"/>
<path d="M269.255 0V16.873" stroke="#212529" stroke-miterlimit="10"/>
</svg>
