<svg width="325" height="404" viewBox="0 0 325 404" fill="none" xmlns="http://www.w3.org/2000/svg">
<path d="M254.915 338.536C254.764 337.176 254.462 335.816 253.857 334.758L256.275 332.189L255.519 331.283L254.764 330.376L251.742 332.189C250.684 331.283 249.626 330.678 248.266 330.225L248.115 326.749L247.057 326.598L246 326.447L245.093 329.923C243.733 330.074 242.373 330.376 241.315 330.98L238.747 328.563L237.84 329.318L236.933 330.074L238.747 333.096C237.84 334.154 237.236 335.211 236.782 336.571L233.307 336.722L233.156 337.78L233.005 338.838L236.329 339.745C236.48 341.104 236.782 342.464 237.387 343.673L234.969 346.242L235.725 347.149L236.48 348.055L239.502 346.242C240.56 347.149 241.769 347.753 242.978 348.206L243.129 351.682L244.186 351.833L245.244 351.984L246.151 348.66C247.511 348.509 248.871 348.206 250.08 347.602L252.648 350.02L253.555 349.264L254.462 348.509L252.648 345.487C253.555 344.429 254.159 343.22 254.613 342.011L258.088 341.86L258.239 340.802L258.39 339.745L254.915 338.536Z" stroke="#212529" stroke-miterlimit="10"/>
<path d="M245.546 344.58C248.634 344.58 251.137 342.077 251.137 338.989C251.137 335.901 248.634 333.398 245.546 333.398C242.458 333.398 239.955 335.901 239.955 338.989C239.955 342.077 242.458 344.58 245.546 344.58Z" stroke="#212529" stroke-miterlimit="10"/>
<path d="M243.431 303.933C242.827 301.515 241.769 299.248 240.258 297.435L243.885 292.146L242.374 290.786L240.863 289.426L235.876 293.506C233.912 292.297 231.494 291.391 229.076 291.089L227.868 284.742L225.752 284.893L223.637 285.044L223.032 291.542C220.614 292.146 218.348 293.204 216.535 294.564L211.246 290.937L209.886 292.449L208.526 293.96L212.606 298.946C211.397 300.91 210.49 303.328 210.188 305.746L203.842 306.955L203.993 309.07L204.144 311.186L210.49 311.79C211.095 314.208 212.153 316.474 213.664 318.439L210.037 323.727L211.548 325.087L213.059 326.447L217.895 322.367C220.01 323.727 222.277 324.483 224.845 324.785L226.054 330.98L228.17 330.829L230.285 330.678L230.89 324.332C233.307 323.727 235.574 322.67 237.538 321.159L242.827 324.634L244.187 323.123L245.547 321.612L241.467 316.776C242.676 314.661 243.582 312.394 243.885 309.826L250.08 308.617L249.929 306.501L249.778 304.386L243.431 303.933Z" stroke="#212529" stroke-miterlimit="10"/>
<path d="M226.809 317.985C232.484 317.985 237.084 313.385 237.084 307.71C237.084 302.035 232.484 297.435 226.809 297.435C221.135 297.435 216.534 302.035 216.534 307.71C216.534 313.385 221.135 317.985 226.809 317.985Z" stroke="#212529" stroke-miterlimit="10"/>
<path d="M303.871 379.334H283.472V254.823C283.472 252.103 285.587 249.988 288.307 249.988H299.187C301.907 249.988 304.022 252.103 304.022 254.823V379.334H303.871Z" stroke="#212529" stroke-miterlimit="10" stroke-linecap="round" stroke-linejoin="round"/>
<path d="M293.597 402.755L283.322 379.334H303.873L293.597 402.755Z" stroke="#212529" stroke-miterlimit="10" stroke-linecap="round" stroke-linejoin="round"/>
<path d="M293.597 262.228V379.334" stroke="#212529" stroke-miterlimit="10" stroke-linecap="round" stroke-linejoin="round"/>
<path d="M283.322 262.227H303.873" stroke="#212529" stroke-miterlimit="10"/>
<path d="M288.007 390.062H299.34L293.598 402.755L288.007 390.062Z" fill="#212529"/>
<path d="M138.866 87.2476H177.7" stroke="#212529" stroke-miterlimit="10" stroke-linecap="round" stroke-linejoin="round"/>
<path d="M171.958 80.5989L178.758 87.3986L172.261 93.8961" stroke="#212529" stroke-miterlimit="10" stroke-linecap="round" stroke-linejoin="round"/>
<path d="M161.531 73.9502H122.848" stroke="#212529" stroke-miterlimit="10" stroke-linecap="round" stroke-linejoin="round"/>
<path d="M128.44 67.3018L121.64 74.1015L128.137 80.599" stroke="#212529" stroke-miterlimit="10" stroke-linecap="round" stroke-linejoin="round"/>
<path d="M91.7218 266.458H82.2022C76.7624 266.458 72.3804 262.076 72.3804 256.637V174.586C72.3804 169.147 76.7624 164.765 82.2022 164.765H91.7218C97.1616 164.765 101.544 169.147 101.544 174.586V256.637C101.544 262.076 97.1616 266.458 91.7218 266.458Z" stroke="#212529" stroke-miterlimit="10"/>
<path d="M72.3795 256.788H69.8107C60.4422 256.788 52.887 249.233 52.887 239.864V191.208C52.887 181.84 60.4422 174.284 69.8107 174.284H72.3795V256.788Z" fill="#212529"/>
<path d="M219.557 266.458H229.076C234.516 266.458 238.898 262.076 238.898 256.637V174.586C238.898 169.147 234.516 164.765 229.076 164.765H219.557C214.117 164.765 209.735 169.147 209.735 174.586V256.637C209.735 262.076 214.117 266.458 219.557 266.458Z" stroke="#212529" stroke-miterlimit="10"/>
<path d="M238.898 256.788H241.467C250.835 256.788 258.39 249.233 258.39 239.864V191.208C258.39 181.84 250.835 174.284 241.467 174.284H238.898V256.788Z" fill="#212529"/>
<path d="M146.874 324.785H111.516C89.9076 324.785 72.5305 307.257 72.5305 285.8V154.036C72.5305 132.428 90.0587 115.051 111.516 115.051H130.857H200.063C221.671 115.051 239.048 132.579 239.048 154.036V211.91" stroke="#212529" stroke-miterlimit="10"/>
<path d="M156.092 324.785H133.88C130.706 324.785 128.138 322.216 128.138 319.043V317.381C128.138 314.207 130.706 311.639 133.88 311.639H156.243C159.416 311.639 161.985 314.207 161.985 317.381V319.043C161.834 322.216 159.265 324.785 156.092 324.785Z" stroke="#212529" stroke-miterlimit="10"/>
<path d="M137.506 213.269H125.115V225.66H137.506V213.269Z" fill="#93CB40"/>
<path d="M162.59 213.269H150.199V225.66H162.59V213.269Z" fill="#93CB40"/>
<path d="M187.673 213.269H175.282V225.66H187.673V213.269Z" fill="#93CB40"/>
<path d="M6.64966 14.4151L14.5071 22.5748L22.3646 14.4151L17.8314 0.513428H14.5071H11.1828L6.64966 14.4151Z" stroke="#212529" stroke-miterlimit="10"/>
<path d="M14.5071 80.5991V22.5747" stroke="#212529" stroke-miterlimit="10"/>
<path d="M6.3042 81.4075V85.4873H22.7747V81.4075H6.3042Z" stroke="#212529" stroke-miterlimit="10"/>
<path d="M1.04639 85.3057L1.04639 89.3855H27.9431V85.3057H1.04639Z" fill="#212529" stroke="#212529" stroke-miterlimit="10"/>
<path d="M27.9548 89.363V147.841C27.9548 151.921 24.6305 155.094 20.7018 155.094H8.31116C4.23131 155.094 1.05811 151.769 1.05811 147.841V89.363H27.9548Z" stroke="#212529" stroke-miterlimit="10"/>
<path d="M6.19653 89.363V135.903" stroke="#212529" stroke-miterlimit="10" stroke-linecap="round"/>
<path d="M22.8179 89.363V135.903" stroke="#212529" stroke-miterlimit="10" stroke-linecap="round"/>
<path d="M14.8091 89.363V135.903" stroke="#212529" stroke-miterlimit="10" stroke-linecap="round"/>
<path d="M14.8091 162.045V193.777C14.8091 207.981 26.2931 219.465 40.497 219.465H48.3544" stroke="#212529" stroke-miterlimit="10"/>
<path d="M265.795 215.687H267.759C281.963 215.687 293.447 227.171 293.447 241.375V242.886" stroke="#212529" stroke-miterlimit="10"/>
<path d="M301.606 197.404L293.296 167.938L323.063 176.551L301.606 197.404Z" stroke="#212529" stroke-miterlimit="10" stroke-linecap="round" stroke-linejoin="round"/>
<path d="M323.819 198.31L312.788 187.279" stroke="#212529" stroke-miterlimit="10" stroke-linecap="round" stroke-linejoin="round"/>
<path d="M296.318 150.409H292.842V159.324H296.318V150.409Z" fill="#212529"/>
<path d="M281.934 154.974L279.477 157.431L285.781 163.735L288.238 161.278L281.934 154.974Z" fill="#212529"/>
<path d="M274.833 168.435L274.833 171.911L283.748 171.911L283.748 168.435L274.833 168.435Z" fill="#212529"/>
<path d="M279.414 182.82L281.872 185.278L288.176 178.974L285.718 176.516L279.414 182.82Z" fill="#212529"/>
<path d="M300.994 161.224L303.451 163.682L309.755 157.378L307.298 154.92L300.994 161.224Z" fill="#212529"/>
</svg>
