<svg width="358" height="374" viewBox="0 0 358 374" fill="none" xmlns="http://www.w3.org/2000/svg">
<path d="M35.1109 243.974L54.5617 243.974L54.5617 362.25C54.5617 364.837 52.5446 366.849 49.9511 366.849L39.5774 366.849C36.9839 366.849 34.9668 364.837 34.9668 362.25L34.9668 243.974L35.1109 243.974Z" stroke="#212529" stroke-miterlimit="10" stroke-linecap="round" stroke-linejoin="round"/>
<path d="M44.9088 221.698L54.5621 243.974L35.1113 243.974L44.9088 221.698Z" stroke="#212529" stroke-miterlimit="10" stroke-linecap="round" stroke-linejoin="round"/>
<path d="M44.9082 355.352L44.9082 243.974" stroke="#212529" stroke-miterlimit="10" stroke-linecap="round" stroke-linejoin="round"/>
<path d="M54.5621 355.352L35.1113 355.352" stroke="#212529" stroke-miterlimit="10"/>
<path d="M50.095 233.626L39.4331 233.626L44.9081 221.698L50.095 233.626Z" fill="#212529"/>
<path d="M319.948 351.366C321.056 351.366 321.955 350.465 321.955 349.353C321.955 348.242 321.056 347.34 319.948 347.34C318.839 347.34 317.94 348.242 317.94 349.353C317.94 350.465 318.839 351.366 319.948 351.366Z" fill="#212529"/>
<path d="M333.845 351.367C334.954 351.367 335.853 350.465 335.853 349.353C335.853 348.242 334.954 347.34 333.845 347.34C332.736 347.34 331.837 348.242 331.837 349.353C331.837 350.465 332.736 351.367 333.845 351.367Z" fill="#212529"/>
<path d="M347.743 351.367C348.852 351.367 349.751 350.465 349.751 349.353C349.751 348.242 348.852 347.34 347.743 347.34C346.634 347.34 345.735 348.242 345.735 349.353C345.735 350.465 346.634 351.367 347.743 351.367Z" fill="#212529"/>
<path d="M319.946 362.206C321.055 362.206 321.954 361.305 321.954 360.193C321.954 359.081 321.055 358.18 319.946 358.18C318.837 358.18 317.938 359.081 317.938 360.193C317.938 361.305 318.837 362.206 319.946 362.206Z" fill="#212529"/>
<path d="M333.845 362.206C334.954 362.206 335.853 361.305 335.853 360.193C335.853 359.081 334.954 358.18 333.845 358.18C332.736 358.18 331.837 359.081 331.837 360.193C331.837 361.305 332.736 362.206 333.845 362.206Z" fill="#212529"/>
<path d="M347.743 362.206C348.852 362.206 349.751 361.305 349.751 360.193C349.751 359.081 348.852 358.18 347.743 358.18C346.634 358.18 345.735 359.081 345.735 360.193C345.735 361.305 346.634 362.206 347.743 362.206Z" fill="#212529"/>
<path d="M319.946 373.046C321.055 373.046 321.954 372.145 321.954 371.033C321.954 369.921 321.055 369.02 319.946 369.02C318.837 369.02 317.938 369.921 317.938 371.033C317.938 372.145 318.837 373.046 319.946 373.046Z" fill="#212529"/>
<path d="M333.845 373.046C334.954 373.046 335.853 372.145 335.853 371.033C335.853 369.921 334.954 369.02 333.845 369.02C332.736 369.02 331.837 369.921 331.837 371.033C331.837 372.145 332.736 373.046 333.845 373.046Z" fill="#212529"/>
<path d="M347.743 373.046C348.852 373.046 349.751 372.145 349.751 371.033C349.751 369.921 348.852 369.02 347.743 369.02C346.634 369.02 345.735 369.921 345.735 371.033C345.735 372.145 346.634 373.046 347.743 373.046Z" fill="#212529"/>
<path d="M147.703 253.564H120.141C110.2 253.564 102.141 261.623 102.141 271.564V299.288C102.141 309.23 110.199 317.288 120.141 317.288H147.703C157.644 317.288 165.703 309.23 165.703 299.288V271.564C165.703 261.623 157.644 253.564 147.703 253.564Z" stroke="#212529" stroke-miterlimit="10"/>
<path d="M338.389 253.564H310.827C300.886 253.564 292.827 261.623 292.827 271.564V299.288C292.827 309.23 300.886 317.288 310.827 317.288H338.389C348.33 317.288 356.389 309.23 356.389 299.288V271.564C356.389 261.623 348.33 253.564 338.389 253.564Z" stroke="#212529" stroke-miterlimit="10"/>
<path d="M261.128 265.031H240.376V285.836H261.128V265.031Z" fill="#93CB40" stroke="#212529" stroke-miterlimit="10"/>
<path d="M261.128 285.836H240.376V306.64H261.128V285.836Z" stroke="#212529" stroke-miterlimit="10"/>
<path d="M281.716 265.031H260.964V285.836H281.716V265.031Z" stroke="#212529" stroke-miterlimit="10"/>
<path d="M281.716 285.836H260.964V306.64H281.716V285.836Z" stroke="#212529" stroke-miterlimit="10"/>
<path d="M211.618 271.42H182.696V300.416H211.618V271.42Z" stroke="#212529" stroke-miterlimit="10"/>
<path d="M189.232 265.195H176.978V277.481H189.232V265.195Z" fill="white" stroke="#212529" stroke-miterlimit="10"/>
<path d="M217.827 265.195H205.572V277.481H217.827V265.195Z" fill="white" stroke="#212529" stroke-miterlimit="10"/>
<path d="M189.232 294.19H176.978V306.477H189.232V294.19Z" fill="#93CB40" stroke="#212529" stroke-miterlimit="10"/>
<path d="M217.827 294.19H205.572V306.477H217.827V294.19Z" fill="white" stroke="#212529" stroke-miterlimit="10"/>
<path d="M144.461 293.863H123.219V265.031H144.461V283.706V293.863Z" stroke="#212529" stroke-miterlimit="10"/>
<path d="M123.382 285.017H144.46" stroke="#212529" stroke-miterlimit="10"/>
<path d="M133.84 306.477C132.369 306.477 131.062 305.33 131.062 303.692V293.863H136.618V303.692C136.618 305.166 135.31 306.477 133.84 306.477Z" stroke="#212529" stroke-miterlimit="10"/>
<path d="M123.219 270.601C123.219 270.601 128.448 268.144 132.859 270.601C137.271 273.058 138.578 273.714 144.461 274.205V265.031H123.219V270.601Z" fill="#93CB40" stroke="#212529" stroke-miterlimit="10"/>
<path d="M311.945 292.389C312.925 292.716 324.69 292.389 324.69 292.389L314.232 303.2C314.232 303.2 310.964 305.985 308.023 302.873C305.082 299.76 307.206 297.303 308.023 296.484C308.677 295.665 311.945 292.389 311.945 292.389Z" fill="#93CB40"/>
<path d="M307.533 303.2C305.735 301.398 305.735 298.45 307.533 296.648L336.944 267.161C338.742 265.359 341.683 265.359 343.48 267.161C345.278 268.963 345.278 271.912 343.48 273.714L314.069 303.2C312.271 305.002 309.33 305.002 307.533 303.2Z" stroke="#212529" stroke-miterlimit="10"/>
<path d="M304.918 305.985C304.101 305.166 304.101 303.856 304.918 303.036L306.389 301.562L309.33 304.511L307.86 305.985C307.043 306.804 305.735 306.804 304.918 305.985Z" fill="#212529"/>
<path d="M324.526 272.075L338.742 286.163" stroke="#212529" stroke-miterlimit="10" stroke-linecap="round"/>
<path d="M7.6001 157.945H80.4035" stroke="#212529" stroke-miterlimit="10" stroke-linecap="round"/>
<path d="M1.0249 157.945H3.75137" stroke="#212529" stroke-miterlimit="10" stroke-linecap="round"/>
<path d="M1.0249 175.632H3.75137" stroke="#212529" stroke-miterlimit="10" stroke-linecap="round"/>
<path d="M1.0249 193.319H3.75137" stroke="#212529" stroke-miterlimit="10" stroke-linecap="round"/>
<path d="M84.1543 157.945H86.4819" stroke="#212529" stroke-miterlimit="10" stroke-linecap="round"/>
<path d="M84.1543 175.632H86.4819" stroke="#212529" stroke-miterlimit="10" stroke-linecap="round"/>
<path d="M84.1543 193.319H86.4819" stroke="#212529" stroke-miterlimit="10" stroke-linecap="round"/>
<path d="M7.6001 175.632H80.4035" stroke="#93CB40" stroke-miterlimit="10" stroke-linecap="round"/>
<path d="M7.6001 193.319H80.4035" stroke="#212529" stroke-miterlimit="10" stroke-linecap="round"/>
<path d="M17.2234 154.89H15.2988V160.839H17.2234V154.89Z" fill="#212529"/>
<path d="M25.5627 172.738H23.6382V178.687H25.5627V172.738Z" fill="#93CB40"/>
<path d="M22.3557 190.425H20.4312V196.374H22.3557V190.425Z" fill="#212529"/>
<path d="M334.65 140.118L346.047 151.545" stroke="#212529" stroke-miterlimit="10" stroke-linecap="round"/>
<path d="M346.047 140.118L334.65 151.545" stroke="#212529" stroke-miterlimit="10" stroke-linecap="round"/>
<path d="M356.918 232.232H101.62V158.752V132.911H356.918V232.232Z" stroke="#212529" stroke-miterlimit="10"/>
<path d="M356.918 158.049H101.62" stroke="#212529" stroke-miterlimit="10"/>
<path d="M333.287 179.983H303.576V209.77H333.287V179.983Z" fill="#212529" stroke="#212529" stroke-miterlimit="10" stroke-linecap="round"/>
<path d="M292.82 180.013H262.438V210.472H292.82V180.013Z" stroke="#212529" stroke-miterlimit="10" stroke-linecap="round"/>
<path d="M263.177 209.586L292.081 180.727" stroke="#212529" stroke-miterlimit="10"/>
<path d="M292.081 209.586L263.177 180.727" stroke="#212529" stroke-miterlimit="10"/>
<path d="M168.544 84.9098H290.358" stroke="#212529" stroke-miterlimit="10"/>
<path d="M230.321 40.6707H274.448C274.448 64.9709 254.56 84.9096 230.321 84.9096C206.207 84.9096 186.319 65.0956 186.195 40.9199L230.321 40.6707Z" stroke="#212529" stroke-miterlimit="10"/>
<path d="M272.335 39.0507H186.195V42.5399H272.335V39.0507Z" fill="white"/>
<path d="M279.793 35.4368H269.227V46.0292H279.793V35.4368Z" fill="white" stroke="#212529" stroke-miterlimit="10"/>
<path d="M191.416 35.4368H180.85V46.0292H191.416V35.4368Z" fill="white" stroke="#212529" stroke-miterlimit="10"/>
<path d="M235.666 79.6758H225.101V90.2682H235.666V79.6758Z" fill="white" stroke="#212529" stroke-miterlimit="10"/>
<path d="M295.206 79.6758H284.64V90.2682H295.206V79.6758Z" fill="white" stroke="#212529" stroke-miterlimit="10"/>
<path d="M173.889 79.6758H163.324V90.2682H173.889V79.6758Z" fill="white" stroke="#212529" stroke-miterlimit="10"/>
<path d="M239.395 24.3459H219.383C219.383 24.3459 218.389 37.5553 214.66 51.8863C221.372 54.3786 226.22 61.8556 226.22 70.7034H229.327H232.435C232.435 61.8556 237.282 54.3786 243.994 51.8863C240.39 37.5553 239.395 24.3459 239.395 24.3459Z" stroke="#212529" stroke-miterlimit="10"/>
<path d="M229.451 46.6523V70.5788" stroke="#212529" stroke-miterlimit="10"/>
<path d="M229.452 46.0293C230.756 46.0293 231.813 44.9692 231.813 43.6615C231.813 42.3539 230.756 41.2938 229.452 41.2938C228.147 41.2938 227.09 42.3539 227.09 43.6615C227.09 44.9692 228.147 46.0293 229.452 46.0293Z" stroke="#212529" stroke-miterlimit="10"/>
<path d="M242.006 13.0059H216.524V24.346H242.006V13.0059Z" stroke="#212529" stroke-miterlimit="10"/>
<path d="M219.507 0.170288V13.0058" stroke="#212529" stroke-miterlimit="10"/>
<path d="M239.146 0.170288V13.0058" stroke="#212529" stroke-miterlimit="10"/>
</svg>
