<svg width="60" height="56" viewBox="0 0 60 56" fill="none" xmlns="http://www.w3.org/2000/svg">
<path d="M30.0807 40.6028C33.9896 40.6028 37.1584 37.4339 37.1584 33.525C37.1584 29.6161 33.9896 26.4473 30.0807 26.4473C26.1717 26.4473 23.0029 29.6161 23.0029 33.525C23.0029 37.4339 26.1717 40.6028 30.0807 40.6028Z" stroke="#93CB40" stroke-miterlimit="10" stroke-linecap="round"/>
<path d="M30.0803 54.6111H16.2197C16.2197 46.9435 22.5602 40.7505 30.0803 40.7505C37.7479 40.7505 43.9409 47.091 43.9409 54.6111H30.0803Z" stroke="#93CB40" stroke-miterlimit="10" stroke-linecap="round"/>
<path d="M9.58472 45.7637C12.1092 45.7637 14.1558 43.7171 14.1558 41.1926C14.1558 38.6681 12.1092 36.6216 9.58472 36.6216C7.0602 36.6216 5.01367 38.6681 5.01367 41.1926C5.01367 43.7171 7.0602 45.7637 9.58472 45.7637Z" stroke="#212529" stroke-miterlimit="10" stroke-linecap="round" stroke-linejoin="round"/>
<path d="M14.7453 47.3857C13.2708 46.3535 11.5014 45.7637 9.58449 45.7637C4.71854 45.7637 0.737305 49.7449 0.737305 54.6109H9.58449H12.681C12.681 51.9567 13.4183 49.45 14.7453 47.3857Z" stroke="#212529" stroke-miterlimit="10" stroke-linecap="round" stroke-linejoin="round"/>
<path d="M50.134 45.7637C52.6586 45.7637 54.7051 43.7171 54.7051 41.1926C54.7051 38.6681 52.6586 36.6216 50.134 36.6216C47.6095 36.6216 45.563 38.6681 45.563 41.1926C45.563 43.7171 47.6095 45.7637 50.134 45.7637Z" stroke="#212529" stroke-miterlimit="10" stroke-linecap="round" stroke-linejoin="round"/>
<path d="M44.9731 47.3857C46.4477 46.3535 48.2171 45.7637 50.134 45.7637C55 45.7637 58.9812 49.7449 58.9812 54.6109H50.134H47.0375C47.0375 51.9567 46.3002 49.45 44.9731 47.3857Z" stroke="#212529" stroke-miterlimit="10" stroke-linecap="round" stroke-linejoin="round"/>
<path d="M30.0805 20.5493C35.4553 20.5493 39.8124 16.1921 39.8124 10.8174C39.8124 5.44257 35.4553 1.08545 30.0805 1.08545C24.7058 1.08545 20.3486 5.44257 20.3486 10.8174C20.3486 16.1921 24.7058 20.5493 30.0805 20.5493Z" stroke="#212529" stroke-miterlimit="10" stroke-dasharray="1 1"/>
<path d="M30.0806 15.683V5.36133" stroke="#212529" stroke-miterlimit="10" stroke-linecap="round" stroke-linejoin="round"/>
<path d="M26.8367 12.4395L29.9332 15.536" stroke="#212529" stroke-miterlimit="10" stroke-linecap="round" stroke-linejoin="round"/>
<path d="M33.3245 12.4395L30.228 15.536" stroke="#212529" stroke-miterlimit="10" stroke-linecap="round" stroke-linejoin="round"/>
</svg>
