<svg width="404" height="374" viewBox="0 0 404 374" fill="none" xmlns="http://www.w3.org/2000/svg">
<path d="M0.500732 298.347H381.806C393.406 298.347 402.737 307.678 402.737 319.279C402.737 330.879 393.406 340.21 381.806 340.21H347.256H296.693" stroke="#212529" stroke-miterlimit="10" stroke-linecap="round" stroke-linejoin="round"/>
<path d="M95.8264 276.155H78.9299V284.855H95.8264V276.155Z" stroke="#212529" stroke-miterlimit="10" stroke-linecap="round" stroke-linejoin="round"/>
<path d="M123.441 298.347H51.1897V288.764L78.9301 284.855H95.8266L123.441 288.764V298.347Z" stroke="#212529" stroke-miterlimit="10" stroke-linecap="round" stroke-linejoin="round"/>
<path d="M88.3867 263.041L46.0195 207.812L111.84 170.993" stroke="#212529" stroke-miterlimit="10" stroke-linecap="round" stroke-linejoin="round"/>
<path d="M46.0199 216.387C50.7553 216.387 54.5942 212.548 54.5942 207.812C54.5942 203.077 50.7553 199.238 46.0199 199.238C41.2844 199.238 37.4456 203.077 37.4456 207.812C37.4456 212.548 41.2844 216.387 46.0199 216.387Z" fill="white" stroke="#212529" stroke-miterlimit="10" stroke-linecap="round" stroke-linejoin="round"/>
<path d="M87.5042 271.615C92.2397 271.615 96.0786 267.777 96.0786 263.041C96.0786 258.306 92.2397 254.467 87.5042 254.467C82.7688 254.467 78.9299 258.306 78.9299 263.041C78.9299 267.777 82.7688 271.615 87.5042 271.615Z" fill="white" stroke="#212529" stroke-miterlimit="10" stroke-linecap="round" stroke-linejoin="round"/>
<path d="M125.097 138.333L102.093 161.336L111.633 170.876L134.637 147.873L125.097 138.333Z" fill="#212529"/>
<path d="M134.158 148.422L111.714 170.867L124.828 207.308L170.599 161.536L134.158 148.422Z" fill="white" stroke="#212529" stroke-miterlimit="10" stroke-linecap="round" stroke-linejoin="round"/>
<path d="M147.777 184.485L153.199 179.063C156.225 182.09 156.225 187.007 153.199 190.034C150.173 193.06 145.255 193.06 142.355 190.034L147.777 184.485Z" fill="white" stroke="#212529" stroke-miterlimit="10" stroke-linecap="round" stroke-linejoin="round"/>
<path d="M102.761 152.458L115.749 139.47" stroke="#212529" stroke-miterlimit="10" stroke-linecap="round" stroke-linejoin="round"/>
<path d="M100.996 145.775L109.066 137.705" stroke="#212529" stroke-miterlimit="10" stroke-linecap="round" stroke-linejoin="round"/>
<path d="M382.688 97.355H193.549C190.145 97.355 187.497 100.129 187.497 103.407V252.197C187.497 255.602 190.271 258.25 193.549 258.25H382.688" stroke="#212529" stroke-miterlimit="10" stroke-linecap="round" stroke-linejoin="round"/>
<path d="M187.496 229.5H363.648" stroke="#212529" stroke-miterlimit="10" stroke-linecap="round" stroke-linejoin="round"/>
<path d="M340.194 258.375H295.305C295.305 270.733 290.388 282.585 281.687 291.286L274.878 298.095H360.621L353.812 291.286C345.112 282.585 340.194 270.733 340.194 258.375Z" stroke="#212529" stroke-miterlimit="10" stroke-linecap="round" stroke-linejoin="round"/>
<path d="M231.755 183.729H343.599" stroke="#212529" stroke-miterlimit="10" stroke-linecap="round" stroke-linejoin="round"/>
<path d="M230.872 195.077H318.759" stroke="#212529" stroke-miterlimit="10" stroke-linecap="round" stroke-linejoin="round"/>
<path d="M205.275 189.403L211.454 195.077L220.406 183.729" stroke="#93CB40" stroke-miterlimit="10" stroke-linecap="round" stroke-linejoin="round"/>
<path d="M229.989 143.253H341.077" stroke="#212529" stroke-miterlimit="10" stroke-linecap="round" stroke-linejoin="round"/>
<path d="M229.106 154.601H316.237" stroke="#212529" stroke-miterlimit="10" stroke-linecap="round" stroke-linejoin="round"/>
<path d="M205.275 148.928L211.454 154.602L220.406 143.254" stroke="#93CB40" stroke-miterlimit="10" stroke-linecap="round" stroke-linejoin="round"/>
<path d="M194.313 75.1384V77.8748H202.514V75.1384" stroke="#212529" stroke-miterlimit="10" stroke-linecap="round" stroke-linejoin="round"/>
<path d="M191.853 70.7603H204.974" stroke="#212529" stroke-miterlimit="10" stroke-linecap="round" stroke-linejoin="round"/>
<path d="M194.587 67.4767L191.99 54.2051" stroke="#212529" stroke-miterlimit="10" stroke-linecap="round" stroke-linejoin="round"/>
<path d="M202.104 67.4767L204.838 54.2051" stroke="#212529" stroke-miterlimit="10" stroke-linecap="round" stroke-linejoin="round"/>
<path d="M191.99 53.384C192.673 53.384 192.673 56.1204 193.22 56.1204C193.903 56.1204 193.903 53.384 194.45 53.384C195.134 53.384 195.134 56.1204 195.68 56.1204C196.364 56.1204 196.364 53.384 196.91 53.384C197.594 53.384 197.594 56.1204 198.141 56.1204C198.824 56.1204 198.824 53.384 199.371 53.384C200.054 53.384 200.054 56.1204 200.601 56.1204C201.284 56.1204 201.284 53.384 201.831 53.384C202.514 53.384 202.514 56.1204 203.061 56.1204C203.608 56.1204 203.744 53.384 204.291 53.384" stroke="#212529" stroke-miterlimit="10" stroke-linecap="round" stroke-linejoin="round"/>
<path d="M198.414 68.1608C206.34 68.1608 212.765 61.7289 212.765 53.7946C212.765 45.8604 206.34 39.4285 198.414 39.4285C190.488 39.4285 184.063 45.8604 184.063 53.7946C184.063 61.7289 190.488 68.1608 198.414 68.1608Z" stroke="#212529" stroke-miterlimit="10" stroke-linecap="round" stroke-linejoin="round"/>
<path d="M191.853 66.5188V75.1385H204.974V66.5188" stroke="#212529" stroke-miterlimit="10" stroke-linecap="round" stroke-linejoin="round"/>
<path d="M268.098 73.6333V77.8747H280.536V73.6333" stroke="#212529" stroke-miterlimit="10" stroke-linecap="round" stroke-linejoin="round"/>
<path d="M264.407 67.0659H284.226" stroke="#212529" stroke-miterlimit="10" stroke-linecap="round" stroke-linejoin="round"/>
<path d="M268.645 62.1403L264.544 42.3013" stroke="#212529" stroke-miterlimit="10" stroke-linecap="round" stroke-linejoin="round"/>
<path d="M279.989 62.1403L283.952 42.3013" stroke="#212529" stroke-miterlimit="10" stroke-linecap="round" stroke-linejoin="round"/>
<path d="M264.544 41.6172C265.501 41.6172 265.501 44.3536 266.458 44.3536C267.414 44.3536 267.414 41.6172 268.371 41.6172C269.328 41.6172 269.328 44.3536 270.285 44.3536C271.241 44.3536 271.241 41.6172 272.198 41.6172C273.155 41.6172 273.155 44.3536 274.112 44.3536C275.068 44.3536 275.068 41.6172 276.025 41.6172C276.982 41.6172 276.982 44.3536 277.939 44.3536C278.895 44.3536 278.895 41.6172 279.852 41.6172C280.809 41.6172 280.809 44.3536 281.766 44.3536C282.722 44.3536 282.722 41.6172 283.679 41.6172" stroke="#212529" stroke-miterlimit="10" stroke-linecap="round" stroke-linejoin="round"/>
<path d="M274.248 63.0981C286.175 63.0981 295.843 53.4196 295.843 41.4805C295.843 29.5414 286.175 19.8628 274.248 19.8628C262.321 19.8628 252.653 29.5414 252.653 41.4805C252.653 53.4196 262.321 63.0981 274.248 63.0981Z" stroke="#212529" stroke-miterlimit="10" stroke-linecap="round" stroke-linejoin="round"/>
<path d="M264.407 60.772V73.6331H284.226V60.772" stroke="#212529" stroke-miterlimit="10" stroke-linecap="round" stroke-linejoin="round"/>
<path d="M372.743 66.1084H351.285V73.2231H372.743V66.1084Z" fill="#93CB40"/>
<path d="M355.249 73.2229V77.8748H368.78V73.2229" stroke="#212529" stroke-miterlimit="10" stroke-linecap="round" stroke-linejoin="round"/>
<path d="M351.285 66.1084H372.743" stroke="#212529" stroke-miterlimit="10" stroke-linecap="round" stroke-linejoin="round"/>
<path d="M355.795 60.7722L351.421 39.1545" stroke="#212529" stroke-miterlimit="10" stroke-linecap="round" stroke-linejoin="round"/>
<path d="M368.233 60.7722L372.607 39.1545" stroke="#212529" stroke-miterlimit="10" stroke-linecap="round" stroke-linejoin="round"/>
<path d="M351.421 38.6074C352.515 38.6074 352.515 41.3438 353.472 41.3438C354.565 41.3438 354.565 38.6074 355.522 38.6074C356.615 38.6074 356.615 41.3438 357.572 41.3438C358.665 41.3438 358.665 38.6074 359.622 38.6074C360.716 38.6074 360.716 41.3438 361.672 41.3438C362.766 41.3438 362.766 38.6074 363.722 38.6074C364.816 38.6074 364.816 41.3438 365.773 41.3438C366.866 41.3438 366.866 38.6074 367.823 38.6074C368.916 38.6074 368.916 41.3438 370.01 41.3438C371.103 41.3438 371.103 38.6074 372.197 38.6074" stroke="#212529" stroke-miterlimit="10" stroke-linecap="round" stroke-linejoin="round"/>
<path d="M361.946 61.8669C374.929 61.8669 385.455 51.3307 385.455 38.3337C385.455 25.3367 374.929 14.8005 361.946 14.8005C348.962 14.8005 338.437 25.3367 338.437 38.3337C338.437 51.3307 348.962 61.8669 361.946 61.8669Z" stroke="#212529" stroke-miterlimit="10" stroke-linecap="round" stroke-linejoin="round"/>
<path d="M351.285 59.2673V73.223H372.743V59.4042" stroke="#212529" stroke-miterlimit="10" stroke-linecap="round" stroke-linejoin="round"/>
<path d="M362.629 0.297607H361.262V11.3801H362.629V0.297607Z" fill="#93CB40"/>
<path d="M335.644 10.8865L334.677 11.854L342.506 19.6904L343.472 18.723L335.644 10.8865Z" fill="#93CB40"/>
<path d="M381.43 56.7225L380.464 57.6899L388.292 65.5264L389.258 64.5589L381.43 56.7225Z" fill="#93CB40"/>
<path d="M324.1 37.5061L324.1 38.8743L335.171 38.8743L335.171 37.5061L324.1 37.5061Z" fill="#93CB40"/>
<path d="M388.854 37.6113L388.854 38.9795L399.925 38.9795L399.925 37.6113L388.854 37.6113Z" fill="#93CB40"/>
<path d="M334.661 64.6417L335.628 65.6091L343.456 57.7727L342.49 56.8053L334.661 64.6417Z" fill="#93CB40"/>
<path d="M380.452 18.8057L381.418 19.7732L389.247 11.9368L388.28 10.9693L380.452 18.8057Z" fill="#93CB40"/>
<path d="M238.601 68.2761H229.616V69.7478H238.601V68.2761Z" fill="#212529"/>
<path d="M234.93 73.4441V64.4504H233.46V73.4441H234.93Z" fill="#212529"/>
<path d="M310.929 69.0159L319.49 69.0159" stroke="#212529" stroke-miterlimit="10" stroke-linecap="round" stroke-linejoin="round"/>
<path d="M317.03 66.1426L319.9 69.0158L317.167 71.7522" stroke="#212529" stroke-miterlimit="10" stroke-linecap="round" stroke-linejoin="round"/>
<path d="M296.49 307.392H175.917V373.101H296.49V307.392Z" stroke="#212529" stroke-miterlimit="10" stroke-linecap="round"/>
<path d="M200.586 313.731H182.855V331.511H200.586V313.731Z" stroke="#212529" stroke-miterlimit="10" stroke-linecap="round"/>
<path d="M218.318 313.731H200.586V331.511H218.318V313.731Z" stroke="#212529" stroke-miterlimit="10" stroke-linecap="round"/>
<path d="M236.204 313.731H218.472V331.511H236.204V313.731Z" stroke="#212529" stroke-miterlimit="10" stroke-linecap="round"/>
<path d="M253.935 313.731H236.204V331.511H253.935V313.731Z" stroke="#212529" stroke-miterlimit="10" stroke-linecap="round"/>
<path d="M271.667 313.731H253.936V331.511H271.667V313.731Z" stroke="#212529" stroke-miterlimit="10" stroke-linecap="round"/>
<path d="M289.398 313.731H271.666V331.511H289.398V313.731Z" stroke="#212529" stroke-miterlimit="10" stroke-linecap="round"/>
<path d="M200.586 331.511H182.855V349.291H200.586V331.511Z" stroke="#212529" stroke-miterlimit="10" stroke-linecap="round"/>
<path d="M200.586 349.206H182.855V366.986H200.586V349.206Z" fill="#93CB40" stroke="#212529" stroke-miterlimit="10" stroke-linecap="round"/>
<path d="M218.318 331.511H200.586V349.291H218.318V331.511Z" stroke="#212529" stroke-miterlimit="10" stroke-linecap="round"/>
<path d="M218.318 349.206H200.586V366.986H218.318V349.206Z" stroke="#212529" stroke-miterlimit="10" stroke-linecap="round"/>
<path d="M236.204 331.511H218.472V349.291H236.204V331.511Z" stroke="#212529" stroke-miterlimit="10" stroke-linecap="round"/>
<path d="M236.204 349.206H218.472V366.986H236.204V349.206Z" stroke="#212529" stroke-miterlimit="10" stroke-linecap="round"/>
<path d="M271.667 331.511H253.936V349.291H271.667V331.511Z" stroke="#212529" stroke-miterlimit="10" stroke-linecap="round"/>
<path d="M271.667 349.206H253.936V366.986H271.667V349.206Z" stroke="#212529" stroke-miterlimit="10" stroke-linecap="round"/>
<path d="M253.978 331.511H236.247V349.291H253.978V331.511Z" fill="#93CB40" stroke="#212529" stroke-miterlimit="10" stroke-linecap="round"/>
<path d="M253.978 349.206H236.247V366.986H253.978V349.206Z" stroke="#212529" stroke-miterlimit="10" stroke-linecap="round"/>
<path d="M289.398 331.511H271.666V349.291H289.398V331.511Z" stroke="#212529" stroke-miterlimit="10" stroke-linecap="round"/>
<path d="M289.398 349.206H271.666V366.986H289.398V349.206Z" stroke="#212529" stroke-miterlimit="10" stroke-linecap="round"/>
</svg>
