<svg width="402" height="375" viewBox="0 0 402 375" fill="none" xmlns="http://www.w3.org/2000/svg">
<path d="M351.785 6.43066L363.129 17.7275" stroke="#212529" stroke-miterlimit="10" stroke-linecap="round"/>
<path d="M363.129 6.43066L351.785 17.7275" stroke="#212529" stroke-miterlimit="10" stroke-linecap="round"/>
<path d="M21.9131 269.387H1.11865V0.869141H370.633V51.2706" stroke="#212529" stroke-miterlimit="10" stroke-linecap="round"/>
<path d="M78.305 43.4497L71.324 50.4016L78.305 57.3536" stroke="#212529" stroke-miterlimit="10" stroke-linecap="round" stroke-linejoin="round"/>
<path d="M104.309 57.3535H183.369" stroke="#212529" stroke-miterlimit="10" stroke-linecap="round"/>
<path d="M102.389 43.4497L88.4272 57.3536" stroke="#212529" stroke-miterlimit="10" stroke-linecap="round"/>
<path d="M44.1502 57.3535H18.7798V122.875" stroke="#212529" stroke-miterlimit="10" stroke-linecap="round"/>
<path d="M1.55005 23.2827L370.633 23.8102" stroke="#212529" stroke-miterlimit="10" stroke-linecap="round"/>
<path d="M342.884 17.7275H329.096" stroke="#212529" stroke-miterlimit="10" stroke-linecap="round"/>
<path d="M370.404 61.2921C370.492 61.2367 370.569 61.1878 370.634 61.1457C370.698 61.1862 370.772 61.2331 370.856 61.2859C371.187 61.4922 371.678 61.7897 372.328 62.1586C373.628 62.8962 375.561 63.9189 378.107 65.0662C383.139 67.3345 390.565 70.0898 400.214 72.0913C400.214 72.0938 400.214 72.0963 400.215 72.0988C400.248 72.3252 400.293 72.6641 400.339 73.1073C400.429 73.9938 400.519 75.2977 400.517 76.9547C400.511 80.2687 400.134 84.9938 398.641 90.617C395.675 101.79 388.298 116.537 370.633 130.816C352.968 116.537 345.592 101.79 342.625 90.617C341.133 84.9938 340.755 80.2687 340.75 76.9547C340.747 75.2977 340.837 73.9938 340.928 73.1073C340.973 72.6641 341.018 72.3252 341.052 72.0988C341.052 72.0971 341.052 72.0954 341.052 72.0937C350.616 70.176 358.041 67.4206 363.095 65.131C365.652 63.9727 367.602 62.9335 368.915 62.1822C369.572 61.8065 370.07 61.5028 370.404 61.2921Z" stroke="#212529"/>
<path d="M375.869 105.388H365.223C362.954 105.388 361.034 103.476 361.034 101.217V93.0481C361.034 90.7887 362.954 88.877 365.223 88.877H375.869C378.138 88.877 380.058 90.7887 380.058 93.0481V101.217C380.058 103.476 378.312 105.388 375.869 105.388Z" stroke="#212529" stroke-miterlimit="10" stroke-linecap="round"/>
<path d="M365.747 88.8768V84.7057C365.747 82.0987 367.841 79.8394 370.633 79.8394C373.251 79.8394 375.52 81.9249 375.52 84.7057V88.8768" stroke="#212529" stroke-miterlimit="10" stroke-linecap="round"/>
<path d="M370.633 100.174C372.561 100.174 374.124 98.6179 374.124 96.6981C374.124 94.7784 372.561 93.2222 370.633 93.2222C368.706 93.2222 367.143 94.7784 367.143 96.6981C367.143 98.6179 368.706 100.174 370.633 100.174Z" fill="#212529"/>
<path d="M370.808 101.912H370.284C369.761 101.912 369.237 101.391 369.237 100.869V99.479H371.855V100.869C371.855 101.391 371.506 101.912 370.808 101.912Z" fill="#212529"/>
<path d="M113.035 365.441H256.843" stroke="#212529" stroke-miterlimit="10" stroke-linecap="round" stroke-linejoin="round"/>
<path d="M139.214 158.458H232.41" stroke="#212529" stroke-miterlimit="10" stroke-linecap="round" stroke-linejoin="round"/>
<path d="M139.214 142.912H232.41" stroke="#212529" stroke-miterlimit="10" stroke-linecap="round" stroke-linejoin="round"/>
<path d="M214.608 158.497H155.27V365.441H214.608V158.497Z" stroke="#212529" stroke-miterlimit="10" stroke-linecap="round" stroke-linejoin="round"/>
<path d="M316.007 123.225H53.8716C51.2537 123.225 48.9849 120.966 48.9849 118.359C48.9849 115.752 51.2537 113.493 53.8716 113.493H316.182C318.8 113.493 321.068 115.752 321.068 118.359C320.894 120.966 318.8 123.225 316.007 123.225Z" stroke="#212529" stroke-miterlimit="10" stroke-linecap="round" stroke-linejoin="round"/>
<path d="M184.939 130.004C191.397 130.004 196.632 124.79 196.632 118.359C196.632 111.928 191.397 106.715 184.939 106.715C178.481 106.715 173.246 111.928 173.246 118.359C173.246 124.79 178.481 130.004 184.939 130.004Z" fill="#93CB40" stroke="#212529" stroke-miterlimit="10"/>
<path d="M293.843 113.493V157.29" stroke="#212529" stroke-miterlimit="10" stroke-linecap="round" stroke-linejoin="round"/>
<path d="M327.002 223.507H260.683L293.842 157.29L327.002 223.507Z" stroke="#212529" stroke-miterlimit="10" stroke-linecap="round" stroke-linejoin="round"/>
<path d="M334.856 241.408C308.328 250.272 279.532 250.272 252.829 241.408V223.507H334.856V241.408Z" fill="#93CB40" stroke="#212529" stroke-miterlimit="10"/>
<path d="M293.842 161.113C295.963 161.113 297.682 159.402 297.682 157.29C297.682 155.178 295.963 153.466 293.842 153.466C291.722 153.466 290.003 155.178 290.003 157.29C290.003 159.402 291.722 161.113 293.842 161.113Z" fill="#212529"/>
<path d="M72.022 113.493V157.29" stroke="#212529" stroke-miterlimit="10" stroke-linecap="round" stroke-linejoin="round"/>
<path d="M105.182 223.507H38.688L72.0221 157.29L105.182 223.507Z" stroke="#212529" stroke-miterlimit="10" stroke-linecap="round" stroke-linejoin="round"/>
<path d="M113.035 241.408C86.5075 250.272 57.711 250.272 31.0088 241.408V223.507H113.035V241.408Z" fill="#93CB40" stroke="#212529" stroke-miterlimit="10"/>
<path d="M72.0219 161.113C74.1424 161.113 75.8614 159.402 75.8614 157.29C75.8614 155.178 74.1424 153.466 72.0219 153.466C69.9014 153.466 68.1824 155.178 68.1824 157.29C68.1824 159.402 69.9014 161.113 72.0219 161.113Z" fill="#212529"/>
<path d="M185.043 282.572C197.188 282.572 207.033 272.767 207.033 260.673C207.033 248.579 197.188 238.774 185.043 238.774C172.898 238.774 163.053 248.579 163.053 260.673C163.053 272.767 172.898 282.572 185.043 282.572Z" stroke="#212529" stroke-miterlimit="10" stroke-linecap="round" stroke-linejoin="round"/>
<path d="M185.043 246.769C187.486 246.769 189.581 247.29 191.326 248.333C192.722 249.202 193.769 250.245 194.642 251.635C194.991 252.157 194.816 253.026 194.293 253.373C193.769 253.721 192.896 253.547 192.547 253.026C192.024 252.331 191.5 251.809 190.977 251.288C190.104 250.593 189.057 250.071 188.01 249.724C186.963 249.376 185.916 249.202 184.868 249.202C183.647 249.202 182.425 249.376 181.203 249.897C180.156 250.419 179.109 250.94 178.236 251.635C177.364 252.331 176.666 253.2 176.142 254.242C175.619 255.285 175.095 256.328 174.92 257.371C174.571 258.414 174.571 259.63 174.571 260.673C174.571 262.758 175.095 264.67 175.968 266.408C176.84 268.146 178.062 269.537 179.807 270.753C181.378 271.796 183.123 272.317 185.043 272.317C186.09 272.317 187.137 272.144 188.184 271.796C189.231 271.448 190.279 270.927 191.151 270.058C191.849 269.537 192.373 268.841 192.896 268.146C193.246 267.625 193.944 267.451 194.642 267.625C195.34 267.972 195.514 268.841 195.165 269.363C194.642 270.232 193.944 270.927 193.071 271.622C191.849 272.665 190.453 273.36 189.057 273.882C187.661 274.403 186.265 274.577 184.694 274.577C183.298 274.577 181.727 274.229 180.505 273.708C179.109 273.186 177.887 272.491 176.84 271.448C175.793 270.579 174.92 269.537 174.048 268.32C173.35 267.103 172.652 265.887 172.303 264.496C171.954 263.106 171.604 261.716 171.604 260.325C171.604 258.587 171.954 257.023 172.477 255.285C173.001 253.721 173.873 252.157 174.92 250.94C175.968 249.55 177.364 248.507 179.109 247.812C181.203 247.117 182.949 246.769 185.043 246.769Z" fill="#212529"/>
<path d="M246.023 365.441H123.856V375H246.023V365.441Z" fill="#212529"/>
</svg>
