<svg width="389" height="376" viewBox="0 0 389 376" fill="none" xmlns="http://www.w3.org/2000/svg">
<path d="M246.163 45.1028C247.625 45.1028 248.811 43.9173 248.811 42.4548C248.811 40.9924 247.625 39.8068 246.163 39.8068C244.7 39.8068 243.515 40.9924 243.515 42.4548C243.515 43.9173 244.7 45.1028 246.163 45.1028Z" fill="#212529"/>
<path d="M264.495 45.1029C265.958 45.1029 267.143 43.9173 267.143 42.4549C267.143 40.9924 265.958 39.8069 264.495 39.8069C263.033 39.8069 261.847 40.9924 261.847 42.4549C261.847 43.9173 263.033 45.1029 264.495 45.1029Z" fill="#212529"/>
<path d="M282.827 45.1029C284.289 45.1029 285.475 43.9173 285.475 42.4549C285.475 40.9924 284.289 39.8069 282.827 39.8069C281.364 39.8069 280.179 40.9924 280.179 42.4549C280.179 43.9173 281.364 45.1029 282.827 45.1029Z" fill="#212529"/>
<path d="M246.162 59.3612C247.625 59.3612 248.81 58.1757 248.81 56.7132C248.81 55.2508 247.625 54.0652 246.162 54.0652C244.7 54.0652 243.514 55.2508 243.514 56.7132C243.514 58.1757 244.7 59.3612 246.162 59.3612Z" fill="#212529"/>
<path d="M264.495 59.3612C265.958 59.3612 267.143 58.1757 267.143 56.7132C267.143 55.2508 265.958 54.0652 264.495 54.0652C263.033 54.0652 261.847 55.2508 261.847 56.7132C261.847 58.1757 263.033 59.3612 264.495 59.3612Z" fill="#212529"/>
<path d="M282.827 59.3612C284.289 59.3612 285.475 58.1757 285.475 56.7132C285.475 55.2508 284.289 54.0652 282.827 54.0652C281.364 54.0652 280.179 55.2508 280.179 56.7132C280.179 58.1757 281.364 59.3612 282.827 59.3612Z" fill="#212529"/>
<path d="M246.162 73.6196C247.625 73.6196 248.81 72.434 248.81 70.9716C248.81 69.5092 247.625 68.3236 246.162 68.3236C244.7 68.3236 243.514 69.5092 243.514 70.9716C243.514 72.434 244.7 73.6196 246.162 73.6196Z" fill="#212529"/>
<path d="M264.495 73.6196C265.958 73.6196 267.143 72.434 267.143 70.9716C267.143 69.5092 265.958 68.3236 264.495 68.3236C263.033 68.3236 261.847 69.5092 261.847 70.9716C261.847 72.434 263.033 73.6196 264.495 73.6196Z" fill="#212529"/>
<path d="M282.827 73.6196C284.289 73.6196 285.475 72.434 285.475 70.9716C285.475 69.5092 284.289 68.3236 282.827 68.3236C281.364 68.3236 280.179 69.5092 280.179 70.9716C280.179 72.434 281.364 73.6196 282.827 73.6196Z" fill="#212529"/>
<path d="M145.743 235.758L137.596 243.906L145.743 252.053" stroke="#212529" stroke-miterlimit="10" stroke-linecap="round" stroke-linejoin="round"/>
<path d="M120.893 314.79H250.237" stroke="#212529" stroke-miterlimit="10" stroke-linecap="round"/>
<path d="M120.893 283.422H250.237" stroke="#212529" stroke-miterlimit="10" stroke-linecap="round"/>
<path d="M176.296 252.053H268.569" stroke="#212529" stroke-miterlimit="10" stroke-linecap="round"/>
<path d="M174.056 235.758L157.76 252.053" stroke="#212529" stroke-miterlimit="10" stroke-linecap="round"/>
<path d="M298.511 0.698181H90.7461V27.178H298.511V0.698181Z" stroke="#212529" stroke-miterlimit="10"/>
<path d="M298.511 336.789H90.7461V375.49H298.511V336.789Z" stroke="#212529" stroke-miterlimit="10"/>
<path d="M90.7461 290.144V374.268" stroke="#212529" stroke-miterlimit="10"/>
<path d="M98.894 6.80896L112.134 20.0489" stroke="#212529" stroke-miterlimit="10" stroke-linecap="round"/>
<path d="M112.134 6.80896L98.894 20.0489" stroke="#212529" stroke-miterlimit="10" stroke-linecap="round"/>
<path d="M194.629 367.343C200.254 367.343 204.813 362.783 204.813 357.158C204.813 351.533 200.254 346.973 194.629 346.973C189.004 346.973 184.444 351.533 184.444 357.158C184.444 362.783 189.004 367.343 194.629 367.343Z" fill="#212529"/>
<path d="M298.512 367.342V257.146" stroke="#212529" stroke-miterlimit="10" stroke-linecap="round"/>
<path d="M90.7461 27.1781V47.1398" stroke="#212529" stroke-miterlimit="10"/>
<path d="M298.512 82.3784V27.1781" stroke="#212529" stroke-miterlimit="10" stroke-linecap="round"/>
<path d="M72.7463 110.761H19.1221C9.18095 110.761 1.12207 118.82 1.12207 128.761V182.385C1.12207 192.326 9.18092 200.385 19.122 200.385H72.7462C82.6874 200.385 90.7462 192.326 90.7462 182.385V128.761C90.7462 118.82 82.6874 110.761 72.7463 110.761Z" stroke="#212529" stroke-miterlimit="10"/>
<path d="M171.944 110.761H118.319C108.378 110.761 100.319 118.82 100.319 128.761V182.385C100.319 192.326 108.378 200.385 118.319 200.385H171.943C181.885 200.385 189.943 192.326 189.943 182.385V128.761C189.943 118.82 181.885 110.761 171.944 110.761Z" stroke="#212529" stroke-miterlimit="10"/>
<path d="M270.938 110.761H217.314C207.373 110.761 199.314 118.82 199.314 128.761V182.385C199.314 192.326 207.373 200.385 217.314 200.385H270.938C280.879 200.385 288.938 192.326 288.938 182.385V128.761C288.938 118.82 280.879 110.761 270.938 110.761Z" stroke="#212529" stroke-miterlimit="10"/>
<path d="M370.136 110.761H316.512C306.571 110.761 298.512 118.82 298.512 128.761V182.385C298.512 192.326 306.571 200.385 316.512 200.385H370.136C380.077 200.385 388.136 192.326 388.136 182.385V128.761C388.136 118.82 380.077 110.761 370.136 110.761Z" stroke="#212529" stroke-miterlimit="10"/>
<path fill-rule="evenodd" clip-rule="evenodd" d="M48.1174 137.237C51.2605 133.221 55.6261 133.047 55.6261 133.047C55.6261 133.047 56.3246 136.888 53.1814 140.555C49.8636 144.571 46.1965 143.873 46.1965 143.873C46.1965 143.873 45.3234 140.904 48.1174 137.237Z" fill="#93CB40"/>
<path fill-rule="evenodd" clip-rule="evenodd" d="M46.3708 146.842C47.9424 146.842 50.911 144.572 54.7526 144.572C61.3882 144.572 64.0075 149.286 64.0075 149.286C64.0075 149.286 58.9435 151.906 58.9435 158.192C58.9435 165.351 65.2299 167.796 65.2299 167.796C65.2299 167.796 60.8644 180.369 54.7526 180.369C51.9587 180.369 49.8633 178.448 46.8947 178.448C43.9261 178.448 40.9576 180.369 39.0368 180.369C33.6235 180.369 26.6387 168.495 26.6387 158.89C26.6387 149.461 32.5758 144.572 37.989 144.572C41.8307 144.746 44.6246 146.842 46.3708 146.842Z" fill="#93CB40"/>
<path d="M151.417 136.714L153.688 133.57C153.688 133.57 153.688 133.396 153.513 133.221C153.338 133.047 153.164 133.047 153.164 133.221L150.894 136.364C149.322 135.84 147.576 135.317 145.306 135.317C143.036 135.317 141.115 135.666 139.543 136.19L137.273 133.047C137.273 133.047 137.099 133.047 136.924 133.047C136.749 133.221 136.749 133.221 136.749 133.396L138.845 136.539C132.558 139.333 132.384 146.143 132.384 146.143H157.878C157.878 146.318 157.704 139.507 151.417 136.714ZM139.543 142.301C138.67 142.301 137.972 141.603 137.972 140.73C137.972 139.857 138.67 139.158 139.543 139.158C140.416 139.158 141.115 139.857 141.115 140.73C141.115 141.603 140.416 142.301 139.543 142.301ZM150.719 142.301C149.846 142.301 149.147 141.603 149.147 140.73C149.147 139.857 149.846 139.158 150.719 139.158C151.592 139.158 152.291 139.857 152.291 140.73C152.291 141.603 151.592 142.301 150.719 142.301ZM162.069 146.842C160.498 146.842 159.275 148.064 159.275 149.635V161.859C159.275 163.431 160.498 164.653 162.069 164.653C163.641 164.653 164.863 163.431 164.863 161.859V149.635C164.863 148.064 163.641 146.842 162.069 146.842ZM128.193 146.842C126.621 146.842 125.399 148.064 125.399 149.635V161.859C125.399 163.431 126.621 164.653 128.193 164.653C129.764 164.653 130.987 163.431 130.987 161.859V149.635C130.987 148.064 129.764 146.842 128.193 146.842ZM132.384 158.367V169.368C132.384 170.241 133.082 170.939 133.955 170.939H137.273V177.749C137.273 179.321 138.495 180.543 140.067 180.543C141.639 180.543 142.861 179.321 142.861 177.749V170.939H147.925V177.749C147.925 179.321 149.147 180.543 150.719 180.543C152.291 180.543 153.513 179.321 153.513 177.749V170.939H156.831C157.704 170.939 158.402 170.241 158.402 169.368V158.367V147.889H132.384V158.367Z" fill="#93CB40"/>
<path d="M260.703 148.937C260.179 148.762 259.655 148.588 259.131 148.413C259.306 148.064 259.306 147.715 259.306 147.365C260.528 141.428 259.655 136.539 257.036 134.967C254.417 133.396 250.051 134.967 245.686 138.809C245.336 139.158 244.812 139.508 244.463 140.031C244.114 139.682 243.939 139.508 243.59 139.333C239.05 135.317 234.335 133.57 231.541 135.142C228.922 136.714 228.049 141.254 229.271 147.016C229.446 147.54 229.446 148.064 229.62 148.762C228.922 148.937 228.398 149.112 227.7 149.286C222.286 151.207 218.794 154.176 218.794 157.144C218.794 160.287 222.461 163.431 228.049 165.351C228.573 165.526 228.922 165.701 229.446 165.701C229.271 166.225 229.097 166.923 229.097 167.447C228.049 173.035 228.922 177.575 231.541 178.972C234.335 180.543 238.875 178.972 243.241 174.956C243.59 174.606 243.939 174.257 244.289 173.908C244.812 174.257 245.162 174.781 245.686 175.13C250.051 178.797 254.242 180.369 256.861 178.797C259.655 177.226 260.528 172.511 259.306 166.574C259.131 166.05 259.131 165.701 258.957 165.177C259.306 165.002 259.655 165.002 259.83 164.828C265.592 162.907 269.434 159.764 269.434 156.62C269.783 153.652 266.291 150.683 260.703 148.937ZM247.083 140.206C250.924 136.888 254.417 135.666 255.988 136.539C257.734 137.587 258.433 141.428 257.211 146.667C257.211 147.016 257.036 147.365 257.036 147.715C254.94 147.191 252.67 146.842 250.226 146.667C248.829 144.746 247.432 142.825 245.86 141.254C246.209 141.079 246.733 140.555 247.083 140.206ZM233.986 159.414C234.51 160.287 234.859 161.161 235.383 162.034C235.907 162.907 236.431 163.78 236.955 164.653C235.208 164.478 233.637 164.129 232.24 163.954C232.764 162.383 233.287 160.986 233.986 159.414ZM233.986 154.35C233.287 152.779 232.764 151.382 232.414 149.985C233.811 149.636 235.383 149.461 236.955 149.112C236.431 149.985 235.907 150.858 235.383 151.731C234.859 152.604 234.335 153.477 233.986 154.35ZM235.034 156.795C235.732 155.398 236.431 154.001 237.129 152.779C237.828 151.382 238.701 150.159 239.574 148.937C241.145 148.762 242.717 148.762 244.289 148.762C245.86 148.762 247.432 148.762 249.003 148.937C249.876 150.159 250.75 151.556 251.448 152.779C252.147 154.176 253.02 155.398 253.718 156.795C253.02 158.192 252.321 159.589 251.448 160.986C250.75 162.383 249.876 163.605 249.003 165.002C247.432 165.177 245.86 165.177 244.289 165.177C242.717 165.177 241.145 165.177 239.748 165.002C238.875 163.78 238.002 162.383 237.304 160.986C236.431 159.589 235.732 158.192 235.034 156.795ZM253.369 162.034C253.893 161.161 254.417 160.287 254.766 159.414C255.464 160.986 255.988 162.383 256.512 163.954C255.115 164.304 253.369 164.478 251.797 164.828C252.321 163.78 252.845 162.907 253.369 162.034ZM254.766 154.35C254.242 153.477 253.893 152.604 253.369 151.731C252.845 150.858 252.321 149.985 251.797 149.112C253.369 149.286 254.94 149.636 256.512 149.985C255.988 151.382 255.464 152.779 254.766 154.35ZM244.289 143C245.336 144.048 246.209 145.27 247.257 146.667C245.336 146.492 243.241 146.492 241.32 146.667C242.368 145.27 243.416 144.048 244.289 143ZM232.589 136.714C234.335 135.666 238.002 137.063 242.019 140.73C242.193 140.905 242.542 141.254 242.717 141.428C241.32 143 239.748 144.746 238.351 146.842C235.907 147.016 233.637 147.365 231.541 147.889C231.367 147.365 231.367 146.842 231.192 146.318C230.494 141.254 231.017 137.587 232.589 136.714ZM230.144 163.431C229.795 163.256 229.271 163.256 228.922 163.081C226.477 162.208 224.382 161.161 222.985 159.938C221.763 158.89 221.064 157.843 221.064 156.97C221.064 155.049 223.858 152.779 228.398 151.207C228.922 151.033 229.62 150.858 230.144 150.683C230.843 152.779 231.541 154.874 232.589 157.144C231.716 159.065 230.843 161.335 230.144 163.431ZM242.019 173.209C240.098 174.956 238.002 176.178 236.256 176.702C234.684 177.226 233.462 177.226 232.764 176.876C231.192 176.003 230.494 172.336 231.367 167.622C231.541 167.098 231.541 166.574 231.716 165.875C233.811 166.399 236.081 166.748 238.526 166.923C239.923 168.844 241.495 170.765 242.892 172.336C242.542 172.686 242.193 173.035 242.019 173.209ZM244.463 170.765C243.416 169.717 242.368 168.495 241.32 167.098C242.368 167.098 243.241 167.098 244.289 167.098C245.336 167.098 246.384 167.098 247.432 167.098C246.384 168.495 245.511 169.717 244.463 170.765ZM257.56 173.908C257.211 175.479 256.687 176.702 255.814 177.051C254.242 177.924 250.75 176.702 247.083 173.559C246.733 173.209 246.209 172.86 245.86 172.336C247.257 170.765 248.654 169.018 250.051 166.923C252.496 166.748 254.766 166.399 256.861 165.875C257.036 166.225 257.036 166.748 257.211 167.098C257.909 169.717 257.909 171.987 257.56 173.908ZM259.481 162.907C259.131 163.081 258.957 163.081 258.608 163.256C257.909 161.161 257.036 159.065 255.988 156.795C257.036 154.525 257.909 152.429 258.433 150.509C258.957 150.683 259.481 150.858 260.004 151.033C264.719 152.604 267.513 155.049 267.513 156.97C267.688 158.716 264.545 161.335 259.481 162.907ZM244.289 161.335C246.733 161.335 248.829 159.24 248.829 156.795C248.829 154.35 246.733 152.255 244.289 152.255C241.844 152.255 239.748 154.35 239.748 156.795C239.748 159.24 241.844 161.335 244.289 161.335Z" fill="#93CB40"/>
<path d="M334.156 137.587C332.934 137.587 331.886 138.285 331.188 139.333L322.107 155.224C321.583 156.271 321.583 157.494 322.107 158.541L331.188 174.432C331.711 175.48 332.934 176.178 334.156 176.178H352.491C353.714 176.178 354.761 175.48 355.46 174.432L364.54 158.541C365.064 157.494 365.064 156.271 364.54 155.224L355.46 139.333C354.936 138.285 353.714 137.587 352.491 137.587H334.156ZM334.331 146.842H337.474C337.649 146.842 337.823 146.842 337.823 147.016L343.236 156.446V156.62V156.446L348.65 147.016C348.65 146.842 348.824 146.842 348.999 146.842H352.142C352.491 146.842 352.666 147.191 352.491 147.366L347.253 156.62L352.491 165.875C352.666 166.05 352.491 166.574 352.142 166.574H348.999C348.824 166.574 348.65 166.574 348.65 166.399L343.236 156.97V156.795V156.97L337.823 166.399C337.823 166.574 337.649 166.574 337.474 166.574H334.331C333.981 166.574 333.807 166.225 333.981 165.875L339.22 156.62L333.981 147.366C333.807 147.366 333.981 147.016 334.331 146.842Z" fill="#93CB40"/>
<path d="M110.911 245.943C110.3 242.887 109.282 240.239 107.448 237.795L112.133 231.684L110.3 229.851L108.467 228.018L102.152 232.703C99.7081 231.073 97.0601 229.851 94.0048 229.444L92.9863 221.703H90.542H88.0977L87.0793 229.444C84.0239 230.055 81.3759 231.073 78.9316 232.703L72.6172 228.018L70.784 229.851L68.9507 231.684L73.6356 237.795C72.0061 240.239 70.784 242.887 70.1729 245.943L62.4326 246.961V249.405V251.85L70.1729 252.868C70.784 255.924 71.8024 258.571 73.4319 261.016L68.747 267.127L70.5803 268.96L72.4135 270.793L78.5242 266.108C80.9685 267.738 83.8202 268.96 86.6719 269.571L87.6903 277.107H90.1346H92.5789L93.5974 269.571C96.6528 268.96 99.5044 267.941 101.745 266.108L107.856 270.793L109.689 268.96L111.522 267.127L106.837 261.016C108.467 258.571 109.689 255.924 110.096 252.868L117.837 251.85V249.405V246.961L110.911 245.943Z" stroke="#212529" stroke-miterlimit="10"/>
<path d="M102.671 249.609C102.671 256.195 97.3321 261.534 90.746 261.534C84.1599 261.534 78.8208 256.195 78.8208 249.609C78.8208 243.023 84.1599 237.684 90.746 237.684C97.3321 237.684 102.671 243.023 102.671 249.609Z" stroke="black"/>
<path d="M106.226 78.1009C106.837 75.6566 106.837 73.2123 106.226 70.9717L111.726 67.9164L110.911 66.0831L110.096 64.0462L103.986 65.4721C102.764 63.4352 101.134 61.8056 99.0972 60.3798L100.727 54.2691L98.8935 53.4543L97.0602 52.6395L93.8012 58.1392C91.3569 57.5281 88.9126 57.5281 86.672 58.1392L83.4129 52.6395L81.5797 53.658L79.7465 54.4727L81.1723 60.5835C79.1354 61.8056 77.5059 63.4352 76.08 65.4721L69.9693 63.8425L69.3582 65.6758L68.5435 67.509L73.8394 70.7681C73.2284 73.2124 73.2284 75.6566 73.8394 77.8972L68.5435 80.9526L69.3582 82.7858L70.173 84.6191L76.2837 83.1932C77.5059 85.2301 79.3391 87.0634 81.376 88.2855L79.7465 94.1926L81.5797 95.0073L83.4129 95.8221L86.672 90.5261C89.1163 91.1372 91.5606 91.1372 93.8012 90.5261L96.8565 95.8221L98.6898 95.0073L100.523 94.1926L99.0972 88.0818C101.134 86.8597 102.764 85.0264 104.189 82.9895L110.3 84.6191L111.115 82.7858L111.93 80.9526L106.226 78.1009Z" stroke="#212529" stroke-miterlimit="10"/>
<path d="M99.4124 74.4345C99.4124 79.6706 95.1677 83.9154 89.9316 83.9154C84.6954 83.9154 80.4507 79.6706 80.4507 74.4345C80.4507 69.1983 84.6954 64.9536 89.9316 64.9536C95.1677 64.9536 99.4124 69.1983 99.4124 74.4345Z" stroke="black"/>
<path d="M310.936 231.684C310.732 229.851 310.325 228.018 309.51 226.592L312.769 223.129L311.751 221.907L310.732 220.685L306.659 223.129C305.233 221.907 303.807 221.092 301.974 220.481L301.77 215.796L300.344 215.593L298.918 215.389L297.696 220.074C295.863 220.277 294.03 220.685 292.604 221.5L289.141 218.241L287.919 219.259L286.697 220.278L289.141 224.351C287.919 225.777 287.104 227.203 286.493 229.036L281.808 229.24L281.605 230.666L281.401 232.092L285.882 233.314C286.086 235.147 286.493 236.98 287.308 238.61L284.049 242.072L285.067 243.295L286.086 244.517L290.16 242.072C291.585 243.295 293.215 244.109 294.844 244.72L295.048 249.405L296.474 249.609L297.9 249.813L299.122 245.332C300.955 245.128 302.788 244.72 304.418 243.906L307.881 247.165L309.103 246.146L310.325 245.128L307.881 241.054C309.103 239.628 309.918 237.999 310.529 236.369L315.214 236.165L315.417 234.74L315.621 233.314L310.936 231.684Z" stroke="#212529" stroke-miterlimit="10"/>
<path d="M305.548 232.499C305.548 236.385 302.397 239.536 298.511 239.536C294.625 239.536 291.475 236.385 291.475 232.499C291.475 228.613 294.625 225.462 298.511 225.462C302.397 225.462 305.548 228.613 305.548 232.499Z" stroke="black"/>
</svg>
