<svg width="25" height="25" viewBox="0 0 25 25" fill="none" xmlns="http://www.w3.org/2000/svg">
<path d="M12.9707 2.55212C7.45068 2.55212 2.98068 7.03212 2.98068 12.5521C2.98068 18.0721 7.45068 22.5521 12.9707 22.5521C18.5007 22.5521 22.9807 18.0721 22.9807 12.5521C22.9807 7.03212 18.5007 2.55212 12.9707 2.55212ZM12.9807 20.5521C8.56068 20.5521 4.98068 16.9721 4.98068 12.5521C4.98068 8.13212 8.56068 4.55212 12.9807 4.55212C17.4007 4.55212 20.9807 8.13212 20.9807 12.5521C20.9807 16.9721 17.4007 20.5521 12.9807 20.5521Z" fill="white"/>
<path d="M13.4807 7.55212H11.9807V13.5521L17.2307 16.7021L17.9807 15.4721L13.4807 12.8021V7.55212Z" fill="white"/>
</svg>
