<svg width="42" height="54" viewBox="0 0 42 54" fill="none" xmlns="http://www.w3.org/2000/svg">
<path d="M35.3257 38.7964C38.6442 30.8725 34.8399 21.7881 26.8286 18.5059C18.8173 15.2236 9.63271 18.9864 6.31426 26.9103C2.9958 34.8342 6.8001 43.9186 14.8114 47.2009C22.8227 50.4831 32.0073 46.7203 35.3257 38.7964Z" stroke="white" stroke-miterlimit="10" stroke-dasharray="1 1"/>
<path d="M20.7907 50.6457C30.7195 50.6457 38.7684 42.6846 38.7684 32.8641C38.7684 23.0436 30.7195 15.0825 20.7907 15.0825C10.8619 15.0825 2.81299 23.0436 2.81299 32.8641C2.81299 42.6846 10.8619 50.6457 20.7907 50.6457Z" stroke="white" stroke-miterlimit="10"/>
<path d="M20.0113 42.0099V39.639C18.633 39.639 17.2547 39.2241 16.4158 38.6314L16.9551 37.0903C17.7941 37.6238 18.9926 38.098 20.3109 38.098C21.9889 38.098 23.1274 37.1496 23.1274 35.8456C23.1274 34.5416 22.2286 33.7711 20.4907 33.0598C18.0937 32.1115 16.5955 31.0446 16.5955 29.0293C16.5955 27.0734 17.9738 25.6508 20.1312 25.2952V22.9243H21.5694V25.2359C23.0076 25.2952 23.9664 25.6508 24.6256 26.0657L24.0263 27.6068C23.5469 27.3104 22.5881 26.8363 21.09 26.8363C19.2922 26.8363 18.5731 27.9032 18.5731 28.8515C18.5731 30.037 19.472 30.689 21.5095 31.5188C23.9065 32.4671 25.1649 33.7118 25.1649 35.7863C25.1649 37.6238 23.8466 39.3427 21.4495 39.7576V42.1877H20.0113V42.0099Z" stroke="#93CB40" stroke-miterlimit="10"/>
<path d="M14.0786 16.2085V7.61405C14.0786 3.93919 17.0749 0.975586 20.7903 0.975586C24.5057 0.975586 27.502 3.93919 27.502 7.61405V16.2678" stroke="white" stroke-miterlimit="10"/>
</svg>
