<svg width="49" height="52" viewBox="0 0 49 52" fill="none" xmlns="http://www.w3.org/2000/svg">
<path d="M24.5305 50.9462C37.4165 50.9462 47.8627 40.5 47.8627 27.614C47.8627 14.7279 37.4165 4.28174 24.5305 4.28174C11.6444 4.28174 1.19824 14.7279 1.19824 27.614C1.19824 40.5 11.6444 50.9462 24.5305 50.9462Z" stroke="white" stroke-miterlimit="10"/>
<path d="M24.4525 47.9909C35.7063 47.9909 44.8293 38.8679 44.8293 27.6141C44.8293 16.3603 35.7063 7.2373 24.4525 7.2373C13.1987 7.2373 4.07568 16.3603 4.07568 27.6141C4.07568 38.8679 13.1987 47.9909 24.4525 47.9909Z" fill="#2C3544"/>
<path d="M21.4195 48.146C21.1861 48.146 20.8751 48.0683 20.6417 47.9905L20.7973 47.2128C21.0306 47.2905 21.2639 47.2905 21.575 47.3683L21.4195 48.146ZM27.7192 48.146L27.5636 47.3683C27.7969 47.2905 28.0303 47.2905 28.3414 47.2128L28.4969 47.9905C28.2636 48.0683 27.9525 48.0683 27.7192 48.146ZM19.0862 47.6794C18.8529 47.6016 18.5418 47.5238 18.3085 47.4461L18.5418 46.6683C18.7752 46.7461 19.0085 46.8239 19.2418 46.9017L19.0862 47.6794ZM30.0524 47.6016L29.8191 46.8239C30.0524 46.7461 30.2857 46.6683 30.519 46.5906L30.7524 47.3683C30.519 47.4461 30.2857 47.5239 30.0524 47.6016ZM16.8308 46.9794C16.5975 46.9017 16.3642 46.7461 16.1308 46.6683L16.4419 45.9684C16.6753 46.0461 16.9086 46.2017 17.1419 46.2795L16.8308 46.9794ZM32.3078 46.8239L31.9967 46.1239C32.2301 46.0461 32.4634 45.8906 32.6967 45.8128L33.0078 46.5128C32.7745 46.6683 32.5412 46.7461 32.3078 46.8239ZM14.7309 45.9684C14.4976 45.8128 14.2643 45.735 14.0309 45.5795L14.4198 44.8795C14.6531 45.0351 14.8864 45.1129 15.1198 45.2684L14.7309 45.9684ZM34.4077 45.8128L34.0189 45.1129C34.2522 44.9573 34.4855 44.8795 34.6411 44.724L35.0299 45.424C34.8744 45.5795 34.6411 45.735 34.4077 45.8128ZM12.7088 44.724C12.4755 44.5684 12.2421 44.4129 12.0866 44.2573L12.5532 43.6351C12.7865 43.7907 12.9421 43.9462 13.1754 44.1018L12.7088 44.724ZM36.4299 44.5684L35.9632 43.9462C36.1965 43.7907 36.3521 43.6351 36.5854 43.4796L37.0521 44.1018C36.8187 44.2573 36.6632 44.4129 36.4299 44.5684ZM7.65346 39.7464C7.49791 39.5131 7.34236 39.2798 7.18681 39.1243L7.80901 38.6576C7.96456 38.8909 8.1201 39.0465 8.27565 39.2798L7.65346 39.7464ZM41.4074 39.5909L40.7852 39.1243C40.9408 38.8909 41.0963 38.7354 41.1741 38.5021L41.7963 38.8909C41.7185 39.1242 41.563 39.3576 41.4074 39.5909ZM6.3313 37.8021C6.17575 37.5688 6.09798 37.3354 5.94243 37.1021L6.6424 36.7133C6.72017 36.9466 6.87572 37.1799 7.03127 37.4132L6.3313 37.8021ZM42.6518 37.5688L41.9518 37.1799C42.1074 36.9466 42.1852 36.7133 42.3407 36.4799L43.0407 36.791C42.9629 37.1021 42.8073 37.3354 42.6518 37.5688ZM5.32024 35.6244C5.24246 35.3911 5.08691 35.1578 5.00914 34.9244L5.70911 34.6134C5.78688 34.8467 5.86466 35.08 6.0202 35.3133L5.32024 35.6244ZM43.6629 35.4689L42.9629 35.1578C43.0407 34.9245 43.1184 34.6911 43.274 34.4578L43.974 34.6911C43.8962 34.9244 43.8184 35.1578 43.6629 35.4689ZM4.5425 33.4467C4.46472 33.2134 4.38695 32.9023 4.30917 32.669L5.08691 32.5135C5.16469 32.7468 5.24246 32.9801 5.32024 33.2134L4.5425 33.4467ZM44.4406 33.2134L43.6629 32.9801C43.7406 32.7468 43.8184 32.5135 43.8184 32.2801L44.5961 32.4357C44.5961 32.669 44.5184 32.9023 44.4406 33.2134ZM3.99808 31.1135C3.9203 30.8802 3.9203 30.5691 3.84253 30.3358L4.62027 30.258C4.62027 30.4913 4.69804 30.7247 4.69804 31.0357L3.99808 31.1135ZM44.985 30.8802L44.2073 30.7246C44.285 30.4913 44.285 30.258 44.285 29.9469L45.0628 30.0247C45.0628 30.3358 44.985 30.6469 44.985 30.8802ZM4.77582 24.1916L3.99808 24.0361C4.07585 23.8028 4.07585 23.4917 4.15363 23.2583L4.93137 23.4139C4.85359 23.6472 4.85359 23.8805 4.77582 24.1916ZM44.0517 23.8805C43.974 23.6472 43.974 23.4139 43.8962 23.1028L44.6739 22.9472C44.7517 23.1806 44.7517 23.4917 44.8295 23.725L44.0517 23.8805ZM5.32024 21.9362L4.5425 21.7029C4.62027 21.4695 4.69804 21.2362 4.77582 20.9251L5.47578 21.1584C5.47578 21.4695 5.39801 21.7029 5.32024 21.9362ZM43.5073 21.6251C43.4295 21.3918 43.3518 21.1584 43.274 20.9251L43.974 20.6918C44.0517 20.9251 44.1295 21.1584 44.2073 21.4695L43.5073 21.6251ZM6.09798 19.8363L5.39801 19.5252C5.47578 19.2919 5.63133 19.0585 5.70911 18.8252L6.40907 19.1363C6.25353 19.3696 6.17575 19.603 6.09798 19.8363ZM42.7296 19.5252C42.6518 19.2919 42.4962 19.0585 42.4185 18.8252L43.1184 18.5141C43.1962 18.7474 43.3518 18.9808 43.4295 19.2141L42.7296 19.5252ZM7.10904 17.7364L6.40907 17.3475C6.56462 17.1142 6.6424 16.8809 6.79794 16.6475L7.49791 17.1142C7.34236 17.3475 7.18681 17.5031 7.10904 17.7364ZM41.7185 17.5031C41.563 17.2697 41.4852 17.0364 41.3296 16.8809L41.9518 16.492C42.1074 16.7253 42.2629 16.9586 42.3407 17.192L41.7185 17.5031ZM8.35343 15.8698L7.73123 15.4032C7.88678 15.1698 8.04233 15.0143 8.19788 14.781L8.82007 15.2476C8.66452 15.4032 8.50897 15.6365 8.35343 15.8698ZM40.3963 15.6365C40.2408 15.4032 40.0853 15.2476 39.9297 15.0143L40.5519 14.5476C40.7074 14.781 40.863 14.9365 41.0185 15.1698L40.3963 15.6365ZM11.3866 12.5255L10.8422 11.9033C11.0755 11.7478 11.2311 11.5922 11.4644 11.4367L11.931 12.0589C11.7755 12.1366 11.6199 12.2922 11.3866 12.5255ZM37.2854 12.2922C37.0521 12.1366 36.8965 11.9811 36.6632 11.8255L37.1298 11.2034C37.3632 11.3589 37.5187 11.5145 37.752 11.67L37.2854 12.2922ZM13.2532 11.1256L12.7865 10.5034C13.0199 10.3478 13.2532 10.1923 13.4087 10.0367L13.7976 10.6589C13.6421 10.8145 13.4087 10.97 13.2532 11.1256ZM35.4188 10.97C35.1855 10.8145 35.0299 10.6589 34.7966 10.5812L35.1855 9.8812C35.4188 10.0367 35.6521 10.1923 35.8854 10.2701L35.4188 10.97ZM15.1975 9.95897L14.8087 9.259C15.042 9.10346 15.2753 9.02568 15.5086 8.87013L15.8197 9.5701C15.5864 9.72565 15.4309 9.80342 15.1975 9.95897ZM33.4745 9.80342C33.2411 9.72565 33.0078 9.5701 32.7745 9.49233L33.0856 8.79236C33.3189 8.87013 33.5522 9.02568 33.7855 9.10346L33.4745 9.80342ZM17.2197 9.02568L16.9086 8.32571C17.1419 8.24794 17.3752 8.17017 17.6863 8.09239L17.9196 8.79236C17.6863 8.79236 17.453 8.87013 17.2197 9.02568ZM31.3746 8.87013C31.1412 8.79236 30.9079 8.71459 30.6746 8.63681L30.9079 7.85907C31.1412 7.93684 31.3746 8.01462 31.6856 8.09239L31.3746 8.87013ZM19.3973 8.32571L19.164 7.54797C19.3973 7.4702 19.7084 7.39243 19.9418 7.39243L20.0973 8.17017C19.9418 8.17017 19.6307 8.24794 19.3973 8.32571ZM29.1969 8.24794C28.9636 8.17017 28.7302 8.17017 28.4191 8.09239L28.5747 7.31465C28.808 7.39243 29.1191 7.39243 29.3524 7.4702L29.1969 8.24794ZM21.6528 7.85907L21.575 7.08133C21.8083 7.08133 22.1194 7.00356 22.3528 7.00356L22.4305 7.7813C22.1194 7.7813 21.8861 7.7813 21.6528 7.85907ZM26.9414 7.7813C26.7081 7.7813 26.4748 7.70352 26.1637 7.70352L26.2415 6.92578C26.4748 6.92578 26.7859 7.00356 27.0192 7.00356L26.9414 7.7813Z" fill="white"/>
<path d="M24.5305 9.64849L24.5305 5.5878L24.5305 1.46826" stroke="white" stroke-miterlimit="10" stroke-linecap="round"/>
<path d="M24.4526 45.6577V50.9464" stroke="white" stroke-miterlimit="10" stroke-linecap="round"/>
<path d="M7.96436 11.126L11.6975 14.9369" stroke="white" stroke-miterlimit="10" stroke-linecap="round"/>
<path d="M37.2075 40.3687L40.9407 44.1018" stroke="white" stroke-miterlimit="10" stroke-linecap="round"/>
<path d="M1.12036 27.6138H6.48677" stroke="white" stroke-miterlimit="10" stroke-linecap="round"/>
<path d="M42.4963 27.6138H47.785" stroke="white" stroke-miterlimit="10" stroke-linecap="round"/>
<path d="M7.96436 44.1018L11.6975 40.3687" stroke="white" stroke-miterlimit="10" stroke-linecap="round"/>
<path d="M37.2075 14.9369L40.9407 11.126" stroke="white" stroke-miterlimit="10" stroke-linecap="round"/>
<path d="M24.4527 30.5695C26.085 30.5695 27.4081 29.2463 27.4081 27.6141C27.4081 25.9819 26.085 24.6587 24.4527 24.6587C22.8205 24.6587 21.4973 25.9819 21.4973 27.6141C21.4973 29.2463 22.8205 30.5695 24.4527 30.5695Z" fill="#93CB40"/>
<path d="M24.4526 15.4038V24.6589" stroke="#93CB40" stroke-miterlimit="10" stroke-linecap="round"/>
<path d="M33.1632 27.6138H27.408" stroke="#93CB40" stroke-miterlimit="10" stroke-linecap="round"/>
<path d="M21.0305 0.946289H28.0302" stroke="white" stroke-miterlimit="10" stroke-linecap="round"/>
</svg>
