<svg width="50" height="51" viewBox="0 0 50 51" fill="none" xmlns="http://www.w3.org/2000/svg">
<path d="M17.2619 10.0508L20.7979 15.7011C18.0996 18.0523 16.4147 21.5136 16.4147 25.3804C16.4147 29.1777 18.0579 32.5909 20.6894 34.9357L17.3891 40.8029C14.5081 38.5756 12.2703 35.5413 10.9907 32.0324C12.798 30.5649 13.9489 28.3163 13.9489 25.7896C13.9489 23.173 12.7145 20.8329 10.7633 19.3752C11.9658 15.6536 14.2638 12.4125 17.2619 10.0508Z" stroke="#212529" stroke-width="1.5"/>
<path d="M10.4396 25.7896C10.4396 28.2698 8.4364 30.2769 5.97435 30.2769C3.54199 30.2769 1.53625 28.2724 1.53625 25.7896C1.53625 23.3145 3.53435 21.3296 6.00151 21.3296C8.43896 21.3296 10.4396 23.312 10.4396 25.7896Z" stroke="#212529" stroke-width="1.5"/>
<path d="M48.399 27.4781C47.9521 31.6243 46.2116 35.3794 43.5805 38.3211C42.6217 37.9036 41.5484 37.6693 40.4152 37.6693C36.4062 37.6693 33.0927 40.6555 32.5081 44.5253C31.4247 44.719 30.3179 44.8161 29.1698 44.8161C26.3938 44.8161 23.7455 44.2103 21.3618 43.1545L24.6085 37.3259C26.0243 37.8765 27.5434 38.1601 29.1427 38.1601C35.5441 38.1601 40.8151 33.4702 41.7783 27.3442L48.399 27.4781Z" stroke="#212529" stroke-width="1.5"/>
<path d="M44.882 45.7024C44.882 48.1826 42.8788 50.1897 40.4167 50.1897C37.9547 50.1897 35.9515 48.1826 35.9515 45.7024C35.9515 43.2222 37.9547 41.2151 40.4167 41.2151C42.8788 41.2151 44.882 43.2222 44.882 45.7024Z" stroke="#212529" stroke-width="1.5"/>
<path d="M40.1452 14.1829C41.6024 14.1829 42.9976 13.7884 44.1815 13.0883C46.4303 15.8608 47.9431 19.2521 48.4141 22.9915L41.7962 23.1922C40.7556 17.1533 35.517 12.5465 29.1986 12.5465C27.5646 12.5465 26.0179 12.8547 24.5804 13.4119L21.3121 7.62908C23.7201 6.55226 26.3945 5.94507 29.1986 5.94507C30.2011 5.94507 31.1909 6.03284 32.1699 6.18133C32.1722 10.6004 35.7365 14.1829 40.1452 14.1829Z" stroke="#212529" stroke-width="1.5"/>
<path d="M44.6105 6.17701C44.6105 8.65722 42.6073 10.6643 40.1452 10.6643C37.6832 10.6643 35.68 8.65722 35.68 6.17701C35.68 3.6968 37.6832 1.6897 40.1452 1.6897C42.6073 1.6897 44.6105 3.6968 44.6105 6.17701Z" stroke="#212529" stroke-width="1.5"/>
</svg>
