<svg width="71" height="47" viewBox="0 0 71 47" fill="none" xmlns="http://www.w3.org/2000/svg">
<g clip-path="url(#clip0)">
<path d="M35.76 3.88965C47.6433 3.88965 59.1991 7.34252 69.086 13.8226L67.7534 15.6469C58.2068 9.37928 47.1773 6.08195 35.76 6.08195C24.3483 6.08195 13.1586 9.42985 3.66464 15.6393L2.4215 13.8308C12.3112 7.3454 23.8717 3.88965 35.76 3.88965Z" stroke="#212529"/>
<path d="M70.4204 12.7985L69.7985 13.6946C59.7338 6.97391 47.9164 3.38957 35.7597 3.38957C23.603 3.38957 11.7855 6.97391 1.72092 13.6946L1.09895 12.7985C0.929321 12.5744 0.816235 12.2944 0.759692 12.0704C0.703149 11.7904 0.703149 11.5103 0.759692 11.2303C0.816235 10.9503 0.929321 10.7263 1.09895 10.5023C1.26858 10.2782 1.43821 10.1102 1.72092 9.9422C11.8986 3.55759 23.7161 0.197266 35.7597 0.197266C47.8033 0.197266 59.6208 3.55759 69.7985 9.88619C70.0246 10.0542 70.2508 10.2222 70.4204 10.4462C70.5901 10.6703 70.7031 10.9503 70.7597 11.1743C70.8162 11.3983 70.8162 11.7344 70.7597 12.0144C70.6466 12.2944 70.5901 12.5744 70.4204 12.7985Z" fill="#212529"/>
<path d="M35.76 7.58199L35.7649 7.58196C46.704 7.52859 57.4321 10.6854 66.4778 16.5962L65.2429 18.3927L65.2404 18.3963L47.3164 44.7188L47.3014 44.7408L47.2876 44.7636C47.2402 44.8418 47.1169 44.9634 46.897 45.0941C46.8286 45.1347 46.6914 45.1778 46.4466 45.1778C46.2019 45.1778 46.0647 45.1347 45.9963 45.0941C45.7764 44.9634 45.6531 44.8418 45.6057 44.7636L45.592 44.7411L45.5773 44.7193L38.2393 33.9289C37.9475 33.4611 37.515 33.1426 37.1756 32.9409C36.6786 32.6455 36.1373 32.5766 35.7035 32.5766C35.2697 32.5766 34.7284 32.6455 34.2314 32.9409C33.892 33.1426 33.4595 33.4611 33.1676 33.9289L25.8297 44.7193L25.815 44.7411L25.8013 44.7636C25.7539 44.8418 25.6306 44.9634 25.4107 45.0941C25.3423 45.1347 25.2051 45.1778 24.9604 45.1778C24.7156 45.1778 24.5784 45.1347 24.51 45.0941C24.2901 44.9634 24.1668 44.8418 24.1194 44.7636L24.1056 44.7408L24.0906 44.7188L6.16657 18.3963L6.16658 18.3963L6.1641 18.3927L4.93236 16.6008C14.0824 10.6904 24.8145 7.58198 35.76 7.58199Z" stroke="#212529" stroke-width="2"/>
<path d="M25.4692 27.5278C26.4305 27.5278 27.1655 26.7437 27.1655 25.8476C27.1655 24.8956 26.3739 24.1675 25.4692 24.1675C24.508 24.1675 23.7729 24.9516 23.7729 25.8476C23.7729 26.7437 24.508 27.5278 25.4692 27.5278Z" fill="#212529"/>
<path d="M46.0508 27.5278C47.012 27.5278 47.7471 26.7437 47.7471 25.8476C47.7471 24.8956 46.9555 24.1675 46.0508 24.1675C45.1461 24.1675 44.3545 24.9516 44.3545 25.8476C44.3545 26.7437 45.0895 27.5278 46.0508 27.5278Z" fill="#212529"/>
<path d="M29.4272 18.343C30.3885 18.343 31.1235 17.5589 31.1235 16.6628C31.1235 15.7667 30.3319 14.9827 29.4272 14.9827C28.466 14.9827 27.731 15.7667 27.731 16.6628C27.731 17.5589 28.466 18.343 29.4272 18.343Z" fill="#212529"/>
<path d="M42.0928 18.343C43.054 18.343 43.7891 17.5589 43.7891 16.6628C43.7891 15.7667 42.9975 14.9827 42.0928 14.9827C41.1315 14.9827 40.3965 15.7667 40.3965 16.6628C40.3965 17.5589 41.1315 18.343 42.0928 18.343Z" fill="#212529"/>
<path d="M17.7794 21.1992C18.7406 21.1992 19.4757 20.4151 19.4757 19.519C19.4757 18.5669 18.6841 17.8389 17.7794 17.8389C16.8747 17.8389 16.0831 18.6229 16.0831 19.519C16.0831 20.4151 16.8182 21.1992 17.7794 21.1992Z" fill="#212529"/>
<path d="M53.7406 21.1992C54.7018 21.1992 55.4369 20.4151 55.4369 19.519C55.4369 18.5669 54.6453 17.8389 53.7406 17.8389C52.7794 17.8389 52.0443 18.6229 52.0443 19.519C52.0443 20.4151 52.7794 21.1992 53.7406 21.1992Z" fill="#212529"/>
<path d="M35.76 26.0717C36.7212 26.0717 37.4563 25.2877 37.4563 24.3916C37.4563 23.4395 36.6647 22.7114 35.76 22.7114C34.7988 22.7114 34.0637 23.4955 34.0637 24.3916C34.0637 25.3437 34.7988 26.0717 35.76 26.0717Z" fill="#212529"/>
</g>
<defs>
<clipPath id="clip0">
<rect width="70" height="45.9804" fill="white" transform="translate(0.76001 0.197266)"/>
</clipPath>
</defs>
</svg>
