<svg width="28" height="27" viewBox="0 0 28 27" fill="none" xmlns="http://www.w3.org/2000/svg">
<path fill-rule="evenodd" clip-rule="evenodd" d="M16.1599 7.02311V4.84374H11.8005V7.02311H16.1599ZM5.26137 9.20248V21.189H22.699V9.20248H5.26137ZM22.699 7.02311C23.9087 7.02311 24.8787 7.99293 24.8787 9.20248V21.189C24.8787 22.3986 23.9087 23.3684 22.699 23.3684H5.26137C4.05163 23.3684 3.08167 22.3986 3.08167 21.189L3.09256 9.20248C3.09256 7.99293 4.05163 7.02311 5.26137 7.02311H9.62077V4.84374C9.62077 3.63419 10.5907 2.66437 11.8005 2.66437H16.1599C17.3696 2.66437 18.3396 3.63419 18.3396 4.84374V7.02311H22.699Z" fill="white"/>
</svg>
